<?xml version="1.0" encoding="UTF-8"?>
<svg id="Calque_1" data-name="Calque 1" xmlns="http://www.w3.org/2000/svg" viewBox="0 0 417.86 159.7">
    <defs>
        <style>
            .cls-1 {
            fill: #fff;
            }
        </style>
    </defs>
    <path class="cls-1"
          d="M380.59,47.94c-2.39-6.77-6.35-12.92-11.88-18.46-4.39-4.19-9.73-7.44-16.03-9.72-6.29-2.3-13.17-3.44-20.6-3.44-18.71,0-33.88,7.07-45.5,21.17-9.16-14.11-22.9-21.17-41.23-21.17l.06.1c-.84-.03-1.65-.1-2.5-.1-18.71,0-33.88,7.07-45.51,21.17-9.16-14.11-22.89-21.17-41.22-21.17l.05.08c-.7-.02-1.39-.08-2.11-.08h-.13c-18.57,0-33.66,6.98-45.26,20.89-1.83-2.69-3.92-5.28-6.36-7.72-1.08-1.03-2.22-2-3.41-2.91-8.31-6.83-18.83-10.26-31.58-10.26h0-.13c-.23,0-.46.03-.68.03-.29,0-.56-.03-.84-.03-14.5,0-26.87,4.27-37.12,12.75v-11.03H0v94.68h29.38v-39.44c0-5.16.81-9.68,2.44-13.6,1.6-3.88,3.78-7.1,6.53-9.68,3.45-2.99,7.29-5.1,11.51-6.33.27-.07.55-.18.82-.24.12-.03.24-.05.36-.09,2.67-.64,5.42-.98,8.29-.98,8.16.03,15.04,2.6,20.66,7.73,5.63,5.15,8.44,13.35,8.44,24.61v38.02h29.38v-40.77c.13-4.59.9-8.7,2.38-12.27,1.61-3.9,3.81-7.16,6.59-9.73,2.76-2.58,5.96-4.48,9.59-5.73,3.6-1.22,7.4-1.85,11.38-1.86,8.17.01,15.07,2.6,20.68,7.73,5.63,5.15,8.45,13.35,8.45,24.61v38.02h29.66v-39.44c0-5.16.81-9.68,2.43-13.6,1.62-3.9,3.82-7.16,6.59-9.73,2.76-2.58,5.96-4.48,9.59-5.73,3.62-1.23,7.43-1.86,11.45-1.86,8.2,0,15.13,2.58,20.75,7.73,5.63,5.15,8.44,13.35,8.44,24.61v38.02h29.93v-39.44c0-5.16.81-9.68,2.44-13.6,1.62-3.9,3.82-7.16,6.58-9.73,2.76-2.58,5.96-4.48,9.59-5.73,3.62-1.23,7.44-1.86,11.45-1.86,8.2,0,15.13,2.58,20.75,7.73,5.62,5.15,8.44,13.35,8.44,24.61v38.02h29.19v-42.3c0-8.21-1.19-15.69-3.58-22.47"/>
    <path class="cls-1"
          d="M417.86,16.58c0,9.15-7.41,16.56-16.57,16.56s-16.57-7.41-16.57-16.56,7.42-16.58,16.57-16.58,16.57,7.42,16.57,16.58"/>
    <path class="cls-1"
          d="M198.5,151.43c0,1.32-.21,2.48-.62,3.47-.41,1-1,1.83-1.76,2.5-.76.68-1.67,1.19-2.73,1.53-1.06.34-2.24.51-3.54.51h-11.17v-29.44h10.84c1.21,0,2.34.17,3.39.51,1.05.35,1.95.85,2.71,1.51.75.66,1.35,1.47,1.77,2.42.43.95.64,2.03.64,3.24,0,1.58-.41,2.95-1.22,4.14-.81,1.19-1.94,2.01-3.37,2.48,1.6.55,2.84,1.45,3.72,2.67.88,1.23,1.32,2.71,1.32,4.45M195.81,137.69c0-1.02-.17-1.88-.52-2.6-.34-.72-.81-1.3-1.41-1.76-.59-.45-1.29-.79-2.09-1.01-.8-.22-1.64-.33-2.52-.33h-8.35v11.42h8.35c.88,0,1.72-.11,2.52-.33.8-.22,1.5-.56,2.09-1.01.59-.46,1.06-1.04,1.41-1.76.34-.72.52-1.59.52-2.61M196.27,151.43c0-1.9-.61-3.39-1.82-4.45-1.22-1.06-2.83-1.59-4.84-1.59h-8.68v12.07h8.68c2.02,0,3.63-.53,4.84-1.59,1.21-1.07,1.82-2.54,1.82-4.45"/>
    <path class="cls-1"
          d="M229.6,144.73c0,1.65-.02,3.08-.04,4.28-.03,1.2-.13,2.25-.31,3.16-.18.91-.45,1.73-.83,2.44-.37.72-.89,1.41-1.55,2.07-.96.97-2.09,1.71-3.35,2.24-1.27.53-2.61.79-4.01.79s-2.75-.26-4.02-.79c-1.26-.52-2.39-1.27-3.35-2.24-.66-.66-1.18-1.35-1.55-2.07-.37-.71-.65-1.53-.83-2.44s-.28-1.96-.31-3.16c-.03-1.2-.04-2.63-.04-4.28s.02-3.08.04-4.28c.03-1.2.13-2.25.31-3.16s.46-1.73.83-2.44c.37-.72.89-1.41,1.55-2.07.96-.96,2.09-1.71,3.35-2.24,1.27-.52,2.61-.78,4.02-.78s2.74.26,4.01.78c1.26.53,2.39,1.27,3.35,2.24.66.66,1.18,1.35,1.55,2.07.37.71.64,1.53.83,2.44.18.91.28,1.96.31,3.16.03,1.2.04,2.63.04,4.28M227.37,144.73c0-1.58-.02-2.92-.07-4.03-.04-1.11-.14-2.08-.29-2.9-.15-.81-.38-1.51-.68-2.11-.3-.6-.72-1.15-1.24-1.68-.74-.74-1.6-1.31-2.56-1.69-.97-.38-1.98-.58-3.02-.58s-2.06.19-3.03.58c-.96.38-1.82.95-2.56,1.69-.52.52-.94,1.08-1.24,1.68-.3.59-.53,1.3-.68,2.11-.15.81-.25,1.78-.29,2.9-.04,1.12-.06,2.46-.06,4.03s.02,2.92.06,4.03c.04,1.12.13,2.09.29,2.9.15.81.38,1.52.68,2.11.3.6.72,1.15,1.24,1.68.74.74,1.6,1.31,2.56,1.69.97.38,1.98.58,3.03.58s2.05-.19,3.02-.58c.96-.38,1.82-.95,2.56-1.69.52-.53.94-1.09,1.24-1.68.3-.59.53-1.29.68-2.11.15-.81.25-1.78.29-2.9.04-1.11.07-2.46.07-4.03"/>
    <path class="cls-1"
          d="M252.01,145.88h-8.1v13.56h-2.24v-29.45h11.21c1.18,0,2.29.17,3.33.51,1.04.35,1.93.85,2.69,1.51.76.66,1.35,1.49,1.78,2.48.43.99.64,2.13.64,3.39,0,2.23-.62,4.02-1.84,5.37-1.23,1.35-2.87,2.21-4.94,2.56l7.11,13.61h-2.61l-7.03-13.56ZM259.09,137.94c0-2.04-.6-3.54-1.82-4.51-1.22-.97-2.77-1.45-4.68-1.45h-8.68v11.92h8.68c1.9,0,3.46-.48,4.68-1.45,1.22-.96,1.82-2.47,1.82-4.51"/>
    <path class="cls-1"
          d="M293.08,144.31c0,.99,0,2.06-.02,3.21-.01,1.14-.11,2.28-.29,3.39-.18,1.11-.47,2.18-.85,3.2-.39,1.02-.96,1.9-1.7,2.64-1.79,1.8-4.24,2.69-7.36,2.69h-9.88v-29.44h9.88c3.12,0,5.57.89,7.36,2.69.74.74,1.31,1.58,1.7,2.52.38.94.67,1.91.85,2.92.18,1.01.28,2.04.29,3.1.02,1.07.02,2.09.02,3.08M290.85,144.31c0-.83,0-1.7-.02-2.62-.02-.92-.08-1.83-.21-2.73-.12-.9-.34-1.75-.64-2.56-.3-.81-.74-1.52-1.32-2.13-.85-.88-1.83-1.49-2.92-1.8-1.09-.32-2.23-.48-3.41-.48h-7.11v25.48h7.11c1.19,0,2.32-.16,3.41-.47,1.09-.32,2.06-.92,2.92-1.8.58-.61,1.02-1.36,1.32-2.26.3-.9.52-1.85.64-2.85.13-1.01.19-2.01.21-3.02.01-1.01.02-1.93.02-2.75"/>
    <polygon class="cls-1"
             points="305.15 130 323.02 130 323.02 131.98 307.39 131.98 307.39 143.6 320.7 143.6 320.7 145.59 307.39 145.59 307.39 157.46 323.02 157.46 323.02 159.45 305.15 159.45 305.15 130"/>
    <path class="cls-1"
          d="M348.78,152.29h-13.73l-2.57,7.16h-2.39l10.83-29.45h1.99l10.83,29.45h-2.39l-2.56-7.16ZM335.76,150.31h12.32l-6.16-17.33-6.16,17.33Z"/>
    <path class="cls-1"
          d="M382.82,149.9c0,1.43-.25,2.75-.75,3.95-.5,1.2-1.19,2.23-2.09,3.1-.9.87-1.96,1.55-3.18,2.03-1.23.48-2.59.72-4.07.72s-2.85-.24-4.07-.72c-1.23-.48-2.29-1.16-3.18-2.03-.9-.87-1.6-1.9-2.09-3.1-.5-1.2-.74-2.52-.74-3.95v-19.89h2.23v19.6c0,1.21.19,2.32.56,3.33.37,1.01.91,1.86,1.6,2.56.69.7,1.51,1.25,2.48,1.63.96.39,2.04.58,3.23.58s2.26-.19,3.22-.58c.96-.38,1.79-.93,2.48-1.63.69-.7,1.22-1.56,1.59-2.56.37-1,.55-2.11.55-3.33v-19.6h2.24v19.89Z"/>
    <polygon class="cls-1"
             points="402.05 146.34 394.35 159.45 391.83 159.45 400.85 144.35 392.41 130 395.02 130 402.05 142.37 409.12 130 411.68 130 403.25 144.35 412.34 159.45 409.74 159.45 402.05 146.34"/>
</svg>