<svg width="120" height="370" viewBox="0 0 120 370" fill="none" xmlns="http://www.w3.org/2000/svg">
<path opacity="0.9" d="M118.519 222.862C118.42 235.359 118.42 251.873 118.47 268.784C118.569 305.481 118.965 344.211 118.965 348.526C118.965 367.172 80.7303 369.701 65.6051 369.949C63.9683 369.949 62.5801 369.999 61.4889 369.999C59.704 369.999 58.7117 369.949 58.7117 369.949C54.2978 370.048 34.0649 370.048 18.642 365.436C13.7763 363.946 9.44258 361.99 6.1574 359.408C6.17329 359.432 6.17835 359.462 6.19497 359.485C5.74837 359.139 5.30177 358.792 4.85589 358.395C4.45916 357.998 4.06242 357.602 3.66568 357.205C3.31881 356.808 2.97121 356.412 2.62434 355.965C2.3266 355.568 2.02959 355.122 1.78172 354.675C1.53385 354.18 1.28598 353.734 1.08725 353.237C0.889242 352.791 0.690512 352.296 0.591508 351.75C0.442641 351.304 0.343637 350.857 0.293774 350.361C0.19477 349.766 0.144907 349.171 0.144907 348.526V346.939C0.19477 342.973 0.243911 333.351 0.342915 320.805C0.392778 315.251 0.441918 309.102 0.441918 302.655C0.491781 300.523 0.491781 298.341 0.491781 296.109C0.541645 287.232 0.541645 277.958 0.590785 268.784C0.689789 251.824 0.689789 235.359 0.540922 222.863C0.540922 220.879 0.491059 218.945 0.491059 217.16C0.491059 216.267 0.491059 215.424 0.441196 214.581C0.391332 212.101 0.342192 209.87 0.292329 207.985C0.242466 206.745 0.193325 205.604 0.143462 204.662C-0.501146 191.868 1.0858 180.859 3.7141 171.536C6.59027 161.419 10.7065 153.187 14.4253 146.641C14.8719 145.848 15.3676 144.806 15.9132 143.566C16.1611 142.922 16.4097 142.227 16.7067 141.484C17.6982 138.855 18.7894 135.532 19.9298 131.714C20.2766 130.673 20.5744 129.532 20.922 128.342C21.0708 127.796 21.2688 127.201 21.4177 126.606C21.9142 124.821 22.4099 122.937 22.9555 121.002C23.3024 119.664 23.6493 118.374 23.9969 117.035C24.4926 115.15 24.9891 113.217 25.4848 111.233C25.6835 110.39 25.9314 109.547 26.1294 108.654C26.4763 107.216 26.8239 105.778 27.1708 104.34C27.5176 102.852 27.8652 101.365 28.2121 99.9258C28.559 98.4386 28.9058 96.9008 29.2534 95.4129C29.6003 93.9256 29.9479 92.4377 30.2948 90.9006C31.1381 87.132 31.9316 83.3626 32.7244 79.6431C33.0221 78.1551 33.3198 76.7171 33.6168 75.2291C33.9637 73.4933 34.3113 71.7575 34.6083 70.0722C35.0051 68.1876 35.3519 66.3527 35.6995 64.5172C35.9474 63.1283 36.1953 61.7892 36.4439 60.4508C36.6419 59.1117 36.8905 57.8225 37.0885 56.5333C38.7253 46.7146 39.7168 38.6808 39.6676 34.217C39.6676 33.2747 39.6676 30.7952 39.7168 28.0181H79.3898V34.217C79.1419 52.7639 97.441 134.094 104.631 146.64C111.872 159.237 120.401 177.933 118.963 204.662C118.767 208.481 118.618 214.829 118.519 222.862Z" fill="url(#paint0_linear_117_30)"/>
<path opacity="0.1" d="M43.7357 38.433C43.9843 56.9799 25.6845 138.31 18.4941 150.856C11.2538 163.502 2.7742 182.148 4.16242 208.878C4.36115 212.696 4.50929 219.044 4.60902 227.078C4.70802 239.575 4.70802 256.04 4.65888 272.999C4.55988 306.622 4.21228 341.931 4.16314 350.956V352.742C4.16314 355.27 4.90748 357.552 6.19669 359.485C5.75009 359.139 5.30349 358.792 4.85761 358.395C4.46088 357.998 4.06414 357.602 3.6674 357.205C3.32053 356.808 2.97293 356.412 2.62605 355.965C2.32832 355.568 2.03131 355.122 1.78344 354.675C1.53557 354.18 1.2877 353.734 1.08897 353.237C0.89096 352.791 0.69223 352.296 0.593227 351.75C0.44436 351.304 0.345356 350.857 0.295493 350.361C0.196489 349.766 0.146626 349.171 0.146626 348.526V346.939C0.196489 342.973 0.24563 333.351 0.344633 320.805C0.394497 315.251 0.443637 309.102 0.443637 302.655C0.4935 300.523 0.4935 298.341 0.4935 296.109C0.543363 287.232 0.642367 277.958 0.642367 268.784C0.741371 251.824 0.741371 235.359 0.592504 222.863C0.542641 220.879 0.542641 218.945 0.4935 217.16C0.4935 216.267 0.4935 215.424 0.443637 214.581C0.443637 212.101 0.393774 209.87 0.29477 207.985C0.244907 206.745 0.195766 205.604 0.145903 204.662C-0.498705 191.869 1.08824 180.859 3.71654 171.536C6.64257 161.419 10.7581 153.187 14.4776 146.641C14.9235 145.848 15.4199 144.806 15.9157 143.566C16.2134 142.922 16.4613 142.227 16.7092 141.484C17.7006 138.855 18.7918 135.533 19.9322 131.714C20.2791 130.673 20.5768 129.532 20.9244 128.342C21.0733 127.796 21.2713 127.201 21.4201 126.606C21.9166 124.771 22.4615 122.937 22.958 121.002C23.3048 119.664 23.6517 118.374 23.9993 117.035C24.495 115.15 24.9915 113.217 25.4872 111.233C25.686 110.39 25.9338 109.547 26.1318 108.654C26.4787 107.216 26.8263 105.778 27.1732 104.34C27.5201 102.852 27.8677 101.365 28.2145 99.9258C28.5614 98.4386 28.9083 96.9008 29.2559 95.4129C29.6028 93.9256 29.9504 92.4377 30.2972 90.9006C31.1406 87.132 31.934 83.3626 32.7268 79.6431C33.0245 78.1551 33.3223 76.7171 33.6193 75.2291C33.9662 73.4933 34.3137 71.7575 34.6108 70.0722C35.0075 68.1876 35.3544 66.3527 35.702 64.5172C35.9498 63.1283 36.1977 61.7892 36.4463 60.4508C36.6443 59.1117 36.8929 57.8225 37.0909 56.5333C38.7769 46.7146 39.7683 38.6808 39.7192 34.217C39.7192 33.2747 39.7192 30.7952 39.7691 28.0181H43.7364C43.7357 30.796 43.6866 37.4913 43.7357 38.433Z" fill="#F7FBF5"/>
<path d="M79.3918 28.019H39.7188C39.7188 25.9363 39.7686 23.7047 39.8178 21.8201C39.8676 21.0757 39.8676 20.382 39.8676 19.7865C39.9175 18.5963 40.0165 17.7537 40.0656 17.3569H79.0442C79.0933 17.7537 79.1432 18.597 79.1931 19.7865C79.2429 20.382 79.2429 21.0757 79.2429 21.8201C79.3419 23.7047 79.3918 25.9363 79.3918 28.019Z" fill="#885A36"/>
<path d="M82.5159 11.9023V21.8208H34.958V11.9023C34.958 6.44773 39.4211 1.98389 44.8764 1.98389H72.5975C73.8376 1.98389 75.0769 2.23176 76.1681 2.67836C78.7466 3.66984 80.83 5.75325 81.8215 8.33169C82.2681 9.4229 82.5159 10.6622 82.5159 11.9023Z" fill="#A25247"/>
<path d="M82.5159 9.86858V19.787H34.958V9.86858C34.958 4.46312 39.4211 0 44.8764 0H72.5975C72.9444 0 73.2421 0 73.5398 0.0498632C78.2508 0.496464 82.0202 4.26583 82.4668 8.97682C82.5159 9.27383 82.5159 9.57156 82.5159 9.86858Z" fill="#D55341"/>
<path d="M27.4789 254.877L26.6732 251.723H22.4261L15.5696 221.827H27.4984L28.3996 218.945C33.7754 201.772 45.679 190.67 58.7316 190.638V186.106C43.7047 186.138 30.7634 198.955 25.0219 217.293H9.68066L18.7839 256.257H24.0246C29.1685 276.407 42.7804 290.878 58.7316 290.911V286.378C44.8378 286.345 32.2824 273.697 27.4789 254.877Z" fill="#FBEDB4"/>
<path d="M28.3996 218.945L27.4985 221.827H15.5703L22.4269 251.723H26.6739L27.4797 254.877C32.2832 273.697 44.8386 286.344 58.7323 286.378V190.638C45.679 190.669 33.7754 201.771 28.3996 218.945Z" fill="#D55341"/>
<path d="M89.9851 254.877L90.7908 251.723H95.0379L101.894 221.827H89.9656L89.0644 218.945C83.6886 201.772 71.7857 190.67 58.7324 190.638V186.106C73.7593 186.138 86.7006 198.955 92.4421 217.293H107.783L98.6801 256.257H93.4394C88.2955 276.407 74.6836 290.878 58.7324 290.911V286.378C72.6262 286.345 85.1816 273.697 89.9851 254.877Z" fill="#FBEDB4"/>
<path d="M89.0642 218.945L89.9653 221.827H101.893L95.0369 251.723H90.7899L89.9841 254.877C85.1806 273.697 72.6252 286.344 58.7314 286.378V190.638C71.7848 190.669 83.6883 201.771 89.0642 218.945Z" fill="#D55341"/>
<path opacity="0.8" d="M58.7322 217.893L62.5145 229.533H74.7542L64.8523 236.728L68.6347 248.369L58.7322 241.174L48.8296 248.369L52.612 236.728L42.7095 229.533H54.9498L58.7322 217.893Z" fill="#FBEDB4"/>
<path opacity="0.1" d="M118.171 204.662C116.931 227.326 118.171 340.988 118.171 348.526C118.171 366.776 81.2265 369.603 65.6048 369.95C63.968 369.95 62.5798 370 61.4886 370C59.7036 370 58.7114 369.95 58.7114 369.95V0H72.5972C72.9441 0 73.2419 0 73.5396 0.0498632C78.2506 0.496464 82.0199 4.26583 82.4665 8.97682C82.5157 9.27455 82.5157 9.57229 82.5157 9.8693V21.8206H78.4493C78.4992 23.7052 78.5483 25.9361 78.5483 28.0195C78.5982 30.7959 78.5982 33.2761 78.5982 34.1686C78.3503 52.7654 96.5995 134.045 103.84 146.641C111.03 159.237 119.56 177.934 118.171 204.662Z" fill="#040000"/>
<defs>
<linearGradient id="paint0_linear_117_30" x1="59.5638" y1="369.999" x2="59.5638" y2="-46.7138" gradientUnits="userSpaceOnUse">
<stop stop-color="#734D2D"/>
<stop offset="0.7635" stop-color="#885A36"/>
</linearGradient>
</defs>
</svg>
