<svg width="123" height="476" viewBox="0 0 123 476" fill="none" xmlns="http://www.w3.org/2000/svg">
<path d="M37.5206 248.94V295V340.418L123 340.418V248.94L37.5206 248.94Z" fill="#F3EBE0"/>
<path d="M81.0101 92.9776V29.9928H57.0159V119.971C37.8205 160.761 36.021 222.946 37.5206 248.94L123 248.94V340.418L37.5206 340.418V473.236C44.1154 474.327 51.5856 474.72 60 475.001C88.5 475.951 117.001 464.888 123 458.889V173.958C123 154.763 103.005 129.969 93.0072 119.971C84.0094 110.973 81.0101 99.9759 81.0101 92.9776Z" fill="#427E4E"/>
<path d="M0.0297869 173.958V458.889C3.85989 462.719 15.9071 469.66 37.5206 473.236V340.418V295V248.94C36.021 222.946 37.8205 160.761 57.0159 119.971V29.9928H42.0195V92.9776C42.0195 106.174 35.0213 116.472 31.5222 119.971C5.12856 141.566 -0.470093 164.96 0.0297869 173.958Z" fill="#236633"/>
<path d="M36.021 22.4946C36.021 24.894 40.02 28.4931 42.0195 29.9928H57.0159H81.0101C83.4095 29.9928 86.0089 24.994 87.0087 22.4946V4.49891C87.0087 0.899781 82.0099 0 79.5105 0H46.5184C38.1205 0 36.021 2.99927 36.021 4.49891V22.4946Z" fill="#D55341"/>
<path d="M0.0297869 248.94V295L0.030382 340.418H37.5206V248.94L0.0297869 248.94Z" fill="#DECEB7"/>
<path d="M42.0195 29.9928V76.0528V92.9776H81.0101V29.9928H42.0195Z" fill="#D55341"/>
<path d="M42.0195 29.9928V76.0528V92.9776H57.0159L57.0159 29.9928H42.0195Z" fill="#A25247"/>
<path d="M36.021 22.4946C36.021 24.894 40.02 28.4931 42.0195 29.9928H57.0159V22.4948L57.0162 10.0003V0.000267029L46.5184 0C38.1205 0 36.021 2.99927 36.021 4.49891V22.4946Z" fill="#A25247"/>
</svg>
