<svg width="463" height="460" viewBox="0 0 463 460" fill="none" xmlns="http://www.w3.org/2000/svg">
<path d="M333.854 181.095C255.454 177.095 224.521 151.095 218.854 138.595V238.095C220.296 245.379 226.767 256.062 241.354 265.691V211.095L248.854 190.595L254.854 211.095V273.103C272.644 281.23 298.153 287.418 333.854 288.095C359.587 288.583 380.521 285.736 397.354 281.052V175.728C380.301 180.04 359.296 182.393 333.854 181.095Z" fill="#B2E1E8"/>
<path d="M218.854 353.595V406.095C228.855 419.095 265.855 445.595 333.854 447.595C358.439 448.318 379.668 444.575 397.354 438.729V393.349C381.676 396.97 361.211 399.632 333.854 401.095C298.31 402.995 272.198 396.316 253.81 386.903L248.854 412.095L241.354 388.095V379.361C228.905 370.48 221.758 360.684 218.854 353.595Z" fill="#B2E1E8"/>
<path d="M456.854 353.595V238.095C452.799 250.143 435.731 270.373 397.354 281.052C380.521 285.736 359.587 288.583 333.854 288.095C298.153 287.418 272.644 281.23 254.854 273.103V381.595L253.81 386.903C272.198 396.316 298.31 402.995 333.854 401.095C361.211 399.632 381.676 396.97 397.354 393.349C435.06 384.638 445.076 370.371 456.669 353.859L456.854 353.595Z" fill="#3A7B71"/>
<path d="M218.854 238.095V353.595C221.758 360.684 228.905 370.48 241.354 379.361V265.691C226.767 256.062 220.296 245.379 218.854 238.095Z" fill="#3A7B71"/>
<path d="M456.854 238.095V138.595C451.225 149.29 432.851 166.753 397.354 175.728V281.052C435.731 270.373 452.799 250.143 456.854 238.095Z" fill="#93AEBE"/>
<path d="M456.854 401.095V353.595L456.669 353.859C445.076 370.371 435.06 384.638 397.354 393.349V438.729C428.587 428.405 448.767 411.523 456.854 401.095Z" fill="#93AEBE"/>
<path d="M218.854 406.095C218.021 420.928 239.854 452.295 333.854 459.095C372.854 458.928 452.054 448.095 456.854 406.095V401.095C448.767 411.523 428.587 428.405 397.354 438.729C379.668 444.575 358.439 448.318 333.854 447.595C265.855 445.595 228.855 419.095 218.854 406.095Z" fill="#94D6E2"/>
<path d="M241.354 388.095L248.854 412.095L253.81 386.903C249.176 384.532 245.034 381.987 241.354 379.361V388.095Z" fill="#BEE6ED"/>
<path d="M254.854 381.595V273.103C249.735 270.765 245.254 268.266 241.354 265.691V379.361C245.034 381.987 249.176 384.532 253.81 386.903L254.854 381.595Z" fill="#63988C"/>
<path d="M248.854 190.595L241.354 211.095V265.691C245.254 268.266 249.735 270.765 254.854 273.103V211.095L248.854 190.595Z" fill="#BFE7EE"/>
<path fill-rule="evenodd" clip-rule="evenodd" d="M218.854 138.595C224.521 151.095 255.454 177.095 333.854 181.095C359.296 182.393 380.301 180.04 397.354 175.728C432.851 166.753 451.225 149.29 456.854 138.595C460.188 132.761 468.709 117.095 456.854 99.5948C446.354 84.0947 404.254 54.0948 333.854 58.0948C245.854 63.0948 231.355 88.0948 218.854 99.5948C215.322 104.137 210.719 114.526 213.551 126.595C214.459 130.468 216.134 134.513 218.854 138.595ZM333.854 70.0947C398.854 68.0947 418.854 85.0947 439.354 99.5948C448.2 105.852 449.879 114.33 448.581 122.095C447.473 128.724 444.194 134.833 441.354 138.595C439.796 140.247 437.671 142.141 434.984 144.166C419.567 155.784 385.63 171.712 333.854 171.095C286.91 170.535 255.625 156.153 239.354 144.166C234.552 140.628 231.057 137.299 228.854 134.595C227.13 132.095 225.05 127.527 224.549 122.095C224.082 117.022 224.991 111.196 228.854 105.595C238.854 91.0947 268.854 72.0947 333.854 70.0947Z" fill="#94D5E4"/>
<path d="M239.354 144.166C255.625 156.153 286.91 170.535 333.854 171.095C385.63 171.712 419.567 155.784 434.984 144.166C398.614 126.238 387.854 123.595 333.854 119.595C290.654 116.395 252.854 134.642 239.354 144.166Z" fill="#7B4B94"/>
<path d="M224.549 122.095C225.05 127.527 227.13 132.095 228.854 134.595C231.057 137.299 234.552 140.628 239.354 144.166C252.854 134.642 290.654 116.395 333.854 119.595C387.854 123.595 398.614 126.238 434.984 144.166C437.671 142.141 439.796 140.247 441.354 138.595C444.194 134.833 447.473 128.724 448.581 122.095C412.809 98.5947 399.854 89.0947 333.854 85.0947C281.054 81.8947 238.984 108.428 224.549 122.095Z" fill="#8B5FA7"/>
<path d="M439.354 99.5948C418.854 85.0947 398.854 68.0947 333.854 70.0947C268.854 72.0947 238.854 91.0947 228.854 105.595C224.991 111.196 224.082 117.022 224.549 122.095C238.984 108.428 281.054 81.8947 333.854 85.0947C399.854 89.0947 412.809 98.5947 448.581 122.095C449.879 114.33 448.2 105.852 439.354 99.5948Z" fill="#8E6AAF"/>
<path fill-rule="evenodd" clip-rule="evenodd" d="M213.551 126.595C210.719 114.526 215.322 104.137 218.854 99.5948C212.402 74.3949 188.166 51.7614 176.854 43.5947C154.854 28.2614 97.254 -1.90527 42.854 0.0947268C-11.546 2.09473 -2.81262 41.5947 8.35404 61.0947C15.1874 73.0947 43.654 102.995 102.854 126.595C162.054 150.195 201.318 136.428 213.551 126.595ZM49.3545 31.5947C26.9545 35.1947 40.0212 58.7614 49.3545 70.0947C28.8545 55.0947 26.3545 48.0947 25.8545 39.5947C25.3545 31.0947 31.8545 6.59473 98.8545 20.0947C152.454 30.8947 169.854 57.9281 171.854 70.0947C118.389 27.0947 77.3545 27.0947 49.3545 31.5947Z" fill="#B2E1E8"/>
<path d="M49.3545 70.0947C40.0212 58.7614 26.9545 35.1947 49.3545 31.5947C77.3545 27.0947 118.389 27.0947 171.854 70.0947C169.854 57.9281 152.454 30.8947 98.8545 20.0947C31.8545 6.59473 25.3545 31.0947 25.8545 39.5947C26.3545 48.0947 28.8545 55.0947 49.3545 70.0947Z" fill="#C1E6EE"/>
</svg>
