<svg width="126" height="454" viewBox="0 0 126 454" fill="none" xmlns="http://www.w3.org/2000/svg">
<path d="M0 250C2 280 5.1 345.7 1.5 368.5C-1.2574 385.964 0.698056 404.542 2.28879 417C19.5776 448.5 74.5 429.5 85 418.5C93.631 409.458 98.3567 377.355 94.5 355.5C91.5 338.5 92.6667 278 94.5 250H0Z" fill="#A4D7EC"/>
<path d="M126 156C125.852 145.926 122.49 122.945 110.788 103.916H89.2714C94.4736 118.629 98.3719 137.616 97 156H126Z" fill="#4CA5DD"/>
<path d="M106 97C90.4 77 86.8333 54 87 45H67C67.1667 53.6667 69.2 72.6 76 79C79.8354 82.6098 84.9941 91.8185 89.2714 103.916H110.788C109.326 101.538 107.733 99.2217 106 97Z" fill="#4CA5DD"/>
<path d="M39 45C38.6667 55.1667 34.5 79.8 20.5 97C18.681 99.2348 17.0186 101.551 15.5 103.916H89.2714C84.9941 91.8185 79.8354 82.6098 76 79C69.2 72.6 67.1667 53.6667 67 45H39Z" fill="#A4D7EC"/>
<path d="M15.5 103.916C2.40875 124.307 0 148.384 0 156H97C98.3719 137.616 94.4736 118.629 89.2714 103.916H15.5Z" fill="#A4D7EC"/>
<path d="M35 45H39H67H87H90.5C91.5 45 94 44.5 94 41.5C94 39.1 91.6667 38.5 90.5 38.5H86H66.5H40H35.5C34.6667 38.5 33 39.1 33 41.5C33 43.9 34.3333 44.8333 35 45Z" fill="#4CA5DD"/>
<path d="M66.5 34.5V38.5H86V34.5H83H80H75.5H72.5H68.5H66.5Z" fill="#4CA5DD"/>
<path d="M40 34.5V38.5H66.5V34.5H65.5H61.5H58.5H54.5H51H47.5H44H40Z" fill="#A4D7EC"/>
<path d="M94 34.5V3.50001C94 2.33335 93.5 1.29342e-05 91.5 1.29342e-05H90V34.5H94Z" fill="#DD061D"/>
<path d="M83 34.5H86H87V1.29342e-05H83V34.5Z" fill="#DD061D"/>
<path d="M75.5 1.29342e-05V34.5H80V1.29342e-05H75.5Z" fill="#DD061D"/>
<path d="M68.5 1.29342e-05V34.5H72.5V1.29342e-05H68.5Z" fill="#DD061D"/>
<path d="M61.5 1.29342e-05V34.5H65.5V1.29342e-05H61.5Z" fill="#DD061D"/>
<path d="M54.5 1.29342e-05V34.5H58.5V0L54.5 1.29342e-05Z" fill="#DD061D"/>
<path d="M47.5 1.29342e-05V34.5H51V1.29342e-05H47.5Z" fill="#DD061D"/>
<path d="M40 1.29342e-05V34.5H44V1.29342e-05H40Z" fill="#DD061D"/>
<path d="M36 1.29342e-05C35 1.29342e-05 33 0.600013 33 3.00001V34.5H37V1.29342e-05H36Z" fill="#DD061D"/>
<path d="M37 34.5H40V1.29342e-05H37V34.5Z" fill="#A70011"/>
<path d="M44 1.29342e-05V34.5H47.5V1.29342e-05H44Z" fill="#A70011"/>
<path d="M51 1.29342e-05V34.5H54.5V1.29342e-05H51Z" fill="#A70011"/>
<path d="M65.5 34.5H66.5H68.5V1.29342e-05H65.5V34.5Z" fill="#A70011"/>
<path d="M58.5 0V34.5H61.5V1.29342e-05L58.5 0Z" fill="#A70011"/>
<path d="M72.5 1.29342e-05V34.5H75.5V1.29342e-05H72.5Z" fill="#A70011"/>
<path d="M80 1.29342e-05V34.5H83V1.29342e-05H80Z" fill="#A70011"/>
<path d="M87 1.29342e-05V34.5H90V1.29342e-05H87Z" fill="#A70011"/>
<path fill-rule="evenodd" clip-rule="evenodd" d="M0 250V156H97L94.5 250H0Z" fill="#DD061D"/>
<path d="M126 250V156H97L94.5 250H126Z" fill="#9E0C1E"/>
<path d="M3.5 426.5C4.50003 435.5 9.70008 453.5 22.5001 453.5C26.3334 454 35.2 453.3 40 446.5C41.5 445.167 45.3 443.3 48.5 446.5C52.5 450.5 56.5 453.5 60.5 453.5H66C68.1667 453.167 73.6 451.3 78 446.5C79.5 445.167 83.3 443.3 86.5 446.5C90.5 450.5 94 453.5 98.5 453.5H103.5C110.667 454.833 125.2 446.1 126 400.5C123.5 365.167 120 285.6 126 250H94.5C92.6667 278 91.5 338.5 94.5 355.5C98.3567 377.355 93.631 409.458 85 418.5C74.5 429.5 19.5776 448.5 2.28879 417C2.77488 420.807 3.22691 424.042 3.5 426.5Z" fill="#4CA5DD"/>
</svg>
