<svg width="396" height="185" viewBox="0 0 396 185" fill="none" xmlns="http://www.w3.org/2000/svg">
<path d="M390.027 115.599C360.114 98.9468 298.891 65.389 293.308 64.3721C301.602 73.6478 372.943 121.694 380.849 122.136C387.175 122.489 389.603 117.925 390.027 115.599Z" fill="#8ECBFF"/>
<path d="M89.218 168.416L92.9282 165.098C104.923 150.199 124.617 118.4 107.44 110.39C112.272 108.017 120.055 99.1101 115.842 86.1849C115.263 85.1212 114.484 83.8739 113.519 82.5302C111.732 103.58 75.4663 116.242 57.5572 119.942C51.6351 120.786 35.7113 120.452 20.9525 119.628C6.19371 118.803 6.22568 102.836 7.89154 94.0473C3.7507 100.7 1.10285 110.035 4.60172 121.39C10.5699 140.758 63.4993 160.811 89.218 168.416Z" fill="#8ECBFF"/>
<path d="M17.2536 84.2035C14.4798 85.9932 10.8139 89.3521 7.89154 94.0473C6.22568 102.836 6.19371 118.803 20.9525 119.628C35.7113 120.452 51.6351 120.786 57.5572 119.942C75.4663 116.242 111.732 103.58 113.519 82.5302C108.713 75.8375 99.2945 66.7547 87.0033 66.0682C85.8224 68.1333 84.097 70.4675 81.8238 72.8287C80.5794 74.1213 79.1708 75.4221 77.5976 76.6912C75.9453 78.0241 74.1114 79.3221 72.0952 80.5393C70.672 81.3985 69.1579 82.2175 67.5527 82.9801C66.1212 83.6601 64.6172 84.2953 63.0407 84.874C61.3325 85.5012 59.539 86.0621 57.6601 86.5423C55.6762 87.0493 53.5971 87.4663 51.4225 87.776C49.4355 88.059 47.3688 88.2525 45.2222 88.3433C43.2349 88.4273 41.1791 88.4234 39.0547 88.3211C37.0688 88.2255 35.0229 88.0439 32.917 87.7678C30.6667 87.4728 28.3479 87.0699 25.9604 86.5488C25.9521 86.547 25.9438 86.5452 25.9354 86.5433C24.511 86.232 23.062 85.8786 21.5886 85.4809C20.1664 85.097 18.7214 84.6719 17.2536 84.2035Z" fill="#3DA6FF"/>
<path d="M57.9335 2.75783C32.4079 2.21342 13.2235 14.3605 10.3426 18.6058C10.0213 21.1201 11.1189 22.8226 13.1361 23.9218C14.4331 24.6285 16.1102 25.0858 18.0348 25.349C19.6053 25.5638 21.3406 25.6493 23.1686 25.6357C24.596 25.6251 26.0798 25.554 27.5859 25.4368C29.0527 25.3227 30.5406 25.1648 32.0178 24.9764C33.831 24.7451 35.628 24.4678 37.3503 24.1691C38.4381 23.9804 39.496 23.7831 40.5093 23.5835C41.9348 23.3026 43.272 23.0169 44.4799 22.7436C46.3164 22.328 47.8538 21.9411 48.9475 21.6432C50.0149 21.3525 51.4055 20.8166 52.9555 20.1045C54.5278 19.3822 56.264 18.4785 57.9933 17.4652C59.5707 16.5409 61.1424 15.5254 62.5784 14.4733C66.0862 11.9032 68.7848 9.11431 68.7824 6.90101L68.3545 5.51157C67.2921 3.95144 64.1588 2.89061 57.9335 2.75783Z" fill="#8ACCFF"/>
<path d="M81.8238 72.8287C84.097 70.4675 85.8224 68.1333 87.0033 66.0682L68.7824 6.90101C68.7848 9.11431 66.0862 11.9032 62.5784 14.4733L81.8238 72.8287Z" fill="#8ECBFF"/>
<path d="M77.5976 76.6912L57.9933 17.4652C56.264 18.4785 54.5278 19.3822 52.9555 20.1045L72.0952 80.5393C74.1114 79.3221 75.9453 78.0241 77.5976 76.6912Z" fill="#8ECBFF"/>
<path d="M67.5527 82.9801L48.9475 21.6432C47.8538 21.9411 46.3164 22.328 44.4799 22.7436L63.0407 84.874C64.6172 84.2953 66.1212 83.6601 67.5527 82.9801Z" fill="#8ECBFF"/>
<path d="M57.6601 86.5423L40.5093 23.5835C39.496 23.7831 38.4381 23.9804 37.3503 24.1691L51.4225 87.776C53.5971 87.4663 55.6762 87.0493 57.6601 86.5423Z" fill="#8ECBFF"/>
<path d="M45.2222 88.3433L32.0178 24.9764C30.5406 25.1648 29.0527 25.3227 27.5859 25.4368L39.0547 88.3211C41.1791 88.4234 43.2349 88.4273 45.2222 88.3433Z" fill="#8ECBFF"/>
<path d="M32.917 87.7678L23.1686 25.6357C21.3406 25.6493 19.6053 25.5638 18.0348 25.349L25.9354 86.5433C25.9438 86.5452 25.9521 86.547 25.9604 86.5488C28.3479 87.0699 30.6667 87.4728 32.917 87.7678Z" fill="#8ECBFF"/>
<path d="M7.99684 29.0497L17.2536 84.2035C18.7214 84.6719 20.1664 85.097 21.5886 85.4809L13.1361 23.9218C11.1189 22.8226 10.0213 21.1201 10.3426 18.6058C8.03797 22.002 7.81849 26.9835 7.99684 29.0497Z" fill="#8ECBFF"/>
<path d="M81.8238 72.8287L62.5784 14.4733C61.1424 15.5254 59.5707 16.5409 57.9933 17.4652L77.5976 76.6912C79.1708 75.4221 80.5794 74.1213 81.8238 72.8287Z" fill="#BBE8FF"/>
<path d="M52.9555 20.1045C51.4055 20.8166 50.0149 21.3525 48.9475 21.6432L67.5527 82.9801C69.1579 82.2175 70.672 81.3985 72.0952 80.5393L52.9555 20.1045Z" fill="#BBE8FF"/>
<path d="M63.0407 84.874L44.4799 22.7436C43.272 23.0169 41.9348 23.3026 40.5093 23.5835L57.6601 86.5423C59.539 86.0621 61.3325 85.5012 63.0407 84.874Z" fill="#BBE8FF"/>
<path d="M51.4225 87.776L37.3503 24.1691C35.628 24.4678 33.831 24.7451 32.0178 24.9764L45.2222 88.3433C47.3688 88.2525 49.4355 88.059 51.4225 87.776Z" fill="#BBE8FF"/>
<path d="M39.0547 88.3211L27.5859 25.4368C26.0798 25.554 24.596 25.6251 23.1686 25.6357L32.917 87.7678C35.0229 88.0439 37.0688 88.2255 39.0547 88.3211Z" fill="#BBE8FF"/>
<path d="M25.9354 86.5433L18.0348 25.349C16.1102 25.0858 14.4331 24.6285 13.1361 23.9218L21.5886 85.4809C23.062 85.8786 24.511 86.232 25.9354 86.5433Z" fill="#BBE8FF"/>
<path d="M196.502 140.921C212.202 138.566 246.755 134.21 259.366 135.619C259.366 114.198 234.665 86.0533 222.314 74.6585C201.895 77.5628 171.353 83.2731 154.594 86.5868C150.341 86.3493 146.189 86.169 142.262 86.0404C152.816 97.5882 173.924 124.855 173.924 141.54C182.733 140.884 190.553 140.737 196.502 140.921Z" fill="#83C8FF"/>
<path fill-rule="evenodd" clip-rule="evenodd" d="M259.366 135.619C259.366 114.198 234.665 86.0533 222.314 74.6585C230.122 73.5479 236.45 72.8476 239.96 72.8487C252.65 72.8524 269.001 68.302 275.591 66.0263C279.17 65.0513 287.725 63.3553 293.308 64.3721C301.602 73.6478 372.943 121.694 380.849 122.136C361.05 124.261 320.084 127.731 314.618 124.605C307.638 128.622 292.389 134.468 287.238 125.72C283.202 129.607 271.978 137.029 259.366 135.619Z" fill="#BEE6FF"/>
<path d="M107.44 110.39C124.617 118.4 104.923 150.199 92.9282 165.098C113.515 149.804 148.001 143.469 173.924 141.54C173.924 124.855 152.816 97.5882 142.262 86.0404C129.963 85.6377 119.874 85.7422 115.842 86.1849C120.055 99.1101 112.272 108.017 107.44 110.39Z" fill="#BEE6FF"/>
<path d="M217.979 95.1682C213.374 96.2172 204.652 99.3476 206.6 103.476C208.548 107.605 217.026 104.763 221.022 102.826C222.058 102.383 223.851 102.352 222.738 105.767C221.347 110.037 215.632 112.25 212.304 112.523C209.641 112.743 205.237 116.232 203.368 117.95C199.963 120.553 192.434 124.184 189.556 117.88C189.427 117.399 189.27 116.027 189.671 114.386C190.172 112.334 190.066 107.785 186.409 104.065C183.484 101.089 184.086 98.091 184.752 96.9638C186.123 95.1533 190.549 91.8225 197.292 92.9833C199.233 93.2257 204.092 93.2012 207.999 91.1641C212.883 88.6177 218.039 91.0081 218.925 92.0075C219.812 93.0068 220.39 94.5261 217.979 95.1682Z" fill="white"/>
</svg>
