<svg width="278" height="616" viewBox="0 0 278 616" fill="none" xmlns="http://www.w3.org/2000/svg">
<path fill-rule="evenodd" clip-rule="evenodd" d="M27.4625 252.13C31.3943 224.323 49.2111 171.343 96.2313 169.131C115.061 168.245 137.054 168.41 159.469 169.131C170.226 176.027 191.933 202.282 192.703 252.13H27.4625Z" fill="#AFDD9C"/>
<path d="M271.349 252.13C264.804 201.659 238.045 179.906 205.213 171.229C190.354 170.376 174.812 169.624 159.469 169.131C170.226 176.027 191.933 202.282 192.703 252.13H271.349Z" fill="#79BE62"/>
<path d="M217.723 615.644C236.2 614.104 246.272 603.776 248.999 598.804C255.357 580.317 260.541 559.712 264.672 537.697H192.703C194.868 556.451 184.475 597.636 157.338 615.644C179.976 615.74 208.718 616.395 217.723 615.644Z" fill="#7ABD5C"/>
<path d="M50.5215 598.804C56.4878 610.351 85.5657 614.842 99.3589 615.644C115.637 615.973 133.532 615.543 157.338 615.644C184.475 597.636 194.868 556.451 192.703 537.697H31.419C38.5278 567.918 46.7164 591.439 50.5215 598.804Z" fill="#AFDD9C"/>
<path d="M205.213 171.229V98.16H188.613H159.469V169.131C174.812 169.624 190.354 170.376 205.213 171.229Z" fill="#00716B"/>
<path d="M96.2313 98.16V169.131C115.061 168.245 137.054 168.41 159.469 169.131V98.16H151.805H108.982H96.2313Z" fill="#07ACA6"/>
<path d="M188.613 98.16V54.3748H182.84H151.204L151.805 98.16H159.469H188.613Z" fill="#00716B"/>
<path d="M108.982 54.3748V98.16H151.805L151.204 54.3748H143.385H119.567H108.982Z" fill="#07ACA6"/>
<path d="M119.567 36.572V54.3748H143.385V8.63467C133.913 7.33067 121.553 5.34843 104.411 2.40983C57.2577 -5.6736 15.1564 8.50449 0 16.604L9.38256 32.2416C73.2802 18.1918 109.463 29.2744 119.567 36.572Z" fill="#07ACA6"/>
<path d="M182.84 54.3748C178.22 36.8607 184.764 17.5663 188.613 10.1083C172.405 10.9614 166.482 11.8145 143.385 8.63467V54.3748H151.204H182.84Z" fill="#00716B"/>
<path fill-rule="evenodd" clip-rule="evenodd" d="M18.7651 440.503C18.7651 386.614 24.2182 295.354 26.9448 256.461C27.077 255.088 27.2489 253.641 27.4625 252.13H192.703V537.697H31.419C24.5944 508.684 18.7651 473.497 18.7651 440.503Z" fill="#85CDF3"/>
<path d="M264.672 537.697C280.861 451.418 280.862 343.479 271.854 256.461C271.702 254.995 271.534 253.552 271.349 252.13H192.703V537.697H264.672Z" fill="#5EAAD3"/>
<circle cx="135.205" cy="442.187" r="44.7476" fill="#CEECF4"/>
<circle cx="203.289" cy="372.66" r="30.0723" fill="#CEECF4"/>
<circle cx="131.596" cy="330.8" r="22.3738" fill="#CEECF4"/>
</svg>
