<svg width="378" height="501" viewBox="0 0 378 501" fill="none" xmlns="http://www.w3.org/2000/svg">
<path fill-rule="evenodd" clip-rule="evenodd" d="M2.1943 394.271C-8.87061 441.297 24.3241 468.959 47.8371 486.94C49.3623 488.106 51.2193 490.055 53.3688 491.089C68.583 478.923 96.5219 443.509 86.5635 402.569C74.1155 351.394 58.9012 347.245 72.7324 269.79C86.5635 192.336 124.989 185.369 101.778 99.6673C96.2453 76.3651 80.2012 25.8248 60.2843 10.081C52.0634 4.8646 44.4139 1.64827 38.1545 0.0834479C21.5571 -2.12953 24.0719 40.1934 18.7909 65.0895C9.1091 110.732 3.57665 185.421 11.8753 204.784C20.174 224.148 13.2592 347.245 2.1943 394.271ZM51.9856 19.4467C76.8817 24.9791 85.1804 89.9855 86.5635 120.414C87.5294 133.692 71.2907 149.92 63.0506 156.375C49.2194 150.381 23.7701 130.649 32.622 99.6673C41.474 68.6855 42.7649 36.044 42.3038 23.596C41.8428 18.5246 43.1337 10.5947 51.9856 19.4467Z" fill="#CCCCCC"/>
<path fill-rule="evenodd" clip-rule="evenodd" d="M327.226 26.3624C276.051 24.9795 216.116 89.063 193.064 121.797C177.99 124.468 143.927 128.594 128.268 123.729C130.962 137.39 132.814 152.388 133.589 168.823C157.563 171.128 211.32 171.036 234.557 152.226C257.793 133.415 306.018 60.4791 327.226 26.3624ZM302.329 56.7907C296.566 59.0037 264.889 101.05 249.771 121.797C240.089 119.492 225.981 108.519 247.005 83.0699C268.028 57.6206 292.647 54.9466 302.329 56.7907Z" fill="#B4B4B4"/>
<path d="M51.9856 89.9855C58.6246 67.8557 53.3688 33.2778 51.9856 19.4467C43.1337 10.5947 41.8428 18.5246 42.3038 23.596C42.7649 36.044 41.474 68.6855 32.622 99.6673C23.7701 130.649 49.2194 150.381 63.0506 156.375C71.2907 149.92 87.5294 133.692 86.5635 120.414C72.2713 119.492 45.3467 112.115 51.9856 89.9855Z" fill="#B4B4B4"/>
<path d="M345.207 40.1927C354.059 29.1278 336.924 26.6244 327.226 26.3624C306.018 60.4791 257.793 133.415 234.557 152.226C211.32 171.036 157.563 171.128 133.589 168.823C132.814 152.388 130.962 137.39 128.268 123.729C115.815 60.5837 85.386 26.0088 60.2843 10.081C80.2012 25.8248 96.2453 76.3651 101.778 99.6673C124.989 185.369 86.5635 192.336 72.7324 269.79C58.9012 347.245 74.1155 351.394 86.5635 402.569C96.5219 443.509 68.583 478.923 53.3688 491.089C84.3551 505.992 176.123 505.802 211.045 478.641C240.92 455.405 324.921 439.453 363.187 434.381C377.479 427.005 393.339 397.59 342.44 338.946C291.542 280.302 286.194 182.654 289.882 141.16C304.635 112.115 336.355 51.2576 345.207 40.1927Z" fill="#F3F2F2"/>
</svg>
