<svg width="347" height="349" viewBox="0 0 347 349" fill="none" xmlns="http://www.w3.org/2000/svg">
<path d="M323.628 87.8227C323.641 86.7888 322.833 85.9462 321.802 85.8632C249.033 79.9998 176.438 27.7652 147.804 1.11114C147.099 0.455023 146.085 0.388117 145.308 0.955898C88.3029 42.5703 -18.0201 133.188 2.62038 170.5C22.2677 206.016 96.1032 293.698 136.393 339.829C124.732 318.583 160.695 291.852 182.62 280C258.642 226.306 296.186 171.995 312.625 132.5C320.454 113.691 323.496 98.2431 323.628 87.8227Z" fill="#D9D9D9"/>
<path d="M143.12 347.5C149.62 350 165.92 348.2 179.12 321C192.242 293.962 294.722 206.056 345.218 164.738C345.788 164.271 346.039 163.554 345.861 162.838C343.646 153.943 334.437 137.091 312.625 132.5C296.186 171.995 258.642 226.306 182.62 280C160.695 291.852 124.732 318.583 136.393 339.829C138.757 342.535 141.005 345.099 143.12 347.5Z" fill="#727272"/>
<rect x="119.676" y="32" width="204" height="26.2129" transform="rotate(39.1679 119.676 32)" fill="#F4F4F4"/>
<rect x="29.2217" y="121.731" width="190.243" height="26.2129" transform="rotate(45.4214 29.2217 121.731)" fill="#F4F4F4"/>
<rect x="90.5244" y="64.3213" width="75.1963" height="68.1785" transform="rotate(45.4214 90.5244 64.3213)" fill="#F4F4F4"/>
<rect x="162.798" y="124.09" width="104.634" height="26.2129" transform="rotate(39.1679 162.798 124.09)" fill="#F4F4F4"/>
<rect x="119.676" y="161" width="104.634" height="26.2129" transform="rotate(39.1679 119.676 161)" fill="#F4F4F4"/>
</svg>
