<svg width="401" height="269" viewBox="0 0 401 269" fill="none" xmlns="http://www.w3.org/2000/svg">
<path d="M252.446 20.1515C247.946 31.3379 249.346 51.0106 290.946 40.2104C293.28 40.2104 295.646 41.5104 286.446 46.7104C277.246 51.9104 294.613 53.5438 304.446 53.7104C307.28 53.8771 311.046 55.4104 303.446 60.2104C297.446 59.5438 284.946 60.2104 282.946 68.2104C280.446 78.2104 283.946 89.2104 290.946 92.2104C297.946 95.2104 291.446 100.21 286.446 100.71C281.446 101.21 272.446 111.71 282.946 109.71C291.346 108.11 329.446 85.2104 330.946 68.2104C329.446 63.7104 324.246 56.3104 329.446 54.7104C334.646 53.1105 337.946 57.0438 338.946 59.2104C344.78 55.0438 355.346 44.9104 350.946 37.7104C337.235 30.5308 308.284 16.3628 298.822 15.3086C298.53 15.2872 298.238 15.2669 297.946 15.2478C281.845 14.194 265.622 16.7014 252.446 20.1515Z" fill="#BE6928"/>
<path d="M128.946 71.2104C132.146 66.0105 119.28 64.9837 112.446 65.1204C84.7991 76.2441 64.5324 93.8593 50.5354 111.21C50.5215 111.228 50.5076 111.245 50.4936 111.262C47.9642 114.476 39.9574 138.277 41.9463 150.21C43.5463 159.81 68.613 164.21 80.9463 165.21C94.113 166.71 120.246 166.11 119.446 151.71C118.646 137.31 92.4463 149.71 79.4463 157.71C65.4463 157.71 89.9463 140.377 103.946 131.71C109.28 127.877 117.146 119.91 105.946 118.71C94.7463 117.51 76.613 141.21 68.9463 153.21C63.3463 144.81 81.613 121.71 91.4463 111.21C94.113 110.377 98.7463 107.61 95.9463 103.21C92.4463 97.7104 124.946 77.7104 128.946 71.2104Z" fill="#BE6928"/>
<path fill-rule="evenodd" clip-rule="evenodd" d="M10.9463 186.71C65.0854 197.862 161.261 200.553 250.446 163.855C285.393 149.475 319.266 129.047 349.117 100.71C349.307 100.53 349.497 100.349 349.687 100.168C368.667 82.0552 386.008 60.7296 400.946 35.7102C396.28 13.3769 341.106 -27.1114 168.446 26.7102C-17.7733 84.7589 -7.74575 167.823 7.44629 184.168C8.6113 185.422 9.80668 186.283 10.9463 186.71ZM124.946 60.7103C186.546 41.9103 222.613 30.2102 232.946 26.7102C237.949 24.5547 244.666 22.1887 252.446 20.1515C265.622 16.7014 281.845 14.194 297.946 15.2478C298.216 15.2531 298.509 15.2737 298.822 15.3086C311.879 16.2689 324.817 19.6036 335.946 26.7102C348.113 22.7102 372.246 18.9102 371.446 35.7102C370.646 52.5102 315.113 101.71 287.446 124.21C258.613 141.044 187.346 174.01 132.946 171.21C64.9462 167.71 48.9463 182.21 26.9463 153.21C30.0638 142.967 37.6244 127.229 50.4936 111.262L50.5354 111.21C64.5324 93.8593 84.7991 76.2441 112.446 65.1204C116.457 63.5069 120.622 62.03 124.946 60.7103Z" fill="#FEB767"/>
<path d="M232.946 26.7102C222.613 30.2102 186.546 41.9103 124.946 60.7103C120.622 62.03 116.457 63.5069 112.446 65.1204C119.28 64.9837 132.146 66.0105 128.946 71.2104C124.946 77.7104 92.4463 97.7104 95.9463 103.21C98.7463 107.61 94.113 110.377 91.4463 111.21C81.613 121.71 63.3463 144.81 68.9463 153.21C76.613 141.21 94.7463 117.51 105.946 118.71C117.146 119.91 109.28 127.877 103.946 131.71C89.9463 140.377 65.4463 157.71 79.4463 157.71C92.4463 149.71 118.646 137.31 119.446 151.71C120.246 166.11 94.113 166.71 80.9463 165.21C68.613 164.21 43.5463 159.81 41.9463 150.21C39.9574 138.277 47.9642 114.476 50.4936 111.262C37.6244 127.229 30.0638 142.967 26.9463 153.21C48.9463 182.21 64.9462 167.71 132.946 171.21C187.346 174.01 258.613 141.044 287.446 124.21C315.113 101.71 370.646 52.5102 371.446 35.7102C372.246 18.9102 348.113 22.7102 335.946 26.7102C324.817 19.6036 311.879 16.2689 298.822 15.3086C308.284 16.3628 337.235 30.5308 350.946 37.7104C355.346 44.9104 344.78 55.0438 338.946 59.2104C337.946 57.0438 334.646 53.1105 329.446 54.7104C324.246 56.3104 329.446 63.7104 330.946 68.2104C329.446 85.2104 291.346 108.11 282.946 109.71C272.446 111.71 281.446 101.21 286.446 100.71C291.446 100.21 297.946 95.2104 290.946 92.2104C283.946 89.2104 280.446 78.2104 282.946 68.2104C284.946 60.2104 297.446 59.5438 303.446 60.2104C311.046 55.4104 307.28 53.8771 304.446 53.7104C294.613 53.5438 277.246 51.9104 286.446 46.7104C295.646 41.5104 293.28 40.2104 290.946 40.2104C249.346 51.0106 247.946 31.3379 252.446 20.1515C244.666 22.1887 237.949 24.5547 232.946 26.7102Z" fill="#96381E"/>
<path d="M10.9463 186.71C9.80668 186.283 8.6113 185.422 7.44629 184.168C13.2796 201.516 35.7463 239.01 78.9463 250.21C84.613 250.21 98.9463 251.91 110.946 258.71C120.474 264.11 149.167 269.307 173.446 268.921L96.9463 242.21C94.2796 240.377 88.3463 236.81 85.9463 237.21C82.9463 237.71 64.9463 227.21 63.9463 221.21C63.1463 216.41 59.613 212.544 57.9463 211.21C55.476 209.544 51.0176 205.41 52.9463 202.21C55.3571 198.21 105.946 195.71 150.446 195.21C186.046 194.81 231.946 174.14 250.446 163.855C161.261 200.553 65.0854 197.862 10.9463 186.71Z" fill="#D25E2B"/>
<path d="M354.446 171.21C353.946 166.877 355.646 156.51 366.446 149.71C379.946 141.21 400.946 88.21 400.946 35.7102C386.008 60.7296 368.667 82.0552 349.687 100.168C357.665 92.6718 373.323 81.9347 376.446 95.2104C378.113 102.544 378.746 120.31 367.946 132.71C354.446 148.21 345.946 156.211 345.946 163.71C345.946 171.21 338.446 198.09 326.946 208.15C340.639 196.649 351.522 183.88 354.446 171.21Z" fill="#D25E2B"/>
<path d="M367.946 132.71C378.746 120.31 378.113 102.544 376.446 95.2104C373.323 81.9347 357.665 92.6718 349.687 100.168C349.497 100.349 349.307 100.53 349.117 100.71C319.266 129.047 285.393 149.475 250.446 163.855C231.946 174.14 186.046 194.81 150.446 195.21C105.946 195.71 55.3571 198.21 52.9463 202.21C51.0176 205.41 55.476 209.544 57.9463 211.21C59.613 212.544 63.1463 216.41 63.9463 221.21C64.9463 227.21 82.9463 237.71 85.9463 237.21C88.3463 236.81 94.2796 240.377 96.9463 242.21L173.446 268.921C187.391 268.699 199.88 266.635 206.446 261.71C207.866 260.646 209.443 259.647 211.145 258.71C175.079 258.044 99.5463 247.91 85.9463 212.71C81.9463 208.21 84.3463 200.11 125.946 203.71C167.546 207.31 214.28 188.544 232.446 178.71C246.113 172.21 276.046 158.71 286.446 156.71C296.846 154.71 322.113 134.21 333.446 124.21C341.946 115.777 359.246 102.97 360.446 119.21C361.646 135.451 344.946 147.977 336.446 152.21C336.113 160.044 331.946 178.81 317.946 191.21C303.946 203.61 286.78 228.163 279.946 238.89C294.665 231.168 312.393 220.375 326.946 208.15C338.446 198.09 345.946 171.21 345.946 163.71C345.946 156.211 354.446 148.21 367.946 132.71Z" fill="#ED9043"/>
<path d="M286.446 156.71C276.046 158.71 246.113 172.21 232.446 178.71C214.28 188.544 167.546 207.31 125.946 203.71C84.3463 200.11 81.9463 208.21 85.9463 212.71C99.5463 247.91 175.079 258.044 211.145 258.71C226.713 250.148 252.777 246.811 264.946 246.21C269.302 244.263 274.411 241.793 279.946 238.89C286.78 228.163 303.946 203.61 317.946 191.21C331.946 178.81 336.113 160.044 336.446 152.21C344.946 147.977 361.646 135.451 360.446 119.21C359.246 102.97 341.946 115.777 333.446 124.21C322.113 134.21 296.846 154.71 286.446 156.71Z" fill="#F3AD67"/>
</svg>
