<svg width="511" height="337" viewBox="0 0 511 337" fill="none" xmlns="http://www.w3.org/2000/svg">
<path d="M3.75583 290.519C26.2845 348.354 123.545 339.275 169.359 327.507C219.46 320.591 386.94 250.65 464.417 216.544L455.17 194.688C455.343 191.749 454.378 187.387 451.192 182.919C448.474 179.108 444.14 175.219 437.517 172.071C433.032 169.939 427.497 168.146 420.705 166.948C392.123 161.904 405.714 132.622 416.081 118.612C409.692 118.612 405.293 109.365 403.892 104.741C408.011 98.5263 412.769 88.1008 412.971 77.8415C413.081 72.229 411.827 66.6662 408.358 61.8697C406.304 59.0296 403.473 56.4581 399.689 54.3041C372.369 38.7526 389.181 32.448 390.442 11.0121C390.559 9.02411 390.38 7.35583 389.954 5.96836C386.712 -4.61271 369.173 1.13774 359.759 5.96836C356.818 7.08783 353.577 8.31037 350.092 9.61303C318.849 23.9496 257.119 84.4825 260.146 211.921C232.966 190.05 188.188 127.064 226.521 50.0797C224.857 50.4257 223.311 50.7148 221.897 50.9417C194.661 55.3129 175.523 74.6192 169.359 83.726L156.749 91.2016C146.662 115.89 126.907 178.212 128.588 229.994C114.578 217.773 86.8933 181.95 88.2383 136.427C42.7565 175.439 -15.4109 241.315 3.75583 290.519Z" fill="#E99233"/>
<path d="M260.146 211.921C257.119 84.4825 318.849 23.9496 350.092 9.61303C314.71 22.8396 254.19 44.3273 226.521 50.0797C188.188 127.064 232.966 190.05 260.146 211.921Z" fill="#E8D2BA"/>
<path d="M156.749 91.2016L110.515 118.612C103.804 123.567 96.2161 129.584 88.2383 136.427C86.8933 181.95 114.578 217.773 128.588 229.994C126.907 178.212 146.662 115.89 156.749 91.2016Z" fill="#E8D2BA"/>
<path d="M416.081 118.612C405.714 132.622 392.123 161.904 420.705 166.948C427.497 168.146 433.032 169.939 437.517 172.071C445.099 157.193 466.942 126.345 493.654 121.974C484.078 113.985 473.545 100.104 472.823 80.3634C449.622 81.3722 425.328 106.283 416.081 118.612Z" fill="#E8D2BA"/>
<path d="M455.17 194.688L464.417 216.544C482.911 211.501 517.881 193.595 509.811 162.324C503.837 139.178 502.715 130.877 503.104 128.864C479.891 133.852 458.872 166.857 451.192 182.919C454.378 187.387 455.343 191.749 455.17 194.688Z" fill="#E8D2BA"/>
<path d="M412.971 77.8415C412.769 88.1008 408.011 98.5263 403.892 104.741C412.521 95.2144 435.805 75.1516 459.917 71.1166C452.414 64.3221 445.052 54.7465 443.321 43.376C429.134 44.721 417.176 66.9135 412.971 77.8415Z" fill="#E8D2BA"/>
<path d="M390.442 11.0121C389.181 32.448 372.369 38.7526 399.689 54.3041C403.473 56.4581 406.304 59.0296 408.358 61.8697C411.493 50.6614 423.479 28.1694 441.3 26.8244C439.245 18.2951 435.976 16.7095 434.155 17.3167C421.22 13.5339 394.272 5.96836 389.954 5.96836C390.38 7.35583 390.559 9.02411 390.442 11.0121Z" fill="#E8D2BA"/>
<path d="M442.981 40.0135C442.701 34.4104 442.09 30.104 441.3 26.8244C423.479 28.1694 411.493 50.6614 408.358 61.8697C411.827 66.6662 413.081 72.229 412.971 77.8415C417.176 66.9135 429.134 44.721 443.321 43.376C443.153 42.2718 443.038 41.1507 442.981 40.0135Z" fill="#964F01"/>
<path d="M403.892 104.741C405.293 109.365 409.692 118.612 416.081 118.612C425.328 106.283 449.622 81.3722 472.823 80.3634C469.363 78.5314 464.612 75.3686 459.917 71.1166C435.805 75.1516 412.521 95.2144 403.892 104.741Z" fill="#964F01"/>
<path d="M503.3 128.399C500.572 127.056 497.177 124.914 493.654 121.974C466.942 126.345 445.099 157.193 437.517 172.071C444.14 175.219 448.474 179.108 451.192 182.919C458.872 166.857 479.891 133.852 503.104 128.864C503.15 128.626 503.217 128.475 503.3 128.399Z" fill="#964F01"/>
</svg>
