<svg width="240" height="326" viewBox="0 0 240 326" fill="none" xmlns="http://www.w3.org/2000/svg">
<g clip-path="url(#clip0_67_20)">
<path d="M118.338 325.891C93.7147 325.35 70.2003 320.619 49.0347 307.293C37.0586 299.935 27.2935 289.484 20.7699 277.043C20.0493 275.646 19.4702 274.18 19.0413 272.667C18.5003 270.756 19.2128 269.715 21.1922 269.465C23.8313 269.135 26.5759 269.188 29.2018 268.687C38.0296 267 44.7065 261.859 50.3146 255.085C58.1396 245.568 62.6657 234.47 65.6083 222.66C68.8195 209.741 69.9025 196.385 68.8148 183.118C67.6633 166.661 60.6403 151.162 49.0215 139.438C38.7791 128.631 25.8037 120.789 11.467 116.741C9.02252 116.101 6.52092 115.704 3.99841 115.554C0.593971 115.304 -0.567248 114.236 0.396024 110.783C1.55599 106.147 3.0872 101.611 4.97487 97.2201C10.8073 84.5404 20.4004 75.2348 32.4215 68.3941C46.6672 60.1377 63.1017 56.435 79.5163 57.7837C87.1697 58.39 94.7703 59.7344 102.397 60.6702C106.277 61.1447 110.156 61.4347 114.049 61.8038C114.445 61.8038 114.697 61.8038 115.343 61.8038C114.657 57.8496 114.26 54.1854 113.495 50.4948C112.007 42.3486 109.066 34.5357 104.812 27.4287C101.942 22.9314 98.2222 19.0364 93.8598 15.9615C92.0789 14.6505 90.3863 13.2239 88.7928 11.691C86.9718 9.96434 85.4939 7.89499 86.444 5.25887C86.9399 3.94056 87.7738 2.7755 88.8623 1.88031C89.9507 0.98511 91.2554 0.391163 92.6459 0.157952C93.8665 -0.0803848 95.1231 -0.065291 96.3376 0.202279C97.5521 0.469849 98.6985 0.984181 99.7055 1.71328C103.402 4.27347 106.507 7.59479 108.81 11.4538C115.738 21.9983 120.224 33.5972 123.616 45.6443C125.054 50.7452 125.858 55.8231 127.164 61.2535C130.49 60.7263 134.238 60.3671 137.695 59.7344C147.645 57.9287 157.489 55.7802 167.728 55.6484C183.893 55.3321 199.292 58.2845 213.358 66.6411C225.855 74.009 234.735 84.4349 239.248 98.2746C239.733 99.9341 240.008 101.648 240.066 103.375C240.107 103.695 240.077 104.02 239.979 104.328C239.881 104.635 239.717 104.917 239.498 105.154C239.279 105.391 239.011 105.578 238.713 105.701C238.414 105.824 238.093 105.881 237.77 105.867C236.354 105.939 234.934 105.913 233.521 105.788C230.737 105.441 227.911 105.698 225.234 106.539C223.592 107.061 222.082 107.928 220.805 109.083C219.528 110.239 218.514 111.654 217.832 113.235C217.376 114.445 216.605 115.512 215.598 116.326C214.591 117.139 213.385 117.669 212.105 117.861C198.672 121.051 188.142 128.709 180.066 139.767C172.334 150.312 168.349 162.398 166.659 175.276C165.677 182.703 165.447 190.21 165.973 197.683C165.997 198.503 165.948 199.323 165.828 200.134C165.741 200.64 165.741 201.157 165.828 201.663C165.917 202.164 165.966 202.671 165.973 203.179C166.33 205.183 166.171 204.286 166.554 206.843C166.857 207.178 167.039 207.605 167.069 208.056C168.693 219.261 173.108 229.88 179.908 238.938C189.747 252.174 203.641 261.841 219.481 266.473C220.233 266.683 221.025 266.802 221.79 267C225.142 267.843 226 269.32 224.429 272.364C222.746 275.641 220.883 278.823 218.848 281.894C208.75 297.612 194.054 309.844 176.754 316.928C168.238 320.454 159.271 322.779 150.112 323.835C141.324 324.81 132.47 325.285 123.655 325.996M71.5198 283.818C71.8629 283.7 72.1928 283.515 72.5359 283.37L71.5198 283.818ZM74.2513 283.897C74.4264 283.872 74.6041 283.872 74.7791 283.897C75.1618 284.069 75.5313 284.28 75.9007 284.464C81.4888 287.398 87.8142 288.635 94.0974 288.023C102.315 287.118 110.154 284.093 116.846 279.245C118.681 277.927 119.235 278.019 121.069 279.245C124.746 281.879 128.931 283.72 133.358 284.653C137.785 285.585 142.358 285.588 146.787 284.662C152.444 283.356 157.557 280.33 161.421 276.002C162.74 274.684 163.928 274.447 165.155 275.633C169.932 280.259 175.844 281.538 182.177 281.446C190.209 281.172 198.115 279.383 205.481 276.173C208.371 274.987 211.155 273.537 214.308 272.088C213.688 271.824 213.517 271.732 213.332 271.666C199.482 266.663 187.157 258.179 177.546 247.031C169.154 237.371 163.457 225.674 161.025 213.117C158.925 202.266 158.347 191.176 159.31 180.166C160.444 165.575 164.192 151.762 172.175 139.306C179.008 128.306 189.039 119.652 200.928 114.5C203.026 113.59 205.204 112.839 207.526 111.943C201.214 107.49 193.456 105.571 185.793 106.565C176.556 107.778 168.995 112.391 162.912 119.429C161.17 121.446 160.273 121.354 158.135 119.851C155.164 117.607 151.987 115.648 148.648 113.999C141.211 110.761 133.041 109.573 124.988 110.559C115.286 111.299 106.098 115.214 98.8477 121.697C96.7892 123.568 95.9711 123.542 93.8994 121.697C88.2596 116.206 80.9539 112.743 73.1297 111.851C64.104 110.941 56.6353 114.289 50.3146 120.563C48.4937 122.369 47.2797 122.224 45.6039 120.273C44.1668 118.458 42.5679 116.778 40.8271 115.251C33.4244 109.28 24.8209 109.755 16.1251 110.902C16.307 111.088 16.5343 111.225 16.7849 111.297C31.1402 116.131 44.0739 124.441 54.4317 135.483C64.7228 146.113 71.6132 159.561 74.2249 174.116C77.0752 190.262 76.0327 206.329 72.4567 222.252C69.6329 234.852 64.9617 246.688 57.1763 257.128C51.5814 264.614 44.7329 270.545 35.7996 273.801C34.6911 274.21 33.5432 274.552 31.9861 275.119C34.7439 276.042 37.0531 276.925 39.4283 277.584C47.7415 279.877 56.0547 281.05 64.3547 277.439C64.7209 277.33 65.1065 277.302 65.4847 277.357C65.8629 277.411 66.2247 277.547 66.5451 277.755C68.155 278.928 69.6065 280.312 71.0184 281.525M64.8429 72.9018C60.1539 72.8444 55.5153 73.873 51.2911 75.907C47.9441 77.2487 45.0634 79.5397 43.0043 82.4974C41.025 85.6475 41.6848 88.7054 44.8781 90.6034C46.0979 91.3462 47.4372 91.8724 48.8367 92.1588C56.9256 93.78 64.3283 91.7501 71.1371 87.4401C72.8751 86.2531 74.3745 84.7509 75.5576 83.0114C77.8669 79.7953 76.8772 76.4211 73.354 74.5758C70.7373 73.2344 67.8034 72.6328 64.8693 72.836L64.8429 72.9018Z" fill="#A03433"/>
<path d="M114.564 194.586L114.049 194.52C114.148 193.314 114.148 192.102 114.049 190.895C113.69 187.887 113.072 184.914 112.202 182.012C111.742 180.616 110.836 179.41 109.622 178.581C108.407 177.752 106.954 177.346 105.485 177.425C104.227 177.42 102.984 177.697 101.848 178.236C100.712 178.775 99.7109 179.561 98.9195 180.538C98.128 181.514 97.566 182.656 97.275 183.878C96.9839 185.1 96.9712 186.372 97.2378 187.6C98.5574 195.746 103.189 201.941 109.457 207.055C109.632 207.239 109.849 207.378 110.091 207.458C110.332 207.539 110.59 207.558 110.84 207.515C111.091 207.472 111.327 207.368 111.528 207.212C111.729 207.055 111.887 206.852 111.99 206.62C112.425 206.029 112.735 205.357 112.901 204.643C113.482 201.255 113.996 197.934 114.564 194.586ZM124.46 200.636H124.553C124.553 202.797 124.473 204.959 124.553 207.108C124.611 209 124.81 210.886 125.146 212.749C125.555 214.752 126.888 215.293 128.683 214.278C129.633 213.722 130.492 213.024 131.229 212.208C133.956 209.126 136.118 205.588 137.616 201.756C138.993 198.789 139.722 195.563 139.754 192.293C139.661 187.864 136.745 184.49 132.721 184.134C128.432 183.751 125.067 186.361 124.5 191.04C124.306 194.236 124.297 197.439 124.473 200.636H124.46Z" fill="#E0CFA7"/>
<path d="M64.8693 72.8362C67.801 72.6249 70.7348 73.2174 73.354 74.5497C76.8641 76.395 77.8669 79.822 75.5577 82.9853C74.3746 84.7248 72.8751 86.2271 71.1372 87.414C64.3283 91.7241 56.9256 93.7539 48.8368 92.1327C47.4372 91.8463 46.0979 91.3201 44.8781 90.5774C41.6716 88.6793 41.025 85.6214 43.0044 82.4713C45.0634 79.5136 47.9441 77.2227 51.2911 75.881C55.52 73.8293 60.1682 72.787 64.8693 72.8362Z" fill="#E0CFA7"/>
<path d="M114.142 194.415C113.574 197.762 113.482 201.295 112.861 204.643C112.696 205.357 112.386 206.029 111.951 206.62C111.848 206.852 111.689 207.055 111.488 207.212C111.288 207.368 111.051 207.472 110.801 207.515C110.55 207.558 110.293 207.539 110.051 207.458C109.81 207.378 109.592 207.239 109.417 207.055C103.149 201.941 98.5706 195.746 97.1983 187.6C96.9317 186.372 96.9444 185.1 97.2354 183.878C97.5265 182.656 98.0885 181.514 98.8799 180.538C99.6714 179.561 100.672 178.775 101.808 178.236C102.945 177.697 104.188 177.42 105.445 177.425C106.914 177.346 108.368 177.752 109.582 178.581C110.796 179.41 111.703 180.616 112.162 182.012C113.033 184.914 113.651 187.887 114.009 190.895C114.108 192.102 114.241 193.208 114.142 194.415Z" fill="black"/>
<path d="M124.473 200.636C124.31 197.439 124.332 194.235 124.539 191.04C125.107 186.361 128.498 183.751 132.76 184.134C136.785 184.489 139.701 187.864 139.793 192.292C139.762 195.563 139.033 198.789 137.656 201.756C136.158 205.588 133.996 209.126 131.269 212.208C130.531 213.024 129.672 213.722 128.722 214.278C126.928 215.293 125.595 214.752 125.186 212.749C124.849 210.885 124.651 209 124.592 207.107C124.487 204.959 124.473 202.797 124.473 200.636Z" fill="black"/>
</g>
<defs>
<clipPath id="clip0_67_20">
<rect width="240" height="325.97" fill="white"/>
</clipPath>
</defs>
</svg>
