<svg width="369" height="345" viewBox="0 0 369 345" fill="none" xmlns="http://www.w3.org/2000/svg">
<path d="M202.525 85.7609L166.47 152.833L153.104 177.699C157.323 178.135 166.102 178.746 167.458 177.699L202.525 85.7609Z" fill="#D2BB89"/>
<path d="M136.761 235.282L139.379 251.314L167.458 177.699C166.102 178.746 157.323 178.135 153.104 177.699L126.292 227.577L136.761 235.282Z" fill="#AB8547"/>
<path d="M139.379 251.314L136.761 235.282L126.292 242.508L139.379 251.314Z" fill="#B8986F"/>
<path d="M126.292 242.508L136.761 235.282L126.292 227.577L113.532 251.314L126.292 242.508Z" fill="#F0DBAC"/>
<path fill-rule="evenodd" clip-rule="evenodd" d="M295.249 262.855C295.243 262.855 295.237 262.856 295.231 262.856C295.22 262.857 295.21 262.857 295.2 262.858C295.112 262.864 295.024 262.871 294.937 262.877C294.919 262.878 294.902 262.879 294.884 262.88C291.312 263.124 287.901 263.202 284.647 263.128L276.467 267.673L269.597 289.594L290.863 329.183L314.42 336.708L353.682 315.441L360.88 292.212L339.94 252.623L316.383 245.752L290.536 259.666C290.581 259.664 290.626 259.663 290.67 259.661C292.108 259.599 293.485 259.497 294.789 259.361C295.662 257.987 298.061 254.913 301.333 257.531C303.067 258.917 304.081 263.027 299.37 264.074C298.498 264.316 296.296 264.192 295.249 262.855ZM314.747 275.198C312.654 273.628 310.167 270.182 309.185 268.655C308.531 270.945 309.84 275.853 314.747 278.797C318.674 281.153 319.437 284.577 319.328 285.995C320.964 281.088 317.365 277.161 314.747 275.198ZM305.586 274.217C302.707 272.646 300.897 269.2 300.352 267.673C299.37 270.618 301.006 276.18 305.259 278.47C308.662 280.302 311.039 284.905 311.803 286.977C312.457 282.069 309.185 276.18 305.586 274.217ZM301.333 281.088C298.716 280.041 297.407 276.943 297.08 275.525C296.425 280.106 298.388 282.723 301.66 285.014C304.278 286.846 306.023 290.576 306.568 292.212C306.895 287.304 304.605 282.396 301.333 281.088ZM316.383 289.267C301.464 295.287 297.08 303.663 297.734 307.589C307.877 327.22 324.236 325.584 330.779 321.985C336.014 319.106 339.286 310.97 340.268 307.262C343.539 304.317 349.494 296.792 347.138 290.249C344.783 283.705 339.395 286.65 336.996 288.94L336.014 286.977C335.687 285.232 331.303 283.247 316.383 289.267Z" fill="#BEED00"/>
<path fill-rule="evenodd" clip-rule="evenodd" d="M297.734 307.589C297.08 303.663 301.464 295.287 316.383 289.267C331.303 283.247 335.687 285.232 336.014 286.977L336.996 288.94C339.395 286.65 344.783 283.705 347.138 290.249C349.494 296.792 343.539 304.317 340.268 307.262C339.286 310.97 336.014 319.106 330.779 321.985C324.236 325.584 307.877 327.22 297.734 307.589ZM330.779 287.958C315.598 290.314 305.259 299.41 301.987 303.663C298.716 308.571 306.241 308.113 309.84 306.608C315.838 304.099 328.751 297.905 332.415 293.193C336.08 288.482 332.851 287.74 330.779 287.958ZM344.521 290.903C345.83 294.306 342.449 300.173 340.595 302.681C340.857 299.017 339.395 293.957 338.632 291.884C340.049 290.14 343.212 287.5 344.521 290.903Z" fill="white"/>
<path d="M300.352 267.673C300.897 269.2 302.707 272.646 305.586 274.217C309.185 276.18 312.457 282.069 311.803 286.977C311.039 284.905 308.662 280.302 305.259 278.47C301.006 276.18 299.37 270.618 300.352 267.673Z" fill="white"/>
<path d="M309.185 268.655C310.167 270.182 312.654 273.628 314.747 275.198C317.365 277.161 320.964 281.088 319.328 285.995C319.437 284.577 318.674 281.153 314.747 278.797C309.84 275.853 308.531 270.945 309.185 268.655Z" fill="white"/>
<path d="M297.08 275.525C297.407 276.943 298.716 280.041 301.333 281.088C304.605 282.396 306.895 287.304 306.568 292.212C306.023 290.576 304.278 286.846 301.66 285.014C298.388 282.723 296.425 280.106 297.08 275.525Z" fill="white"/>
<path d="M316.383 237.9L276.467 258.917C281.453 259.65 286.257 259.84 290.536 259.666L316.383 245.752L339.94 252.623L360.88 292.212L353.682 315.441L314.42 336.708L290.863 329.183L269.597 289.594L276.467 267.673L284.647 263.128C279.587 263.012 274.904 262.526 270.578 261.716L261.744 289.594L286.283 336.708L314.42 344.561L359.898 320.349L368.078 292.539L343.867 246.734L316.383 237.9Z" fill="#69C000"/>
<path d="M301.987 303.663C305.259 299.41 315.598 290.314 330.779 287.958C332.851 287.74 336.08 288.482 332.415 293.193C328.751 297.905 315.838 304.099 309.84 306.608C306.241 308.113 298.716 308.571 301.987 303.663Z" fill="#BEED00"/>
<path d="M340.595 302.681C342.449 300.173 345.83 294.306 344.521 290.903C343.212 287.5 340.049 290.14 338.632 291.884C339.395 293.957 340.857 299.017 340.595 302.681Z" fill="#BEED00"/>
<path fill-rule="evenodd" clip-rule="evenodd" d="M295.249 262.855L295.231 262.856L295.2 262.858C295.112 262.864 295.024 262.871 294.937 262.877C295.035 262.87 295.133 262.863 295.231 262.856C295.237 262.856 295.243 262.855 295.249 262.855Z" fill="#D2BB89"/>
<path d="M162.626 31.1218C181.815 12.1453 230.073 -14.4217 269.597 31.1218C309.12 76.6653 261.674 136.452 237.533 164.939C221.174 184.242 213.073 250.947 270.578 261.716C274.904 262.526 279.587 263.012 284.647 263.128C287.901 263.202 291.312 263.124 294.884 262.88L294.937 262.877C295.024 262.871 295.112 262.864 295.2 262.858L295.231 262.856L295.249 262.855C295.639 262.827 296.031 262.797 296.425 262.765V259.166C295.894 259.237 295.349 259.302 294.789 259.361C293.485 259.497 292.108 259.599 290.67 259.661L290.536 259.666C286.257 259.84 281.453 259.65 276.467 258.917C256.121 255.928 232.747 243.904 229.681 210.744C228.263 200.056 234.405 174.937 254.219 155.123C281.048 128.294 292.172 87.724 291.518 74.3096C290.863 60.8952 278.43 4.62015 227.39 0.36681C186.558 -3.03587 164.135 18.0722 158.028 29.0516L162.626 31.1218Z" fill="#D2BB89"/>
<path d="M91.2833 29.1587L26.8713 135.82C36.6725 130.476 62.8186 125.088 88.9931 146.289C121.711 172.791 153.645 163.957 166.47 152.833L202.525 85.7609L192.664 55.006C184.776 59.1939 165.226 63.5127 158.028 60.568L132.835 47.808C127.077 45.7141 119.966 29.7539 117.131 22.0355L91.2833 29.1587Z" fill="#F1DCAD"/>
<path d="M132.835 17.7074L117.131 22.0355C119.966 29.7539 127.077 45.7141 132.835 47.808L158.028 60.568C165.226 63.5127 184.776 59.1939 192.664 55.006L188.783 42.9003L162.626 31.1218L158.028 29.0516L132.835 17.7074Z" fill="#F9E6BB"/>
<path fill-rule="evenodd" clip-rule="evenodd" d="M0 180.316L113.532 251.314L126.292 227.577L153.104 177.699L166.47 152.833C153.645 163.957 121.711 172.791 88.9931 146.289C62.8186 125.088 36.6725 130.476 26.8713 135.82L0 180.316ZM74.5971 146.289C57.8455 134.249 39.916 137.346 33.0452 140.4C20.6124 156.432 21.2667 169.519 24.8657 177.699C28.4647 185.878 85.7213 221.868 103.716 220.559C118.112 219.512 137.634 186.096 145.595 169.519C108.297 186.205 95.5367 161.34 74.5971 146.289Z" fill="#D3A85A"/>
<path d="M33.0452 140.4C39.916 137.346 57.8455 134.249 74.5971 146.289C95.5367 161.34 108.297 186.205 145.595 169.519C137.634 186.096 118.112 219.512 103.716 220.559C85.7213 221.868 28.4647 185.878 24.8657 177.699C21.2667 169.519 20.6124 156.432 33.0452 140.4Z" fill="#CC9B4E"/>
<rect x="134.543" y="30" width="41.4094" height="6.17981" rx="3.08991" transform="rotate(24.2962 134.543 30)" fill="black"/>
</svg>
