<svg width="167" height="223" viewBox="0 0 167 223" fill="none" xmlns="http://www.w3.org/2000/svg">
<path d="M145.434 48.1093L160.917 27.649H145.434V48.1093Z" fill="#7F850D"/>
<path d="M6.63576 27.649L21.5662 48.1093V27.649H6.63576Z" fill="#7F850D"/>
<path d="M56.957 27.649V40.9205C57.5099 41.8422 58.9477 43.1324 60.2748 40.9205V27.649H56.957Z" fill="#7F850D"/>
<path d="M106.725 27.649V40.9205C107.094 42.0265 108.274 43.5748 110.043 40.9205V27.649H106.725Z" fill="#7F850D"/>
<path d="M34.8377 222.851H132.715C135.257 222.125 140.302 219.61 140.453 215.308C140.165 215.259 140.248 215.179 140.457 215.109C140.457 213.389 140.959 195.889 141.67 171.977C142.787 134.404 144.42 81.0004 145.434 48.1093V27.649H110.043V40.9205C108.274 43.5748 107.094 42.0265 106.725 40.9205V27.649H60.2748V40.9205C58.9477 43.1324 57.5099 41.8422 56.957 40.9205V27.649H21.5662V48.1093L25.3493 172.53L26.543 211.791C26.5234 212.184 26.5218 214.093 26.543 214.556C26.543 218.427 28.5135 222.851 34.8377 222.851Z" fill="#D0B711"/>
<path d="M151.517 11.6126V4.97682C151.701 3.31788 151.074 0 147.093 0H21.5662C19.5386 0.184327 15.4834 1.32715 15.4834 4.42384V11.6126H83.5H151.517Z" fill="#D0B711"/>
<path d="M160.917 27.649H167V11.6126H151.517H83.5H15.4834H0V27.649H6.63576H21.5662H56.957H60.2748H106.725H110.043H145.434H160.917Z" fill="#FCF235"/>
<path d="M26.543 211.791L25.3493 172.53H21.0132C18.9857 173.083 14.7093 175.405 13.8245 180.271C12.9397 185.138 13.4558 201.1 13.8245 208.473C13.8245 208.473 13.8245 215.662 19.3543 215.109C22.4356 214.801 25.4371 215.109 26.543 214.556C26.5218 214.093 26.5234 212.184 26.543 211.791Z" fill="black"/>
<path d="M141.67 171.977C140.959 195.889 140.457 213.389 140.457 215.109C140.457 215.176 140.456 215.242 140.453 215.308C140.928 215.389 142.408 215.385 145.987 215.109C151.738 214.667 153.175 210.132 153.175 207.921L153.728 179.166C152.844 174.742 148.936 172.53 147.093 171.977H141.67Z" fill="black"/>
</svg>
