<svg width="231" height="261" viewBox="0 0 231 261" fill="none" xmlns="http://www.w3.org/2000/svg">
<path d="M207.71 250.221C206.615 249.801 205.433 249.66 204.27 249.811C187.69 249.811 171.113 249.834 154.54 249.881C153.96 249.852 153.382 249.789 152.81 249.691C152.17 247.751 150.42 248.441 149.09 248.111C130.86 243.561 112.26 241.391 93.5701 240.111C84.1701 239.471 74.7101 239.061 65.2801 238.931C43.7801 238.631 22.2801 238.841 0.770059 238.841C0.546727 235.704 0.563443 232.555 0.820059 229.421C4.19006 229.841 7.57006 230.181 10.9201 230.691C23.3501 232.571 35.9301 232.471 48.4301 233.471C53.9701 233.941 59.5401 233.731 65.0901 233.921C74.3401 234.241 83.6301 234.051 92.9101 233.711C106.35 233.231 119.78 232.871 133.19 231.711C140.45 231.101 147.75 230.711 154.96 229.791C161.9 228.881 168.88 228.491 175.82 227.611C180.35 227.031 184.89 226.611 189.46 226.321C198.27 225.711 207.02 224.321 215.87 223.971C219.87 223.811 223.87 223.521 227.87 223.481C228.53 223.481 229.42 223.601 229.47 222.661C229.52 221.721 228.64 221.751 227.98 221.741C226.808 221.656 225.632 221.656 224.46 221.741C213.27 223.261 201.98 223.301 190.75 224.461C181.59 225.401 172.38 226.291 163.2 227.181C152.97 228.181 142.77 229.771 132.51 230.371C119 231.151 105.51 232.241 91.9401 232.281C72.5101 232.351 53.0701 232.471 33.6801 230.981C29.6001 230.671 25.5101 230.781 21.4401 230.321C14.5901 229.551 7.73006 228.881 0.880059 228.171C0.510059 225.171 0.590059 222.061 0.250059 219.001C-0.289941 214.151 1.25006 212.861 6.10006 212.761H8.10006C12.4301 215.361 16.8001 213.661 21.1601 212.871C52.1934 212.871 83.2201 212.871 114.24 212.871C130.2 212.871 146.153 212.891 162.1 212.931C161.99 213.571 161.69 214.031 160.98 214.041C158.511 214.184 156.057 214.518 153.64 215.041C144.18 216.721 134.78 218.691 125.26 220.041C114.675 221.496 104.02 222.394 93.3401 222.731C87.3401 222.951 81.2601 222.591 75.2201 222.401C63.4301 222.031 51.7201 221.031 40.0101 219.881C30.3801 218.931 20.7701 217.881 11.1301 217.081C8.32006 216.841 5.55006 216.081 2.70006 216.361C2.24006 216.361 1.63006 216.301 1.53006 216.941C1.43006 217.581 2.01006 218.001 2.60006 218.031C3.97006 218.121 5.34006 218.031 6.71006 218.121C8.96006 218.251 11.2501 217.951 12.2501 221.021C12.8501 222.861 15.7301 222.721 16.3001 220.871C16.7801 219.261 17.6901 219.291 18.9001 219.281C25.7301 219.221 32.4201 220.691 39.2001 221.281C50.2001 222.281 61.2001 223.671 72.3001 223.861C84.2001 224.061 96.1301 224.641 108.02 223.401C114.3 222.741 120.65 222.521 126.85 221.401C137.25 219.591 147.74 218.221 158.02 215.721C162.48 214.631 167.02 213.721 171.49 212.791H206.75C210.4 214.071 214.18 213.071 217.89 213.371C218.272 213.45 218.67 213.409 219.028 213.254C219.386 213.098 219.687 212.835 219.89 212.501C222.03 212.561 224.18 212.701 226.33 212.651C228.76 212.591 230.1 213.741 230.13 216.081C230.24 226.151 230.27 236.221 230.29 246.291C230.29 248.631 228.81 249.551 226.69 249.621C224.35 249.711 222 249.711 219.69 249.751C216.16 247.621 212.38 248.751 208.69 248.961C208.31 249.181 208.02 249.851 207.71 250.221ZM163.56 242.901C174.32 243.201 183.86 241.961 193.43 240.751C198.64 240.091 203.76 239.031 208.93 238.231C215.18 237.231 221.41 236.071 227.79 236.461C228.43 236.461 229.37 236.631 229.42 235.691C229.49 234.481 228.42 234.691 227.7 234.741C224.49 234.911 221.27 235.041 218.09 235.401C207.49 236.591 197.09 238.841 186.47 240.121C175.85 241.401 165.19 242.511 154.47 241.171C152.39 240.921 149.75 240.401 149.57 238.301C149.39 236.201 152.05 235.611 153.96 235.301C162.42 233.981 170.96 234.551 179.42 234.861C186.303 235.136 193.196 234.801 200.02 233.861C209.34 232.561 218.66 231.181 228.02 229.961C228.57 229.891 229.39 230.061 229.38 229.271C229.37 228.481 228.73 228.561 228.07 228.641C223.44 229.171 218.73 229.311 214.17 230.201C203.556 232.163 192.793 233.214 182 233.341C174.71 233.481 167.38 232.691 160.06 232.951C157.041 232.897 154.035 233.357 151.17 234.311C149.45 234.991 147.84 235.651 147.95 238.191C148.06 240.731 149.57 241.191 151.33 241.921C155.65 243.791 160.21 242.471 163.56 242.901ZM217.29 243.361C216.36 242.721 216.08 240.881 214.69 240.891C214.346 240.875 214.002 240.932 213.681 241.057C213.36 241.182 213.069 241.374 212.826 241.619C212.584 241.864 212.396 242.157 212.274 242.48C212.153 242.802 212.1 243.147 212.12 243.491C212.169 243.849 212.289 244.195 212.473 244.506C212.657 244.817 212.902 245.089 213.193 245.304C213.484 245.519 213.815 245.674 214.166 245.76C214.518 245.845 214.883 245.859 215.24 245.801C216.43 245.731 217.1 244.901 217.29 243.361ZM214.54 221.781C215.141 221.659 215.679 221.33 216.061 220.851C216.443 220.372 216.645 219.774 216.63 219.161C216.76 217.461 215.32 216.811 214.04 216.661C212.92 216.531 212.12 217.531 212.04 218.711C211.96 220.471 213.68 220.841 214.54 221.781Z" fill="#C77529"/>
<path d="M9.43033 97.8409C9.48033 93.9309 9.43033 90.0209 9.62033 86.1109C9.70033 83.9509 8.86033 83.0109 6.71033 83.1909C5.92765 83.2359 5.14302 83.2359 4.36033 83.1909C1.53033 83.1909 0.170332 82.0009 0.150332 79.1909C0.070332 68.1443 0.070332 57.0976 0.150332 46.0509C0.150332 43.8109 1.31033 42.4209 3.83033 42.4509C5.67033 42.4509 7.55033 42.7409 9.35033 42.0709C9.53033 42.4009 9.70033 43.0109 9.89033 43.0109C13.8903 43.1709 17.8903 44.0109 21.8103 42.5809H26.2903C30.6103 43.1909 34.9303 41.4209 39.2903 42.5809C40.6503 42.9409 41.7903 42.1209 42.7303 40.8809C43.9057 39.4413 45.2003 38.1032 46.6003 36.8809C47.0603 36.4509 47.9203 35.5309 48.0103 37.2409C48.0703 38.4409 49.0703 38.5109 49.9003 38.6009C51.1503 38.7309 51.1503 37.6009 51.3803 36.8209C51.8903 36.7309 52.8303 36.8209 52.5803 36.1109C52.3303 35.4009 51.6503 36.1109 51.1703 36.2209L49.9603 35.9309V35.2109C51.7572 34.4883 53.7082 34.2337 55.6303 34.4709C56.7703 34.5209 58.0803 34.2509 58.5703 35.7209C59.0603 37.1909 57.8503 38.0209 56.9203 38.8109C55.5103 39.9909 54.0103 41.0709 51.9203 42.6509H77.5203H83.4003C81.4003 44.4609 78.6703 44.3109 76.3203 44.8809C63.6815 47.921 50.8624 50.1555 37.9403 51.5709C28.4803 52.5709 19.0403 53.7509 9.50033 53.8609C6.64033 53.8609 3.78033 54.4209 0.110332 54.8109C1.23102 55.4428 2.52118 55.7085 3.80033 55.5709C10.7203 55.6909 17.5803 54.7409 24.4703 54.4509C31.0665 54.161 37.6406 53.4932 44.1603 52.4509C54.3003 50.8509 64.4803 49.4509 74.4203 46.7609C78.2029 45.7564 82.039 44.9652 85.9103 44.3909C86.8303 44.2509 86.9103 43.5809 86.9103 42.8809C90.8152 42.5628 94.7362 42.4893 98.6503 42.6609C95.8303 45.1009 91.9603 44.9609 88.7903 46.6609C85.6203 48.3609 82.2703 49.1109 79.5903 51.4709C78.3203 52.6009 76.9103 53.8409 77.5903 55.6709C78.2203 57.3209 79.9303 57.8709 81.5903 57.9109C86.0699 58.0135 90.5405 57.461 94.8603 56.2709C102.924 54.0607 111.231 52.8549 119.59 52.6809C133.628 52.3095 147.673 53.0619 161.59 54.9309C170.72 56.1709 179.94 56.7809 189.07 58.0009C201.242 59.5145 213.495 60.2659 225.76 60.2509C226.63 60.2509 228.14 60.7809 228.15 59.4009C228.16 58.0209 226.63 58.5309 225.77 58.5409C214.178 58.6193 202.591 58.0618 191.06 56.8709C181.68 55.9709 172.37 54.5309 162.99 53.6209C153.31 52.6809 143.67 51.6209 133.93 51.4209C128.99 51.3309 124.05 51.4209 119.12 51.4209C110.747 51.4662 102.413 52.558 94.3103 54.6709C90.6535 55.5632 86.932 56.1651 83.1803 56.4709C81.6903 56.5809 79.6803 56.2909 79.0903 54.9209C78.6503 53.9209 80.3503 52.9209 81.3703 52.2109C86.1703 49.0409 91.6803 47.5409 97.0003 45.5609C98.5503 44.9909 100.74 45.1109 101 42.6909L121.23 42.5509H125.07C126.143 42.6108 127.218 42.6108 128.29 42.5509C130.74 42.3109 133.4 43.4009 135.58 41.4409C136.65 43.5509 138.19 42.4409 139.58 42.0309C140.07 42.6909 140.8 42.6009 141.48 42.6609C142.218 43.2871 143.108 43.7079 144.06 43.8809C145.87 44.5709 147.77 44.1009 149.56 44.5409C154.851 45.8836 160.237 46.8196 165.67 47.3409C170.51 47.7509 175.36 48.2509 180.18 48.7409C185.692 49.4302 191.283 49.0911 196.67 47.7409C199.45 46.9909 202.51 45.8809 203.75 42.6509C204.674 42.4059 205.646 42.4059 206.57 42.6509C210.62 43.8409 214.72 43.2809 218.82 42.9809C219.63 42.9209 219.6 42.2709 219.82 41.7709C221.08 42.8909 222.62 42.3709 224.04 42.4309C227.49 42.5809 228.86 43.8209 228.87 47.2909C228.924 57.6643 228.924 68.0343 228.87 78.4009C228.87 81.6409 227.39 82.8909 224.1 83.0109C222.39 83.0709 220.55 82.4509 219.04 83.8009L218.95 83.7309C219.01 83.0409 219.09 82.1109 218.18 82.1409C214.52 82.2209 210.8 81.3709 207.18 82.7009C199.991 83.2792 192.77 83.3527 185.57 82.9209C185.46 82.5409 185.32 82.1209 184.83 82.2609C184.62 82.3209 184.5 82.6809 184.34 82.9009C182.91 83.4609 181.52 82.7309 180.11 82.7609C179.684 78.0076 179.674 73.226 180.08 68.4709H228.08V67.3609C212.08 67.2209 196.08 67.6309 180.08 66.7809C179.99 66.4016 179.92 66.0177 179.87 65.6309C179.51 61.3109 179.51 61.2409 175.29 61.3409C165.53 61.5609 155.77 61.3409 146 61.7909C133.13 62.3909 120.22 61.9409 107.33 62.3909C90.9303 62.9609 74.5203 62.9509 58.1103 63.1909C55.6703 63.1909 53.2203 63.1909 50.7803 63.2509C47.3303 63.3309 46.4403 64.2509 46.4003 67.6009C46.3403 72.7809 46.3203 77.9609 46.2803 83.1409C38.7803 83.1409 31.2803 83.1409 23.7803 83.0709C21.4403 83.0709 20.4303 83.6709 20.5303 86.1909C20.6903 90.0809 20.5303 93.9809 20.5303 97.8809L9.43033 97.8409ZM14.1503 71.8409L14.4103 72.5609C14.0403 73.1009 13.6703 73.6409 13.3203 74.1909C12.3903 75.6909 13.5203 76.7309 14.3903 77.4609C15.5403 78.4609 16.5803 77.2909 17.3903 76.5509C18.4403 75.6309 18.3903 74.7709 16.9703 74.1409C16.3403 73.8609 16.3803 73.1409 16.6403 72.6109C16.9003 72.0809 17.5903 72.0409 18.1603 72.0109C23.1603 71.8109 28.0603 71.5709 33.0203 71.4309C36.4403 71.3409 39.8603 71.4309 43.2703 71.4309C44.1103 71.4309 45.5803 71.9609 45.5403 70.4309C45.5403 69.2309 44.1403 69.6509 43.3603 69.6709C38.1103 69.8209 32.8703 70.1209 27.6203 70.2109C21.4903 70.3109 15.3803 70.9909 9.24033 70.9409C6.86033 70.9409 4.42033 71.4209 1.99033 71.4209C1.51033 71.4209 0.930331 71.4209 0.870331 72.0709C0.869085 72.3197 0.960607 72.56 1.12703 72.7449C1.29344 72.9298 1.52281 73.0461 1.77033 73.0709C2.33907 73.2061 2.93159 73.2061 3.50033 73.0709C7.02033 71.9809 10.6903 73.3709 14.1403 71.8709L14.1503 71.8409ZM40.8503 67.3009C41.9203 67.3009 43.0003 67.3009 44.0703 67.3009C44.6203 67.3009 45.4203 67.4709 45.4803 66.6709C45.5403 65.8709 44.7303 65.6709 44.0403 65.5909C43.1645 65.536 42.2861 65.536 41.4103 65.5909C36.4382 65.7468 31.4616 65.496 26.5303 64.8409C18.4303 64.0409 10.3803 62.8409 2.31033 61.7409C1.64033 61.6509 1.05033 61.6909 0.910331 62.3809C0.740331 63.2609 1.53033 63.1409 2.07033 63.2409C5.13033 63.8109 8.21033 64.1609 11.2903 64.5909C21.0903 65.9809 30.9803 66.4709 40.8403 67.3309L40.8503 67.3009ZM213.2 47.3009C212.855 47.3238 212.518 47.4175 212.21 47.5763C211.903 47.735 211.631 47.9555 211.413 48.2238C211.194 48.4921 211.033 48.8026 210.94 49.1359C210.847 49.4692 210.823 49.8181 210.87 50.1609C210.94 51.4809 211.63 52.5109 212.95 52.4709C213.318 52.4898 213.687 52.4354 214.034 52.3111C214.381 52.1869 214.7 51.995 214.972 51.7468C215.244 51.4985 215.465 51.1987 215.621 50.8648C215.777 50.5308 215.865 50.1692 215.88 49.8009C215.88 48.4009 214.57 47.6409 213.19 47.3509L213.2 47.3009ZM15.4303 52.6509C15.7448 52.7079 16.068 52.6937 16.3763 52.6093C16.6846 52.525 16.97 52.3727 17.2117 52.1636C17.4534 51.9545 17.6452 51.694 17.773 51.4011C17.9008 51.1082 17.9614 50.7903 17.9503 50.4709C17.9111 49.7883 17.6399 49.1396 17.1816 48.6322C16.7233 48.1248 16.1054 47.7892 15.4303 47.6809C14.0303 47.4809 13.0203 48.8409 12.9803 50.3109C12.9403 51.7809 13.9903 52.4709 15.4303 52.6509ZM211.43 76.4709C211.82 77.6109 212.04 79.0309 213.67 79.0109C214.95 79.0109 216.51 78.5909 216.49 77.1209C216.507 76.7575 216.448 76.3944 216.318 76.0547C216.188 75.7149 215.989 75.4057 215.733 75.1466C215.478 74.8874 215.172 74.6838 214.834 74.5486C214.496 74.4134 214.134 74.3495 213.77 74.3609C212.32 74.3209 211.74 75.1309 211.43 76.4709ZM54.1903 37.0109L53.9803 36.9309V37.2309C54.0494 37.2471 54.1213 37.2471 54.1903 37.2309C54.1903 37.2309 54.1803 37.0709 54.1903 37.0109Z" fill="#C77529"/>
<path d="M221.43 137.051L220.22 137.241C215.946 136.224 211.494 136.224 207.22 137.241L153.89 137.121C154.64 136.051 156.39 137.291 157.09 135.961C148.95 133.361 140.59 133.511 132.41 133.291C119.36 132.931 106.35 132.091 93.32 131.441C86.12 131.081 78.97 130.341 71.86 129.441C62.44 128.231 53.15 126.131 43.86 124.041C32.69 121.471 21.43 118.311 9.81 121.471C6.81 122.261 3.33 121.021 0.81 123.871C1.26371 124.171 1.78647 124.351 2.32889 124.393C2.87132 124.435 3.41549 124.338 3.91 124.111C15.16 121.001 26.42 121.591 37.65 124.111C42.65 125.241 47.57 126.891 52.65 127.771C62.49 129.481 72.31 131.241 82.3 132.081C94.02 133.081 105.757 133.824 117.51 134.311C124.91 134.621 132.33 134.611 139.73 134.991C142.156 135.051 144.575 135.278 146.97 135.671C148.65 135.981 150.8 135.291 152.07 137.161H21.14C18.07 136.021 14.9 136.851 11.78 136.651C10.69 136.581 9.43 136.251 8.62 137.461C7 136.951 5.33 137.281 3.68 137.221C1.42 137.151 0.23 136.031 0.21 133.781C0.13 123.441 0.08 113.091 0 102.781C0 100.201 1.26 99.151 3.79 99.071C5.48 99.011 7.29 99.771 8.86 98.511C12.86 100.691 17.01 99.751 21.15 99.121H46.29V105.471C46.03 105.351 45.75 105.101 45.5 105.121C36.73 105.951 27.94 105.271 19.16 105.491C17.87 105.491 16.8 105.581 16.16 103.941C16.0583 103.575 15.8507 103.247 15.5633 102.998C15.2759 102.75 14.9215 102.591 14.5445 102.543C14.1675 102.495 13.7847 102.559 13.4442 102.728C13.1036 102.897 12.8204 103.162 12.63 103.491C11.23 105.991 9.19 105.491 7.15 105.491C5.78 105.491 4.41 105.491 3.04 105.491C2.18 105.491 0.970001 105.381 0.990001 106.491C1.01 107.601 2.2 107.101 2.89 107.181C6.66 107.581 10.55 105.291 14.25 107.701C14.47 107.851 15.03 107.631 15.34 107.441C16.85 106.441 18.51 106.601 20.17 106.601C28.88 106.601 37.58 106.601 46.29 106.601C46.29 108.261 46.45 109.921 46.37 111.601C46.24 114.301 47.22 115.601 50.11 115.441C53.51 115.241 56.94 115.111 60.33 115.071C76.65 114.881 92.97 114.971 109.33 114.961C110.01 117.651 111.98 118.961 114.46 119.601C119.61 121.046 124.931 121.796 130.28 121.831C141.02 121.831 151.75 122.071 162.5 121.481C172.5 120.931 182.5 122.481 192.5 122.971C200.21 123.391 207.72 124.861 215.29 126.071C219.96 126.821 224.57 128.001 229.2 128.981C229.32 130.602 229.32 132.23 229.2 133.851C228.96 135.581 228.3 137.231 225.91 136.641C224.43 136.821 222.87 136.251 221.43 137.051ZM200.85 136.051C197.971 133.441 194.603 131.428 190.94 130.131C183.94 127.821 176.54 127.041 169.25 125.861C160.712 124.48 152.079 123.778 143.43 123.761C132.59 123.761 121.76 123.761 110.91 124.181C97.33 124.701 83.72 124.181 70.12 124.341C64.9595 124.313 59.8108 123.845 54.73 122.941C44.3 121.211 33.97 118.841 23.59 116.801C16.74 115.461 9.91 113.881 2.88 113.801C1.88 113.801 1.35 113.301 0.700001 112.341C0.550001 113.861 0.450001 114.771 2.23 115.011C5.5 115.451 8.82 115.701 12.05 116.271C24.47 118.441 36.77 121.271 49.18 123.491C56.712 124.972 64.3561 125.812 72.03 126.001C84.32 126.121 96.63 126.171 108.94 125.661C123.4 125.061 137.94 125.481 152.38 125.551C155.394 125.53 158.404 125.761 161.38 126.241C169.02 127.591 176.76 128.241 184.32 130.151C189.32 131.401 194.22 132.811 198.32 136.151C198.678 136.459 199.137 136.624 199.61 136.615C200.082 136.606 200.534 136.423 200.88 136.101L200.85 136.051ZM213.54 127.701C212.915 127.89 212.371 128.284 211.996 128.819C211.62 129.353 211.435 129.999 211.47 130.651C211.521 131.286 211.817 131.876 212.294 132.298C212.771 132.719 213.394 132.939 214.03 132.911C214.345 132.966 214.667 132.952 214.976 132.87C215.285 132.789 215.572 132.641 215.818 132.438C216.064 132.234 216.263 131.98 216.402 131.692C216.54 131.405 216.615 131.09 216.62 130.771C216.64 128.841 214.7 128.731 213.57 127.751L213.54 127.701ZM14.96 128.331C13.82 128.801 12.47 129.501 12.44 130.961C12.41 132.421 14.08 133.281 15.25 133.341C15.8867 133.297 16.4809 133.006 16.9052 132.529C17.3296 132.052 17.5503 131.428 17.52 130.791C17.61 129.361 16.63 128.611 14.99 128.381L14.96 128.331Z" fill="#C77529"/>
<path d="M229.3 175.981C229.632 179.305 229.669 182.651 229.41 185.981C222.99 186.681 216.61 185.381 210.13 185.821C202.95 186.311 195.7 186.071 188.5 186.581C182.87 186.971 177.24 187.381 171.64 187.911C160.82 188.911 150.16 191.171 139.47 193.101C138.52 193.281 137.25 193.251 136.81 194.551C127.63 194.791 118.45 194.831 109.27 194.551C108.97 192.551 106.93 193.151 105.8 192.371C100.8 188.951 94.9304 187.041 89.3404 185.211C79.8104 182.071 70.1204 179.081 59.9404 178.211C51.9404 177.521 43.9404 175.851 35.8604 176.041C25.6404 176.291 15.4104 175.351 5.19039 176.041C3.90039 176.131 1.64039 175.111 1.56039 176.941C1.50039 178.081 3.81039 177.101 5.03039 177.121C15.3804 177.301 25.7304 177.181 36.0804 177.631C42.7004 177.921 49.3204 178.331 55.8804 179.071C69.2996 180.574 82.4336 183.995 94.8804 189.231C98.5304 190.771 102.76 191.391 105.64 194.571C99.4004 194.801 93.1604 194.821 86.9204 194.571C85.9204 192.281 83.6304 193.441 82.0504 192.691C75.8704 189.751 69.2404 188.181 62.6204 186.691C56.1009 185.131 49.2949 185.224 42.8204 186.961C36.8204 188.561 31.9704 192.621 26.0104 194.171C25.9004 194.171 25.8704 194.511 25.8004 194.691L21.1104 194.761C17.3604 193.641 13.5404 194.441 9.75039 194.351C8.69039 194.351 8.87039 195.401 8.69039 196.111C7.92039 194.321 6.34039 194.781 4.95039 194.771C1.25039 194.771 0.44039 194.001 0.48039 190.361C0.54039 184.431 0.68039 178.501 0.78039 172.561C1.97039 173.311 2.64039 171.921 3.78039 171.891C12.5404 171.591 21.2904 171.141 30.0404 170.771C37.0404 170.471 44.0404 171.381 51.0404 171.491C55.8891 171.681 60.7253 172.115 65.5304 172.791C71.2804 173.461 76.9104 174.851 82.5304 175.991C92.8804 178.071 103.12 180.861 113.69 181.751C118.427 182.292 123.197 182.466 127.96 182.271C133.89 181.831 139.83 182.401 145.74 181.401C151.65 180.401 157.88 179.991 163.93 179.201C168.26 178.641 172.55 177.541 176.93 177.311C183.83 176.941 190.6 175.561 197.53 175.311C208.17 174.811 218.75 174.251 229.3 175.981ZM14.9104 191.271C15.5509 191.093 16.1079 190.694 16.483 190.145C16.8581 189.596 17.0271 188.933 16.9604 188.271C16.9693 187.925 16.8988 187.581 16.7543 187.266C16.6098 186.951 16.3952 186.674 16.1269 186.455C15.8585 186.235 15.5436 186.081 15.2062 186.002C14.8688 185.923 14.5179 185.923 14.1804 186.001C13.5403 186.06 12.9474 186.362 12.5247 186.846C12.102 187.331 11.882 187.959 11.9104 188.601C11.9604 190.311 13.8304 190.471 14.9104 191.271Z" fill="#C77529"/>
<path d="M51.3605 36.821C51.1305 37.641 51.1305 38.731 49.8805 38.601C49.0505 38.511 48.0505 38.441 47.9905 37.241C47.9005 35.531 46.9905 36.451 46.5805 36.881C45.1805 38.1033 43.8859 39.4413 42.7105 40.881C41.7705 42.121 40.6305 42.941 39.2705 42.581C34.9105 41.401 30.5905 43.171 26.2705 42.581C27.6205 35.941 32.6605 32.341 39.4305 33.171C40.4305 33.291 41.1305 33.441 41.8805 32.351C45.1405 27.591 49.8805 26.601 55.0405 28.181C57.9105 29.051 58.7805 28.291 59.5805 25.671C60.8145 21.7251 63.2646 18.2704 66.5805 15.801C69.3665 16.134 72.0458 17.0726 74.4305 18.551C76.4305 19.891 77.4305 21.801 76.5105 24.321C76.2805 24.971 75.5105 25.811 76.7805 26.211C77.8505 26.561 78.3605 25.881 78.6705 24.941C79.2563 22.969 79.0529 20.8465 78.1032 19.0217C77.1535 17.1969 75.5318 15.8126 73.5805 15.161C72.5005 14.831 71.2605 14.881 70.4505 13.881C72.3041 13.1469 74.3018 12.8489 76.2889 13.0102C78.2761 13.1714 80.1995 13.7876 81.9105 14.811C83.4405 15.731 83.9105 15.441 84.8205 14.191C86.4821 11.9113 88.6048 10.0067 91.0505 8.601C92.9105 8.021 94.5005 9.501 96.3105 9.281C97.2405 10.091 98.3705 9.831 99.3105 9.661C102.233 9.0527 105.043 7.99336 107.641 6.521C111.335 7.54607 114.671 9.58254 117.271 12.401C118.271 13.461 118.711 13.401 119.701 12.251C126.701 4.141 136.701 5.251 142.141 14.601C142.871 15.861 143.201 16.251 144.671 15.291C150.561 11.461 157.12 12.341 162.191 17.381C158.73 17.911 155.271 18.871 151.811 18.861C144.889 18.9006 137.993 19.7089 131.251 21.271C130.051 21.541 128.471 21.741 128.701 23.481C128.931 25.221 130.571 24.741 131.771 24.901C133.981 25.191 136.221 23.901 138.671 24.901C135.891 27.201 132.521 27.521 129.731 29.051C128.731 29.591 127.471 30.321 127.731 31.681C127.991 33.041 129.361 33.221 130.561 33.201C132.331 33.201 132.681 33.761 131.681 35.201C131.341 35.721 130.681 36.361 131.321 37.021C131.961 37.681 132.781 37.181 133.461 36.871C134.461 36.421 135.351 35.871 136.331 35.391C139.131 34.071 141.951 32.781 144.771 31.491L145.201 32.161C141.728 34.9708 138.515 38.0866 135.601 41.471C133.421 43.471 130.761 42.341 128.311 42.581C127.238 42.6409 126.163 42.6409 125.091 42.581C124.851 41.961 124.771 41.131 124.311 40.761C123.011 39.691 123.211 36.251 120.931 37.341C118.201 38.641 120.731 40.821 121.251 42.601L101.021 42.741L98.6705 42.691C94.7564 42.5193 90.8354 42.5928 86.9305 42.911L83.4305 42.661H77.5505C77.5281 42.4939 77.4878 42.3296 77.4305 42.171L76.9305 41.471C75.9305 39.921 74.9305 38.341 73.9305 36.841C72.3505 34.611 70.7005 32.421 68.0505 31.361C66.8805 30.891 65.5205 30.231 64.5605 31.461C63.6005 32.691 63.9905 34.251 65.0305 35.461C65.661 36.0782 66.329 36.6559 67.0305 37.191C68.7705 38.751 70.5305 40.291 71.2005 42.651H51.9505C54.0105 41.071 55.5105 39.991 56.9505 38.811C57.8805 38.021 59.1305 37.291 58.6005 35.721C58.0705 34.151 56.7705 34.471 55.6305 34.471C53.6959 34.238 51.7339 34.5031 49.9305 35.241C49.4905 35.241 48.9905 35.151 49.0505 35.801C49.0505 35.881 49.6305 35.911 49.9405 35.961L51.1505 36.251L51.3605 36.821ZM88.8605 21.331C88.2805 20.191 87.6805 19.861 86.7605 21.111C85.6063 22.8013 84.6816 24.6373 84.0105 26.571C82.2405 31.031 83.4305 33.471 88.1005 34.471C90.4405 35.001 92.7105 35.761 94.2605 37.561C97.6505 41.491 101.751 39.151 103.491 35.881C105.86 31.4047 107.591 26.618 108.631 21.661C108.977 20.5008 108.866 19.252 108.321 18.171L106.261 20.031C104.391 20.121 103.061 20.551 102.201 22.691C101.34 24.831 99.2705 25.151 97.3705 23.541C96.0705 22.441 95.1005 21.271 93.0405 22.541C91.7205 23.341 90.0005 22.641 88.8605 21.331ZM111.491 31.931C115.031 31.931 120.071 28.521 121.071 25.361C121.561 23.811 121.671 22.081 123.521 21.301C124.351 20.941 124.031 20.141 123.801 19.501C123.411 18.371 122.671 19.091 122.161 19.311C121.386 19.6291 120.708 20.1445 120.193 20.8058C119.679 21.4672 119.347 22.2516 119.231 23.081C118.661 26.451 116.331 27.971 113.441 29.021C112.603 29.2757 111.778 29.5727 110.971 29.911C110.351 30.211 110.381 30.911 110.561 31.451C110.59 31.5436 110.638 31.6294 110.7 31.7037C110.763 31.7779 110.84 31.839 110.926 31.8836C111.012 31.9282 111.107 31.9553 111.204 31.9634C111.3 31.9716 111.398 31.9605 111.491 31.931ZM130.831 13.471C132.211 13.321 133.831 13.211 133.941 11.251C134.031 9.621 132.841 9.011 131.401 9.191C129.961 9.371 127.921 9.621 127.741 11.461C127.561 13.301 129.311 13.351 130.831 13.471ZM66.8305 21.471C66.2105 23.381 66.7005 24.551 67.9105 25.371C68.3305 25.651 68.9105 25.281 69.0405 24.781C69.5005 22.991 68.0705 22.471 66.8105 21.471H66.8305Z" fill="#6F3E13"/>
<path d="M219.82 155.201C221.53 155.361 223.24 155.451 224.93 155.691C226.01 155.851 227.34 155.521 227.93 156.891C227.46 157.941 226.51 157.891 225.67 157.691C223.19 157.091 220.67 157.641 218.25 157.641C211.05 157.641 203.87 158.221 196.7 158.921C190.8 159.491 184.85 159.591 178.95 160.201C168.15 161.331 157.33 162.471 146.43 162.471C145.37 162.471 144.31 162.731 143.24 162.761C137.31 162.941 131.39 164.011 125.45 163.541C115.71 162.761 105.99 162.431 96.3401 164.331C93.9701 164.791 91.5301 165.141 89.6801 167.021C89.1851 167.502 88.8446 168.119 88.7021 168.794C88.5596 169.469 88.6216 170.171 88.8801 170.811C89.2901 172.061 90.4001 172.421 91.7001 172.451C98.1401 172.611 104.57 173.041 111 172.971C120.86 172.851 130.71 173.261 140.58 172.591C146.88 172.161 153.24 171.991 159.58 171.791C164.33 171.641 169.07 171.081 173.8 170.561C179.97 169.881 186.12 168.901 192.3 168.371C202.82 167.461 213.37 167.771 223.92 167.721C225.673 167.656 227.426 167.855 229.12 168.311C229.55 170.25 229.601 172.253 229.27 174.211C224.41 173.861 219.47 174.021 214.69 173.401C207.51 172.481 200.47 173.651 193.39 173.871C187.775 174.206 182.18 174.834 176.63 175.751C168.75 176.821 160.88 177.991 152.98 178.991C148.33 179.571 143.69 179.871 139.05 180.281C131.261 180.982 123.426 181.019 115.63 180.391C108.518 179.647 101.465 178.421 94.5201 176.721C85.9201 174.801 77.2801 172.901 68.5201 171.631C61.2312 170.533 53.8863 169.845 46.5201 169.571C31.2945 169.166 16.0581 169.536 0.870117 170.681V164.201C7.87012 164.041 14.8701 164.581 21.8701 164.261C29.9401 163.901 38.0201 163.331 46.0801 163.171C58.6501 162.931 71.1601 161.871 83.7101 161.281C87.0101 161.121 90.3101 160.831 93.6001 160.571C103.28 159.821 112.94 158.841 122.6 157.691C126.6 157.211 130.68 157.161 134.6 155.961C137.71 155.801 140.81 155.511 143.92 155.511C162.36 155.471 180.8 155.471 199.24 155.511C201.966 155.386 204.698 155.517 207.4 155.901C210.79 157.391 214.34 156.331 217.81 156.501C218.229 156.477 218.635 156.345 218.987 156.117C219.339 155.889 219.627 155.573 219.82 155.201Z" fill="#C77529"/>
<path d="M8.2003 250.471C6.9403 249.321 5.4003 249.921 3.9903 249.841C1.7603 249.701 0.520303 248.711 0.570303 246.401C0.570303 244.251 0.690303 242.111 0.750303 239.971C1.21785 240.102 1.69659 240.189 2.1803 240.231C20.0203 239.991 37.8603 239.871 55.7103 240.411C71.4703 240.891 87.2403 240.971 102.96 242.341C107.96 242.781 112.96 243.271 117.96 244.011C125.33 245.111 132.81 245.631 140.02 247.651C142.66 248.391 145.54 248.121 148.02 249.651C146.17 249.711 144.33 249.841 142.48 249.841H23.2103C22.3303 249.841 21.4603 249.941 20.5803 249.991C17.2303 248.281 13.5803 249.861 10.1603 249.231C9.94971 249.168 9.72818 249.152 9.51058 249.182C9.29298 249.212 9.08436 249.288 8.89871 249.406C8.71307 249.523 8.5547 249.679 8.43424 249.863C8.31378 250.047 8.23402 250.254 8.2003 250.471ZM14.0303 246.301C15.3503 245.931 16.4703 245.471 16.4403 243.841C16.4806 243.527 16.4564 243.208 16.3693 242.904C16.2822 242.599 16.134 242.316 15.9338 242.071C15.7335 241.826 15.4854 241.624 15.2045 241.478C14.9237 241.332 14.616 241.244 14.3003 241.221C12.8303 241.061 11.9803 241.981 11.7603 243.421C11.4903 245.221 12.9203 245.651 14.0303 246.331V246.301Z" fill="#C77529"/>
<path d="M228.87 158.241C229.322 160.995 229.389 163.798 229.07 166.571C224.49 166.481 219.93 166.571 215.34 166.101C207.4 165.331 199.43 166.621 191.47 166.791C184.72 166.931 177.98 168.281 171.24 169.091C162.35 170.161 153.43 170.981 144.52 171.181C127.99 171.551 111.45 171.291 94.9202 171.291C94.1399 171.348 93.3558 171.325 92.5803 171.221C91.4503 170.991 90.0203 170.731 90.0103 169.291C90.0103 168.101 91.3003 167.581 92.2603 167.291C96.9003 165.941 101.52 164.671 106.48 164.761C117.63 164.951 128.78 164.821 139.93 164.761C140.81 164.761 141.7 164.761 142.57 164.681C151.86 163.931 161.15 162.921 170.45 162.521C176.39 162.261 182.27 161.441 188.19 161.021C195.19 160.531 202.19 160.021 209.11 159.491C210.75 159.361 212.35 159.201 211.52 161.851C211.18 162.911 212.2 164.091 213.08 164.421C213.609 164.531 214.157 164.496 214.668 164.32C215.178 164.144 215.632 163.833 215.98 163.421C216.59 162.821 216.98 162.111 216.39 161.331C214.52 158.741 216.46 159.001 218.13 158.881C221.71 158.691 225.37 159.651 228.87 158.241Z" fill="#C77529"/>
<path d="M229.23 119.051C229.562 121.964 229.528 124.907 229.13 127.811C228.191 127.344 227.205 126.975 226.19 126.711C219.12 125.571 212.19 123.821 205.05 122.861C194.775 121.402 184.425 120.534 174.05 120.261C159.05 120.001 143.98 120.181 128.94 120.201C124.28 120.099 119.648 119.447 115.14 118.261C113.67 117.901 111.72 117.261 111.56 115.011C133.89 114.861 156.21 114.181 178.56 114.401L176.23 115.551C183.5 115.231 189.9 116.551 196.37 117.141C207.29 118.051 218.23 119.181 229.23 119.051Z" fill="#C77529"/>
<path d="M141.54 42.701C140.86 42.641 140.13 42.701 139.65 42.071C141.65 40.641 143.82 39.451 145.49 37.731C149.033 34.2437 153.253 31.5208 157.89 29.731C163.78 27.271 169.48 26.421 174.89 30.931C176.89 32.561 177.24 30.141 178.13 29.401C179.58 28.191 177.79 27.911 177.25 27.401C175.98 26.281 174.04 25.721 174.31 23.461C176.219 23.2338 178.154 23.5232 179.913 24.2989C181.672 25.0746 183.191 26.3082 184.31 27.871C185.26 29.101 185.93 29.561 187.59 29.211C189.368 28.8184 191.222 28.9505 192.926 29.5914C194.63 30.2322 196.112 31.3542 197.19 32.821C199.596 35.5362 201.116 38.9198 201.55 42.521L201.46 42.671H199.7C188.647 42.671 177.604 42.671 166.57 42.671C164.96 42.671 163.7 42.861 164.36 40.371C164.92 38.241 164.19 35.891 164.87 33.251C163.92 33.991 163.43 34.461 162.87 34.801C159.63 36.741 156.02 38.201 154.25 41.931C153.87 42.731 152.92 42.641 152.14 42.661H148.04L141.54 42.701ZM187.88 37.001C187.8 38.721 187.97 40.001 189.6 39.851C191.45 39.681 191.34 37.991 191.47 36.691C191.58 35.591 191.34 34.331 189.88 34.411C188.07 34.471 188.01 36.081 187.88 37.001ZM180.35 39.471C181.44 39.271 183.01 39.391 183.08 37.941C183.15 36.491 181.58 36.031 180.35 35.941C179.12 35.851 177.94 36.371 177.96 37.881C177.98 39.391 179.29 39.331 180.35 39.471Z" fill="#6F3E13"/>
<path d="M174.3 23.4709C174.03 25.7309 175.97 26.2909 177.24 27.4109C177.78 27.9009 179.57 28.1809 178.12 29.4109C177.23 30.1509 176.83 32.5709 174.88 30.9409C169.48 26.4309 163.78 27.2809 157.88 29.7409C153.243 31.5307 149.022 34.2536 145.48 37.7409C143.81 39.4609 141.6 40.6509 139.64 42.0809C138.2 42.4909 136.64 43.6009 135.59 41.4909C138.51 38.1165 141.726 35.0107 145.2 32.2109L144.77 31.5409C141.95 32.8309 139.13 34.1209 136.33 35.4409C135.33 35.8909 134.44 36.4409 133.46 36.9209C132.78 37.2309 132.01 37.8009 131.32 37.0709C130.63 36.3409 131.32 35.7709 131.68 35.2509C132.68 33.7709 132.33 33.1809 130.56 33.2509C129.36 33.2509 128 33.1109 127.73 31.7309C127.46 30.3509 128.73 29.6409 129.73 29.1009C132.52 27.5709 135.89 27.2509 138.67 24.9509C136.22 23.9509 133.98 25.2409 131.77 24.9509C130.57 24.7909 128.94 25.3309 128.7 23.5309C128.46 21.7309 130.05 21.5909 131.25 21.3209C137.993 19.7588 144.889 18.9505 151.81 18.9109C155.27 18.9109 158.73 17.9109 162.19 17.4309C164.45 17.9109 166.81 17.8909 169 18.7509C171.217 19.7313 173.071 21.3821 174.3 23.4709Z" fill="#EFBB30"/>
<path d="M0.890318 162.471C0.890318 161.411 0.730318 160.341 0.790318 159.281C0.920318 156.851 2.12032 155.541 4.70032 155.631C6.17032 155.631 7.83032 156.101 8.79032 154.371C8.72032 155.881 9.65032 156.041 10.8603 156.021C14.3303 155.951 17.8003 155.941 21.2703 155.911H47.4303C55.1603 155.911 62.9003 156.141 70.6103 155.851C88.0003 155.181 105.38 155.561 122.77 155.661C122.734 155.904 122.614 156.126 122.431 156.29C122.249 156.454 122.015 156.55 121.77 156.561C118.31 156.681 114.89 157.151 111.46 157.561C101.27 158.841 90.9703 159.351 80.7103 160.071C71.2203 160.731 61.7103 161.551 52.2103 161.771C41.8803 162.001 31.5603 162.841 21.2103 162.471C19.5903 162.411 18.2103 162.311 17.0003 160.971C16.0003 159.781 14.2503 159.451 13.4403 160.751C12.2103 162.751 10.5603 162.421 8.84032 162.441C6.16032 162.471 3.53032 162.471 0.890318 162.471Z" fill="#C77529"/>
<path d="M219.69 98.9809C221.52 98.9809 223.36 98.9809 225.2 99.0509C228.2 99.1109 229.42 100.231 229.48 103.251C229.54 106.271 229.38 109.041 229.31 111.941C227.425 112.45 225.471 112.662 223.52 112.571C218.958 112.421 214.408 112.021 209.89 111.371C202.95 110.601 196.06 109.511 189.19 108.261C186.25 107.731 183.43 106.391 180.34 106.701C180.54 104.111 179.39 101.541 180.2 98.9409L204.38 99.1209C204.56 99.4009 204.75 99.4309 204.96 99.1209H207.32C211.397 100.055 215.636 100.007 219.69 98.9809ZM217.18 106.171C216.68 104.991 215.94 103.831 214.59 103.881C213.24 103.931 212 104.481 212.07 106.111C212.071 106.797 212.324 107.458 212.782 107.969C213.239 108.48 213.869 108.805 214.55 108.881C216.17 109.051 216.62 107.471 217.18 106.171Z" fill="#C77529"/>
<path d="M228.87 158.241C225.37 159.651 221.71 158.691 218.13 158.941C216.46 159.061 214.52 158.801 216.39 161.391C216.94 162.171 216.59 162.881 215.98 163.481C215.631 163.893 215.178 164.204 214.667 164.38C214.157 164.556 213.609 164.591 213.08 164.481C212.2 164.151 211.18 162.971 211.52 161.911C212.35 159.261 210.75 159.421 209.11 159.551C202.11 160.111 195.11 160.551 188.19 161.081C182.27 161.501 176.39 162.321 170.45 162.581C161.15 162.981 151.86 163.991 142.57 164.741C141.7 164.811 140.81 164.821 139.93 164.821C128.78 164.821 117.63 164.961 106.48 164.821C101.48 164.731 96.9 166.001 92.26 167.351C91.26 167.631 90 168.151 90.01 169.351C90.01 170.791 91.45 171.051 92.58 171.281C93.3555 171.385 94.1397 171.408 94.92 171.351C111.45 171.351 127.99 171.611 144.52 171.241C153.43 171.041 162.35 170.241 171.24 169.151C177.98 168.341 184.72 166.991 191.47 166.851C199.47 166.681 207.4 165.391 215.34 166.161C219.93 166.611 224.49 166.541 229.07 166.631V168.401C227.376 167.945 225.623 167.746 223.87 167.811C213.32 167.861 202.77 167.551 192.25 168.461C186.07 168.991 179.92 169.971 173.75 170.651C169.02 171.171 164.28 171.731 159.53 171.881C153.19 172.081 146.83 172.251 140.53 172.681C130.66 173.351 120.81 172.941 110.95 173.061C104.52 173.131 98.09 172.701 91.65 172.541C90.35 172.541 89.24 172.151 88.83 170.901C88.5715 170.261 88.5095 169.559 88.652 168.884C88.7945 168.209 89.135 167.592 89.63 167.111C91.48 165.231 93.92 164.881 96.29 164.421C105.94 162.521 115.66 162.851 125.4 163.631C131.34 164.101 137.26 163.031 143.19 162.851C144.26 162.851 145.32 162.561 146.38 162.561C157.3 162.561 168.12 161.391 178.96 160.261C184.86 159.651 190.81 159.551 196.71 158.981C203.88 158.281 211.06 157.701 218.26 157.701C220.72 157.701 223.2 157.151 225.68 157.751C226.52 157.961 227.47 158.001 227.94 156.951C228.191 157.07 228.408 157.251 228.571 157.477C228.733 157.702 228.836 157.965 228.87 158.241Z" fill="#BB681F"/>
<path d="M229.43 189.471C229.43 192.571 228.33 194.101 225.43 194.471C223.682 194.64 221.926 194.713 220.17 194.691C216.71 193.964 213.186 193.589 209.65 193.571C208.762 193.619 207.918 193.972 207.26 194.571C194.7 194.571 182.13 194.681 169.56 194.681C160.79 194.681 152.03 194.591 143.26 194.541C145.42 193.061 148.05 193.021 150.45 192.541C153.85 191.831 157.45 191.721 160.81 191.021C167.969 189.677 175.214 188.844 182.49 188.531C191.23 187.991 200.02 187.341 208.82 187.711C209.391 187.688 209.96 187.784 210.492 187.992C211.024 188.2 211.507 188.517 211.91 188.921C212.73 189.731 214.43 190.711 215.3 189.711C217.94 186.711 221.3 188.041 224.3 187.711C226.35 187.551 228.23 187.591 229.43 189.471Z" fill="#C77529"/>
<path d="M0.840039 228.271C7.69004 228.981 14.55 229.651 21.4 230.421C25.47 230.881 29.56 230.771 33.64 231.081C53.03 232.571 72.43 232.471 91.9 232.381C105.46 232.381 118.96 231.251 132.47 230.471C142.73 229.871 152.93 228.271 163.16 227.281C172.34 226.391 181.55 225.501 190.71 224.561C201.94 223.401 213.23 223.361 224.42 221.841C225.592 221.756 226.768 221.756 227.94 221.841C228.6 221.841 229.49 221.781 229.43 222.761C229.37 223.741 228.49 223.571 227.83 223.581C223.83 223.581 219.83 223.911 215.83 224.071C206.98 224.431 198.23 225.811 189.42 226.421C184.85 226.731 180.31 227.131 175.78 227.711C168.84 228.591 161.86 228.981 154.92 229.891C147.71 230.831 140.41 231.201 133.15 231.811C119.74 232.931 106.31 233.291 92.87 233.811C83.59 234.151 74.3 234.341 65.05 234.021C59.5 233.831 53.93 234.021 48.39 233.571C35.9 232.571 23.32 232.641 10.89 230.761C7.54004 230.251 4.16004 229.911 0.790039 229.491L0.840039 228.271Z" fill="#BB681F"/>
<path d="M0.810293 170.711C15.9883 169.567 31.2146 169.197 46.4303 169.601C53.7964 169.875 61.1413 170.563 68.4303 171.661C77.1903 172.931 85.8303 174.831 94.4303 176.751C101.397 178.471 108.474 179.714 115.61 180.471C123.406 181.099 131.241 181.062 139.03 180.361C143.67 179.951 148.31 179.651 152.96 179.071C160.86 178.071 168.73 176.901 176.61 175.831C182.161 174.914 187.755 174.286 193.37 173.951C200.45 173.731 207.49 172.561 214.67 173.481C219.45 174.101 224.39 173.941 229.25 174.291C229.389 174.558 229.466 174.854 229.475 175.155C229.483 175.457 229.424 175.756 229.3 176.031C218.75 174.301 208.17 174.861 197.55 175.281C190.62 175.551 183.85 176.931 176.95 177.281C172.62 177.511 168.33 178.611 163.95 179.171C157.95 179.961 151.78 180.361 145.76 181.371C139.74 182.381 133.91 181.801 127.98 182.241C123.217 182.436 118.446 182.262 113.71 181.721C103.14 180.831 92.9003 178.041 82.5503 175.961C76.8803 174.821 71.2503 173.431 65.5503 172.761C60.745 172.088 55.9089 171.658 51.0603 171.471C44.0603 171.361 37.0603 170.471 30.0603 170.751C21.3103 171.121 12.5603 171.571 3.80029 171.871C2.71029 171.871 2.04029 173.291 0.800293 172.541L0.810293 170.711Z" fill="#BB681F"/>
<path d="M0.890508 162.471C3.53051 162.471 6.16051 162.471 8.80051 162.471C10.5205 162.471 12.1705 162.741 13.4005 160.781C14.2105 159.481 15.9305 159.781 16.9605 161.001C18.1305 162.341 19.5505 162.441 21.1705 162.501C31.5105 162.871 41.8305 162.031 52.1705 161.801C61.6805 161.581 71.1705 160.801 80.6705 160.101C90.9305 159.381 101.23 158.871 111.421 157.591C114.851 157.161 118.271 156.691 121.731 156.591C121.976 156.58 122.209 156.484 122.392 156.32C122.574 156.156 122.694 155.934 122.731 155.691C126.661 155.541 130.601 155.031 134.501 156.001C130.601 157.201 126.501 157.251 122.501 157.731C112.871 158.881 103.211 159.861 93.5005 160.611C90.2105 160.871 86.9105 161.161 83.6105 161.321C71.0605 161.911 58.5505 162.971 45.9805 163.211C37.9205 163.371 29.8405 163.941 21.7705 164.301C14.7705 164.621 7.77051 164.081 0.770508 164.241L0.890508 162.471Z" fill="#BB681F"/>
<path d="M148 249.651C145.56 248.151 142.68 248.421 140 247.651C132.79 245.651 125.31 245.111 117.94 244.011C112.94 243.271 107.94 242.781 102.94 242.341C87.24 241.001 71.43 240.921 55.71 240.471C37.86 239.931 20.02 240.051 2.18 240.291C1.69629 240.249 1.21755 240.162 0.75 240.031V238.871C22.25 238.871 43.75 238.661 65.26 238.961C74.69 239.091 84.15 239.501 93.55 240.141C112.24 241.421 130.84 243.591 149.07 248.141C150.4 248.471 152.15 247.781 152.79 249.721L148 249.651Z" fill="#BB681F"/>
<path d="M229.25 114.341C229.55 115.482 229.55 116.68 229.25 117.821C226.72 117.881 224.19 117.351 221.73 117.381C210.15 117.491 198.78 115.191 187.25 114.751C185.02 114.671 181.86 115.621 180.32 112.571C180.32 111.391 180.32 110.201 180.37 109.021C181.03 108.593 181.821 108.416 182.6 108.521C188.5 109.581 194.35 110.791 200.31 111.611C208.11 112.681 215.86 114.011 223.77 113.731C225.618 113.623 227.471 113.83 229.25 114.341Z" fill="#C77529"/>
<path d="M111.56 115.011C111.72 117.221 113.67 117.901 115.14 118.261C119.648 119.447 124.28 120.098 128.94 120.201C143.94 120.201 159.02 120.001 174.05 120.261C184.425 120.534 194.775 121.402 205.05 122.861C212.18 123.861 219.12 125.571 226.19 126.711C227.206 126.975 228.191 127.344 229.13 127.811V129.021C224.5 128.021 219.89 126.861 215.22 126.111C207.65 124.901 200.14 123.431 192.43 123.011C182.43 122.481 172.43 121.011 162.43 121.521C151.68 122.111 140.95 121.861 130.21 121.871C124.875 121.833 119.568 121.083 114.43 119.641C111.95 118.961 109.98 117.691 109.3 115.001L111.56 115.011Z" fill="#BB681F"/>
<path d="M9.43018 153.661V138.991H20.4302C20.4302 143.871 20.4302 148.758 20.4302 153.651C16.822 154.574 13.04 154.577 9.43018 153.661Z" fill="#C77529"/>
<path d="M8.91016 211.221C8.95016 206.381 8.99682 201.534 9.05016 196.681L20.3502 196.561C20.3502 201.228 20.3502 205.914 20.3502 210.621C16.5902 212.001 12.7002 210.701 8.91016 211.221Z" fill="#C77529"/>
<path d="M219.2 196.021C219.2 201.221 219.2 206.421 219.2 211.621C215.59 211.711 211.97 212.331 208.41 211.211V196.541C211.99 195.331 215.62 196.201 219.2 196.021Z" fill="#C77529"/>
<path d="M218.92 139.541C218.96 144.441 219.007 149.341 219.06 154.241H208.43C208.43 149.148 208.43 144.061 208.43 138.981C211.97 138.401 215.53 137.351 218.92 139.541Z" fill="#C77529"/>
<path d="M229.43 189.471C228.2 187.581 226.32 187.541 224.38 187.731C221.3 188.031 217.97 186.731 215.38 189.731C214.51 190.731 212.81 189.731 211.99 188.941C211.587 188.537 211.104 188.22 210.572 188.012C210.04 187.804 209.471 187.708 208.9 187.731C200.1 187.361 191.31 188.011 182.57 188.551C175.293 188.864 168.048 189.697 160.89 191.041C157.52 191.741 153.89 191.851 150.53 192.561C148.13 193.051 145.53 193.091 143.34 194.561C141.18 194.861 138.99 194.861 136.83 194.561C137.27 193.261 138.54 193.291 139.49 193.111C150.18 191.181 160.84 188.961 171.66 187.921C177.26 187.391 182.89 186.981 188.52 186.591C195.72 186.081 202.97 186.321 210.15 185.831C216.63 185.391 223.01 186.691 229.43 185.991C229.43 187.151 229.43 188.311 229.43 189.471Z" fill="#BB681F"/>
<path d="M219.05 83.7809C218.99 88.2809 218.927 92.7843 218.86 97.2909C215.4 97.5609 211.86 96.6709 208.47 97.8709C208.47 93.1709 208.47 88.4776 208.47 83.7909C211.918 84.7569 215.568 84.7292 219 83.7109L219.05 83.7809Z" fill="#C77529"/>
<path d="M9.88037 41.4009C9.88037 38.9509 9.98037 36.5109 9.96037 34.0709C9.94037 31.6309 11.0604 30.7909 13.3604 30.7009C20.7204 30.4109 20.9204 30.5609 20.9504 37.9609C20.9504 39.1309 20.9504 40.3109 21.0304 41.4809L9.88037 41.4009Z" fill="#C77529"/>
<path d="M208.18 40.931C208.18 38.791 208.1 36.651 208.1 34.521C208.1 32.091 209.17 30.811 211.76 30.681C218.42 30.341 218.76 30.681 218.82 37.431C218.82 38.591 218.9 39.751 218.95 40.921L208.18 40.931Z" fill="#C77529"/>
<path d="M141.54 42.701H147.99C150.16 44.271 152.8 44.301 155.23 44.381C162.34 44.621 169.13 46.951 176.23 47.181C182.85 47.381 189.5 48.111 195.93 46.181C197.88 45.581 200.69 45.591 201.41 42.721L201.5 42.571L203.81 42.741C202.57 45.971 199.51 47.081 196.73 47.831C191.343 49.1812 185.751 49.5203 180.24 48.831C175.42 48.341 170.57 47.831 165.73 47.431C160.297 46.9097 154.911 45.9737 149.62 44.631C147.83 44.191 145.93 44.631 144.12 43.971C143.163 43.7835 142.272 43.3453 141.54 42.701Z" fill="#BB681F"/>
<path d="M218.98 251.151C218.9 253.471 218.87 255.791 218.72 258.101C218.61 259.851 217.6 260.651 215.83 260.601C208.1 260.361 208.3 260.601 208.42 253.531C208.42 252.761 208.42 251.981 208.42 251.211L218.98 251.151Z" fill="#C77529"/>
<path d="M19.7402 251.741C19.822 252.12 19.8788 252.504 19.9102 252.891C20.1002 260.181 18.9602 261.171 11.6202 260.351C9.75024 260.151 8.77024 259.351 8.79024 257.351C8.81024 255.351 8.79023 253.631 8.74023 251.781L19.7402 251.741Z" fill="#C77529"/>
<path d="M70.4302 13.8809C71.2402 14.8809 72.4302 14.8809 73.5602 15.1609C75.5114 15.8124 77.1331 17.1968 78.0828 19.0216C79.0326 20.8464 79.236 22.9689 78.6502 24.9409C78.3402 25.8809 77.8302 26.5609 76.7602 26.2109C75.5102 25.8109 76.2602 24.9709 76.4902 24.3209C77.4302 21.8009 76.4302 19.8909 74.4302 18.5509C72.0574 17.078 69.3923 16.1395 66.6202 15.8009C64.5402 10.4109 68.4102 5.91087 68.8702 0.890872C68.8702 0.390872 69.1802 -0.109129 69.8002 0.0208708C70.4202 0.150871 70.6902 0.790872 70.7302 1.33087C70.8415 3.48215 70.3718 5.62373 69.3702 7.53087C68.6861 8.83936 68.3618 10.306 68.4302 11.7809C68.5602 13.0209 69.1002 13.7909 70.4302 13.8809Z" fill="#D2A784"/>
<path d="M107.64 6.52099C105.043 7.99335 102.233 9.05269 99.3103 9.66099C98.3103 9.83099 97.2003 10.091 96.3103 9.28099C95.4203 7.63099 94.3103 6.74099 92.2103 7.38099C91.725 7.59388 91.1862 7.65338 90.6661 7.55151C90.146 7.44963 89.6694 7.19125 89.3003 6.81099C91.9303 5.97099 93.6803 3.56099 96.4003 2.86099C97.5403 2.57099 98.3203 2.18099 99.4003 3.49099C100.77 5.17099 102.95 6.08099 105.1 4.73099C107.58 3.14099 107.5 4.87099 107.64 6.52099Z" fill="#C77529"/>
<path d="M229.25 114.341C227.468 113.828 225.612 113.622 223.76 113.731C215.85 114.011 208.1 112.731 200.3 111.611C194.3 110.791 188.49 109.611 182.59 108.521C181.811 108.416 181.02 108.593 180.36 109.021C180.36 108.251 180.36 107.471 180.36 106.701C183.45 106.391 186.27 107.701 189.21 108.261C196.08 109.511 202.97 110.601 209.91 111.371C214.428 112.021 218.978 112.421 223.54 112.571C225.491 112.662 227.445 112.45 229.33 111.941L229.25 114.341Z" fill="#BB681F"/>
<path d="M180.31 112.571C181.85 115.621 185.01 114.671 187.24 114.751C198.77 115.191 210.14 117.491 221.72 117.381C224.18 117.381 226.72 117.881 229.24 117.821C229.24 118.231 229.24 118.641 229.24 119.051C218.24 119.181 207.3 118.051 196.36 117.141C189.89 116.601 183.49 115.231 176.22 115.551L178.55 114.401L180.31 112.571Z" fill="#BB681F"/>
<path d="M8.91033 211.221C12.7003 210.701 16.5903 212.001 20.3303 210.621C20.6103 211.391 20.8803 212.161 21.1503 212.931C16.7903 213.721 12.4203 215.421 8.09033 212.821C8.09265 212.509 8.16802 212.202 8.31041 211.924C8.4528 211.646 8.65826 211.405 8.91033 211.221Z" fill="#BB681F"/>
<path d="M19.7402 251.741L8.74021 251.811C8.08021 251.571 8.16021 251.031 8.20021 250.501C8.23027 250.278 8.30902 250.063 8.4309 249.874C8.55279 249.684 8.71483 249.523 8.90558 249.403C9.09634 249.283 9.31115 249.206 9.53485 249.178C9.75855 249.15 9.98569 249.172 10.2002 249.241C13.6602 249.871 17.2702 248.291 20.6202 250.001C20.601 250.336 20.513 250.663 20.3616 250.963C20.2102 251.262 19.9986 251.527 19.7402 251.741Z" fill="#BB681F"/>
<path d="M208.18 40.9309H218.95L219.86 41.7609C219.66 42.2609 219.69 42.9109 218.86 42.9709C214.76 43.2709 210.66 43.8309 206.61 42.6409L207.61 41.4409L207.74 41.3509C207.76 41.2436 207.814 41.1452 207.893 41.0699C207.972 40.9945 208.072 40.9459 208.18 40.9309Z" fill="#BB681F"/>
<path d="M20.35 196.561L9.04996 196.681L8.70996 196.051C8.88996 195.341 8.70996 194.261 9.76996 194.291C13.56 194.381 17.38 193.581 21.13 194.701L20.35 196.561Z" fill="#BB681F"/>
<path d="M208.43 154.251H219.03L219.56 154.791C219.6 154.802 219.637 154.822 219.669 154.848C219.701 154.873 219.728 154.906 219.747 154.942C219.767 154.978 219.779 155.018 219.783 155.059C219.787 155.1 219.782 155.142 219.77 155.181C219.569 155.571 219.265 155.899 218.892 156.13C218.518 156.361 218.089 156.485 217.65 156.491C214.18 156.321 210.65 157.381 207.24 155.891C207.35 155.131 207.43 154.361 208.43 154.251Z" fill="#BB681F"/>
<path d="M208.43 97.871C211.84 96.671 215.36 97.561 218.82 97.291C219.1 97.851 219.37 98.421 219.65 98.981C215.595 100 211.355 100.042 207.28 99.101C207.43 98.401 207.7 97.921 208.43 97.871Z" fill="#BB681F"/>
<path d="M20.43 139.001H9.42997C8.97997 138.591 8.53997 138.181 8.62997 137.481C9.43997 136.271 10.7 136.601 11.79 136.671C14.91 136.871 18.08 136.041 21.15 137.181C20.9 137.781 20.67 138.391 20.43 139.001Z" fill="#BB681F"/>
<path d="M218.98 251.151L208.39 251.211L207.71 250.211C208.02 249.841 208.31 249.211 208.64 249.151C212.33 248.911 216.11 247.811 219.64 249.941L218.98 251.151Z" fill="#BB681F"/>
<path d="M219.2 196.021C215.62 196.201 211.99 195.331 208.46 196.541L207.32 194.541C207.978 193.942 208.822 193.589 209.71 193.541C213.246 193.559 216.77 193.934 220.23 194.661C219.99 195.251 219.82 195.821 219.2 196.021Z" fill="#BB681F"/>
<path d="M218.92 139.541C215.53 137.351 211.92 138.401 208.44 138.991C208.124 138.812 207.853 138.563 207.649 138.263C207.444 137.963 207.311 137.62 207.26 137.261C211.534 136.241 215.987 136.241 220.26 137.261C219.98 138.101 218.91 138.471 218.92 139.541Z" fill="#BB681F"/>
<path d="M208.43 211.211C211.99 212.331 215.61 211.711 219.22 211.621C219.39 211.871 219.57 212.111 219.74 212.351C219.774 212.357 219.806 212.371 219.833 212.393C219.861 212.414 219.882 212.442 219.896 212.474C219.91 212.505 219.915 212.54 219.913 212.574C219.91 212.609 219.899 212.642 219.88 212.671C219.678 213.005 219.377 213.268 219.018 213.424C218.66 213.579 218.263 213.62 217.88 213.541C214.17 213.241 210.39 214.241 206.74 212.961C206.771 212.517 206.957 212.098 207.266 211.778C207.575 211.458 207.988 211.257 208.43 211.211Z" fill="#BB681F"/>
<path d="M9.43007 153.661C13.0391 154.581 16.8211 154.581 20.4301 153.661C20.7001 154.421 20.9801 155.181 21.2601 155.931C17.7901 155.931 14.3201 155.931 10.8501 156.041C9.64007 156.041 8.71007 155.901 8.78007 154.391L9.43007 153.661Z" fill="#BB681F"/>
<path d="M9.88008 41.4009L21.0301 41.4709L21.7901 42.5409C17.8701 44.0109 13.8501 43.1309 9.87008 42.9709C9.68008 42.9709 9.51008 42.3609 9.33008 42.0309C9.51008 41.8209 9.70008 41.6109 9.88008 41.4009Z" fill="#BB681F"/>
<path d="M21.1403 99.0911C17.0003 99.7211 12.8503 100.661 8.85031 98.4811C8.80031 98.0611 9.04031 97.8811 9.42031 97.8411H20.5103C21.0703 98.1011 21.1003 98.6011 21.1403 99.0911Z" fill="#BB681F"/>
<path d="M89.26 6.81105C89.6291 7.19132 90.1056 7.44969 90.6257 7.55157C91.1458 7.65344 91.6846 7.59394 92.17 7.38105C94.26 6.74105 95.38 7.63105 96.27 9.28105C94.46 9.50105 92.87 8.02105 91.01 8.60105C89.84 7.23105 88.01 8.77105 86.71 7.73105C87.34 6.65105 88.33 6.80105 89.26 6.81105Z" fill="#D2A784"/>
<path d="M221.43 137.051C222.84 136.251 224.36 136.821 225.82 136.681C224.43 137.651 222.94 137.111 221.43 137.051Z" fill="#BB681F"/>
<path d="M219.61 154.811L219.08 154.271C219.43 154.331 219.65 154.471 219.61 154.811Z" fill="#C77529"/>
<path d="M207.8 41.341L207.67 41.431L207.68 41.281L207.8 41.341Z" fill="#C77529"/>
<path d="M219.73 212.381C219.56 212.141 219.38 211.901 219.21 211.651C219.375 211.68 219.522 211.773 219.619 211.91C219.716 212.046 219.756 212.215 219.73 212.381Z" fill="#C77529"/>
<path d="M208.43 211.211C207.984 211.26 207.571 211.466 207.263 211.792C206.955 212.118 206.773 212.543 206.75 212.991H171.48C168.4 212.201 165.17 212.201 162.09 212.991C146.143 212.991 130.19 212.971 114.23 212.931C83.2101 212.931 52.1834 212.931 21.1501 212.931C20.8801 212.161 20.6101 211.391 20.3301 210.621C20.3301 205.954 20.3301 201.268 20.3301 196.561L21.1101 194.701L25.8001 194.631C27.9401 194.681 30.1101 195.141 32.2001 194.311C32.9539 194.508 33.7235 194.638 34.5001 194.701C50.3801 194.701 66.2634 194.654 82.1501 194.561C83.7282 194.836 85.342 194.836 86.9201 194.561C93.1601 194.831 99.4001 194.811 105.64 194.561C106.828 194.836 108.062 194.836 109.25 194.561C118.43 194.871 127.61 194.831 136.79 194.561C138.95 194.861 141.14 194.861 143.3 194.561C152.07 194.561 160.83 194.701 169.6 194.701C182.17 194.701 194.74 194.631 207.3 194.591L208.44 196.591C208.433 201.451 208.43 206.324 208.43 211.211Z" fill="#6F3E13"/>
<path d="M162.09 213.011C165.17 212.221 168.4 212.221 171.48 213.011C166.99 214.011 162.48 214.851 158.01 215.941C147.73 218.441 137.24 219.811 126.84 221.621C120.64 222.701 114.29 222.921 108.01 223.621C96.1202 224.861 84.1902 224.281 72.2902 224.081C61.2302 223.841 50.2102 222.471 39.1902 221.471C32.4102 220.871 25.7202 219.401 18.8902 219.471C17.6802 219.471 16.7702 219.471 16.2902 221.061C15.7202 222.911 12.8402 223.061 12.2402 221.211C11.2402 218.141 8.95016 218.441 6.70016 218.311C5.33016 218.241 3.96016 218.311 2.59016 218.221C2.00016 218.221 1.41016 217.881 1.52016 217.131C1.63016 216.381 2.23016 216.601 2.69016 216.551C5.54016 216.231 8.31016 217.031 11.1202 217.271C20.7602 218.071 30.3702 219.121 40.0002 220.071C51.7102 221.221 63.4202 222.221 75.2102 222.591C81.2102 222.781 87.3102 223.141 93.3302 222.921C104.01 222.584 114.665 221.686 125.25 220.231C134.77 218.851 144.17 216.881 153.63 215.231C156.047 214.708 158.501 214.373 160.97 214.231C161.68 214.111 161.98 213.651 162.09 213.011Z" fill="#BB681F"/>
<path d="M163.56 242.901C160.21 242.511 155.65 243.791 151.29 241.981C149.53 241.261 148.01 240.711 147.91 238.251C147.81 235.791 149.41 235.051 151.13 234.371C153.995 233.417 157.001 232.957 160.02 233.011C167.34 232.751 174.67 233.541 181.96 233.401C192.753 233.274 203.516 232.223 214.13 230.261C218.69 229.371 223.4 229.261 228.03 228.701C228.69 228.621 229.34 228.581 229.34 229.331C229.34 230.081 228.53 229.951 227.98 230.021C218.65 231.241 209.33 232.621 199.98 233.921C193.156 234.861 186.263 235.196 179.38 234.921C170.92 234.611 162.38 234.041 153.92 235.361C152.01 235.651 149.34 236.161 149.53 238.361C149.72 240.561 152.35 240.981 154.43 241.231C165.16 242.571 175.78 241.471 186.43 240.181C197.08 238.891 207.43 236.651 218.05 235.461C221.23 235.101 224.45 234.971 227.66 234.801C228.36 234.801 229.45 234.541 229.38 235.751C229.33 236.691 228.38 236.561 227.75 236.521C221.37 236.131 215.14 237.321 208.89 238.291C203.72 239.091 198.6 240.151 193.39 240.811C183.86 241.961 174.32 243.201 163.56 242.901Z" fill="#BB681F"/>
<path d="M217.29 243.361C217.1 244.901 216.39 245.731 215.24 245.801C214.883 245.859 214.518 245.845 214.166 245.76C213.815 245.674 213.484 245.519 213.193 245.304C212.902 245.089 212.658 244.818 212.473 244.506C212.289 244.195 212.169 243.85 212.12 243.491C212.1 243.147 212.153 242.802 212.275 242.48C212.396 242.158 212.584 241.864 212.827 241.619C213.069 241.374 213.36 241.182 213.681 241.057C214.002 240.932 214.346 240.875 214.69 240.891C216.08 240.881 216.36 242.721 217.29 243.361Z" fill="#BB681F"/>
<path d="M214.54 221.781C213.68 220.841 211.96 220.511 212.06 218.711C212.12 217.531 212.92 216.531 214.06 216.661C215.34 216.811 216.78 217.461 216.65 219.161C216.664 219.776 216.46 220.377 216.074 220.856C215.688 221.336 215.145 221.663 214.54 221.781Z" fill="#BB681F"/>
<path d="M180.31 112.571L178.54 114.401C156.21 114.181 133.89 114.861 111.54 115.011H109.23C92.9104 115.011 76.5904 114.931 60.2304 115.121C56.8404 115.121 53.4104 115.291 50.0104 115.491C47.1204 115.661 46.1404 114.351 46.2704 111.651C46.3504 110.001 46.2704 108.341 46.1904 106.651C46.1904 106.251 46.1904 105.861 46.1904 105.471C46.1904 103.331 46.1904 101.191 46.1904 99.0411V83.1411C46.1904 77.9611 46.2504 72.781 46.3104 67.601C46.3104 64.231 47.2404 63.3311 50.6904 63.2511C53.1304 63.1911 55.5804 63.2511 58.0204 63.1911C74.4304 62.9511 90.8404 62.9611 107.24 62.3911C120.13 61.9411 133.04 62.3911 145.91 61.7911C155.68 61.3411 165.44 61.5611 175.2 61.3411C179.42 61.2411 179.42 61.3411 179.78 65.6311C179.83 66.0178 179.9 66.4017 179.99 66.781C179.874 67.0494 179.814 67.3387 179.814 67.6311C179.814 67.9234 179.874 68.2127 179.99 68.4811C179.599 73.2274 179.622 77.9988 180.06 82.741C179.662 88.1344 179.679 93.5503 180.11 98.9411C179.3 101.541 180.45 104.111 180.25 106.701C180.25 107.471 180.25 108.251 180.25 109.021C180.34 110.201 180.33 111.391 180.31 112.571ZM105.85 88.4711C105.85 92.0811 105.85 95.6811 105.85 99.2911C105.85 100.191 105.58 101.601 106.95 101.611C108.32 101.621 107.95 100.211 107.95 99.3311C107.76 92.3911 107.51 85.4511 107.26 78.5111C107.26 77.5111 107.61 76.0111 106.09 75.9511C104.83 75.9511 104.97 77.4011 104.8 78.2711C103.8 83.3411 102.93 88.4411 101.97 93.7311C101.381 92.6531 101.04 91.4575 100.97 90.2311C100.3 86.2311 99.6904 82.1211 98.9704 78.0811C98.8104 77.2211 98.9704 75.7411 97.7104 75.7311C96.2004 75.7311 96.4704 77.241 96.4004 78.241C95.9504 85.241 95.5904 92.3011 95.8004 99.3511C95.8004 100.351 95.3304 101.911 96.8904 101.911C98.4504 101.911 97.8904 100.331 97.8904 99.3711C97.9504 95.9111 97.8904 92.4411 97.8904 88.9711C99.0241 92.3286 99.8639 95.7782 100.4 99.2811C100.59 100.281 100.4 101.811 101.82 101.781C103.24 101.751 102.97 100.221 103.18 99.2211C104.01 95.6111 104.2 91.9011 105.85 88.4711ZM89.9604 88.0211C89.8304 85.0211 90.0804 81.9211 88.7604 79.0811C87.8204 77.0811 86.5504 75.371 83.9304 75.561C81.3104 75.751 80.0604 77.421 79.4304 79.561C78.8624 81.5352 78.5268 83.569 78.4304 85.6211C78.0682 90.2011 78.4635 94.8096 79.6004 99.2611C79.7927 100.13 80.2467 100.918 80.9011 101.521C81.5555 102.124 82.379 102.511 83.2604 102.631C84.236 102.81 85.2432 102.679 86.1402 102.256C87.0372 101.832 87.7787 101.138 88.2604 100.271C89.1102 99.0667 89.6402 97.6663 89.8004 96.2011C89.9804 93.4711 90.4304 90.731 89.9604 87.991V88.0211ZM138.65 89.6411C138.9 85.5111 139 81.6411 137.45 77.9111C136.7 76.1211 135.64 74.511 133.45 74.601C132.519 74.6651 131.631 75.0186 130.91 75.612C130.189 76.2054 129.672 77.0092 129.43 77.9111C127.32 84.3711 127.52 90.9111 129.04 97.5111C129.22 98.5953 129.804 99.5713 130.674 100.243C131.544 100.914 132.636 101.232 133.73 101.131C136.01 100.971 137.35 99.3611 137.97 97.2211C138.561 94.7301 138.79 92.1672 138.65 89.6111V89.6411ZM113.94 88.2311H114.06C114.06 91.9411 114.06 95.6611 114.06 99.3711C114.06 100.181 113.83 101.371 115.18 101.301C116.53 101.231 116.18 100.041 116.18 99.2411C116.18 96.7111 116.18 94.1711 116.05 91.6311C115.99 90.2311 116.36 89.6311 117.94 89.4011C121.88 88.8811 124.07 86.1411 123.79 82.4011C123.53 78.7911 121.96 76.0511 117.55 76.3211C117.168 76.3788 116.777 76.3304 116.42 76.1811C114.13 74.8711 113.95 76.3311 113.95 78.0211C113.93 81.3711 113.94 84.7911 113.94 88.2011V88.2311ZM66.8204 88.8811H67.0504C67.0504 87.1211 66.9904 85.3611 67.0504 83.6111C67.098 82.6333 67.2832 81.6671 67.6004 80.741C68.2304 78.891 69.0104 77.111 71.5404 78.351C72.1804 78.671 72.8504 79.0511 73.2904 78.2011C73.7304 77.3511 72.9904 76.7711 72.3604 76.3311C70.4104 75.0011 67.7104 75.831 66.3604 78.171C65.4765 79.9213 65.0045 81.8504 64.9804 83.811C64.5606 89.0472 64.8601 94.3162 65.8704 99.4711C66.0299 100.391 66.4841 101.235 67.1646 101.875C67.8451 102.515 68.715 102.916 69.6435 103.019C70.5719 103.122 71.5085 102.92 72.3123 102.444C73.1162 101.968 73.7437 101.244 74.1004 100.381C74.3504 99.7711 74.7404 99.0511 73.8504 98.6211C73.7183 98.5533 73.5735 98.5137 73.4252 98.505C73.277 98.4962 73.1285 98.5184 72.9893 98.5701C72.8501 98.6218 72.7232 98.702 72.6166 98.8055C72.5101 98.9089 72.4262 99.0334 72.3704 99.1711C71.6904 100.351 70.8904 101.351 69.3704 100.691C67.8504 100.031 67.6404 98.6911 67.5104 97.2911C67.2204 94.4711 67.0404 91.671 66.8204 88.851V88.8811ZM162.61 93.7611H162.54C162.37 89.9511 162.21 86.1511 162.01 82.3411C161.93 80.7911 161.25 79.0411 161.76 77.7311C162.51 75.7311 164.7 77.1311 166.2 76.7311C166.81 76.5611 167.34 76.3711 167.34 75.6511C167.343 75.5041 167.312 75.3585 167.252 75.2246C167.191 75.0907 167.102 74.9718 166.99 74.8763C166.879 74.7808 166.747 74.7111 166.605 74.6722C166.464 74.6333 166.315 74.6261 166.17 74.6511C162.557 74.8044 158.95 74.9844 155.35 75.1911C154.63 75.1911 153.92 75.5411 153.99 76.4011C154.06 77.2611 154.88 77.2311 155.57 77.2911C159.57 77.6211 159.57 77.6211 159.84 81.8011C159.84 82.2911 159.9 82.8011 159.92 83.2711C160.1 88.2711 160.27 93.2711 160.48 98.2011C160.48 99.0611 160.48 100.201 161.76 100.071C162.76 99.9711 162.59 98.9311 162.6 98.1811C162.62 96.6611 162.61 95.2011 162.61 93.7311V93.7611ZM149.68 93.7611C149.75 96.7611 148.39 98.0611 144.89 98.6011C144.07 98.7311 142.89 98.6011 143 99.8311C143.11 101.061 144.29 100.831 145.13 100.771C150.05 100.591 152.7 96.7711 151.48 91.7711C150.63 88.3211 148.17 85.8611 146.34 83.0211C144.51 80.1811 145.34 77.951 148.54 77.101C149.36 76.881 150.21 76.7511 150.01 75.7311C149.81 74.7111 148.79 74.9411 148.01 75.0011C144.4 75.2911 142.33 79.0011 143.73 82.6511C144.616 84.4977 145.761 86.2084 147.13 87.7311C148.473 89.4838 149.35 91.5479 149.68 93.7311V93.7611ZM173.12 105.711C172.38 106.111 171.52 106.541 171.58 107.551C171.58 107.796 171.63 108.039 171.726 108.264C171.823 108.489 171.965 108.692 172.142 108.861C172.32 109.029 172.531 109.16 172.761 109.244C172.991 109.328 173.236 109.365 173.48 109.351C173.679 109.356 173.875 109.319 174.059 109.243C174.242 109.168 174.407 109.055 174.545 108.912C174.682 108.769 174.788 108.599 174.856 108.413C174.924 108.227 174.953 108.029 174.94 107.831C174.92 106.671 174.19 106.101 173.12 105.681V105.711ZM172.43 66.7711C171.992 66.7913 171.575 66.9661 171.253 67.2644C170.93 67.5627 170.724 67.9653 170.67 68.4011C170.57 69.4011 171.43 69.9911 172.31 70.0811C172.55 70.1294 172.798 70.1216 173.035 70.0584C173.271 69.9952 173.49 69.8782 173.674 69.7166C173.858 69.555 174.002 69.3531 174.095 69.1266C174.188 68.9002 174.228 68.6553 174.21 68.4111C174.12 67.5211 173.3 66.9811 172.43 66.7711ZM55.1304 108.661C55.1304 107.441 54.2704 106.951 53.2804 106.821C53.0838 106.795 52.884 106.812 52.6945 106.87C52.505 106.929 52.3302 107.027 52.1822 107.159C52.0342 107.291 51.9163 107.453 51.8366 107.635C51.7569 107.816 51.7173 108.013 51.7204 108.211C51.6004 109.511 52.6304 109.881 53.5604 110.051C54.4904 110.221 54.9404 109.531 55.1304 108.661ZM54.5504 69.8211C54.2304 68.8811 53.6604 68.0711 52.5504 68.0711C52.3527 68.0664 52.1562 68.1047 51.9746 68.1833C51.7931 68.2618 51.6306 68.3787 51.4986 68.526C51.3665 68.6733 51.2679 68.8475 51.2095 69.0365C51.1511 69.2255 51.1344 69.4249 51.1604 69.6211C51.1604 70.8611 52.1604 71.2711 53.1004 71.3611C54.0404 71.4511 54.4304 70.7711 54.5504 69.8211Z" fill="#D2A784"/>
<path d="M180.2 98.9409C179.768 93.5501 179.752 88.1342 180.15 82.7409C181.56 82.7409 182.95 83.4409 184.38 82.8809H185.61C192.81 83.3126 200.031 83.2391 207.22 82.6609C207.247 82.9633 207.387 83.2446 207.61 83.4499C207.834 83.6552 208.126 83.7696 208.43 83.7709C208.43 88.4376 208.43 93.1309 208.43 97.8509C207.66 97.8509 207.35 98.3809 207.28 99.0809H204.92C204.731 99.0236 204.529 99.0236 204.34 99.0809L180.2 98.9409Z" fill="#6F3E13"/>
<path d="M46.2802 83.141V99.061H21.1402C21.1402 98.571 21.0702 98.061 20.5102 97.851C20.5102 93.951 20.6902 90.051 20.5102 86.161C20.4102 83.641 21.4202 83.001 23.7602 83.041C31.2802 83.191 38.7802 83.131 46.2802 83.141Z" fill="#6F3E13"/>
<path d="M98.6702 42.6609L101.02 42.7109C100.74 45.1309 98.5502 45.0109 97.0202 45.5809C91.7002 47.5809 86.1902 49.0609 81.3902 52.2309C80.3902 52.9009 78.6702 53.9109 79.1102 54.9409C79.7002 56.3109 81.7102 56.6009 83.2002 56.4909C86.97 56.1712 90.7084 55.5526 94.3802 54.6409C102.482 52.5279 110.817 51.4361 119.19 51.3909C124.12 51.4509 129.06 51.3909 134 51.3909C143.74 51.5809 153.38 52.6509 163.06 53.5909C172.44 54.5009 181.75 55.9409 191.13 56.8409C202.661 58.0318 214.248 58.5893 225.84 58.5109C226.7 58.5109 228.22 57.9909 228.22 59.3709C228.22 60.7509 226.7 60.2309 225.83 60.2209C213.565 60.2359 201.311 59.4844 189.14 57.9709C180.01 56.7509 170.79 56.1409 161.66 54.9009C147.743 53.0318 133.698 52.2794 119.66 52.6509C111.301 52.8249 102.994 54.0307 94.9302 56.2409C90.6104 57.4309 86.1398 57.9834 81.6602 57.8809C79.9602 57.8809 78.2502 57.2909 77.6602 55.6409C76.9502 53.8109 78.3602 52.5709 79.6602 51.4409C82.3402 49.0709 85.8402 48.2809 88.8802 46.6309C91.9202 44.9809 95.8502 45.1009 98.6702 42.6609Z" fill="#BB681F"/>
<path d="M83.4303 42.6609L86.9603 42.8809C86.9603 43.5809 86.8603 44.2509 85.9603 44.3909C82.0755 44.9637 78.2261 45.7549 74.4303 46.7609C64.4803 49.4709 54.3003 50.8509 44.1603 52.4709C37.6274 53.5147 31.0398 54.1825 24.4303 54.4709C17.5403 54.7609 10.6803 55.7109 3.76031 55.5909C2.48116 55.7285 1.191 55.4627 0.0703125 54.8309C3.74031 54.4409 6.60031 53.9109 9.46031 53.8809C19.0003 53.7709 28.4603 52.6209 37.9003 51.5909C50.8223 50.1755 63.6415 47.941 76.2803 44.9009C78.6703 44.3209 81.4303 44.4709 83.4303 42.6609Z" fill="#BB681F"/>
<path d="M14.1401 71.8711C10.6901 73.3711 7.02015 71.9811 3.52015 73.0811C2.95141 73.2163 2.35889 73.2163 1.79015 73.0811C1.54263 73.0562 1.31326 72.9399 1.14684 72.755C0.980424 72.5701 0.888903 72.3298 0.890149 72.0811C0.950149 71.4411 1.53015 71.4311 2.01015 71.4311C4.44015 71.4311 6.88015 70.9311 9.26015 70.9511C15.4001 70.9511 21.5101 70.3211 27.6401 70.2211C32.8901 70.1311 38.1301 69.8311 43.3801 69.6811C44.1601 69.6811 45.5201 69.2411 45.5602 70.4411C45.5602 71.9211 44.1301 71.3711 43.2901 71.4411C39.8801 71.5011 36.4602 71.4411 33.0401 71.4411C28.0401 71.5811 23.1301 71.8211 18.1801 72.0211C17.6101 72.0211 16.9501 71.9611 16.6601 72.6211C16.3701 73.2811 16.3601 73.8711 16.9901 74.1511C18.4401 74.7811 18.4601 75.641 17.4101 76.561C16.5701 77.301 15.5301 78.4211 14.4101 77.4711C13.5401 76.7411 12.4101 75.7011 13.3401 74.2011C13.6901 73.6511 14.0601 73.1111 14.4301 72.5711L14.1401 71.8711Z" fill="#BB681F"/>
<path d="M77.4305 42.1711C77.4824 42.3203 77.5193 42.4744 77.5405 42.631H71.1305C70.4605 40.271 68.7005 38.7311 66.9605 37.1711C66.259 36.636 65.591 36.0582 64.9605 35.4411C63.9605 34.2511 63.4705 32.7811 64.4905 31.4411C65.5105 30.1011 66.8105 30.871 67.9805 31.341C70.6305 32.401 72.2805 34.591 73.8605 36.821C74.9205 38.321 75.8605 39.901 76.8605 41.451L77.4305 42.1711Z" fill="#EFBB30"/>
<path d="M40.8405 67.331C30.9804 66.471 21.0905 65.981 11.2805 64.581C8.20045 64.151 5.12045 63.801 2.06045 63.231C1.52045 63.131 0.73045 63.231 0.90045 62.371C1.04045 61.681 1.63045 61.641 2.30045 61.731C10.3705 62.801 18.4205 64.031 26.5205 64.831C31.4616 65.4876 36.4483 65.7385 41.4305 65.581C42.3063 65.526 43.1846 65.526 44.0605 65.581C44.7505 65.581 45.5605 65.761 45.5005 66.661C45.4404 67.561 44.6404 67.271 44.0905 67.291C42.9905 67.361 41.9104 67.331 40.8405 67.331Z" fill="#BB681F"/>
<path d="M180.08 68.471C179.964 68.2027 179.904 67.9134 179.904 67.621C179.904 67.3286 179.964 67.0393 180.08 66.771C196.08 67.621 212.08 67.211 228.08 67.351V68.471H180.08Z" fill="#BB681F"/>
<path d="M208.43 83.7911C208.127 83.7898 207.834 83.6754 207.611 83.4701C207.387 83.2648 207.248 82.9835 207.22 82.6811C210.81 81.3511 214.53 82.2011 218.22 82.1211C219.13 82.1211 219.05 83.0211 218.99 83.7111C215.548 84.7351 211.887 84.7628 208.43 83.7911Z" fill="#BB681F"/>
<path d="M213.19 47.3511C214.57 47.6411 215.88 48.4011 215.87 49.8511C215.855 50.2193 215.767 50.5809 215.611 50.9149C215.455 51.2489 215.234 51.5487 214.962 51.7969C214.689 52.0452 214.37 52.237 214.024 52.3613C213.677 52.4856 213.308 52.5399 212.94 52.5211C211.62 52.5211 210.94 51.5211 210.86 50.2111C210.813 49.8682 210.836 49.5193 210.93 49.186C211.023 48.8527 211.184 48.5423 211.403 48.2739C211.621 48.0056 211.893 47.7852 212.2 47.6264C212.508 47.4676 212.845 47.3739 213.19 47.3511Z" fill="#BB681F"/>
<path d="M121.25 42.5711C120.73 40.7911 118.25 38.5711 120.93 37.3111C123.21 36.2211 123.01 39.6611 124.31 40.7311C124.77 41.1011 124.85 41.9311 125.09 42.5511L121.25 42.5711Z" fill="#D2A784"/>
<path d="M15.43 52.6511C14.03 52.5011 12.98 51.8011 13.03 50.3111C13.08 48.8211 14.04 47.4711 15.43 47.6811C16.1051 47.7893 16.723 48.125 17.1813 48.6324C17.6396 49.1398 17.9108 49.7885 17.95 50.4711C17.9611 50.7905 17.9005 51.1083 17.7727 51.4012C17.6449 51.6941 17.4531 51.9547 17.2114 52.1638C16.9697 52.3729 16.6843 52.5252 16.376 52.6095C16.0677 52.6938 15.7445 52.708 15.43 52.6511Z" fill="#BB681F"/>
<path d="M211.43 76.471C211.7 75.131 212.28 74.321 213.77 74.361C214.134 74.3496 214.496 74.4135 214.834 74.5487C215.172 74.6839 215.478 74.8875 215.733 75.1466C215.989 75.4058 216.188 75.715 216.318 76.0548C216.448 76.3945 216.507 76.7575 216.49 77.121C216.49 78.591 214.95 79.001 213.67 79.011C212.08 79.031 211.86 77.611 211.43 76.471Z" fill="#BB681F"/>
<path d="M51.3604 36.821L51.1504 36.221C51.6304 36.071 52.3104 35.341 52.5604 36.111C52.8104 36.881 51.8704 36.731 51.3604 36.821Z" fill="#BB681F"/>
<path d="M49.9403 35.9309C49.6303 35.8809 49.0603 35.8509 49.0503 35.7709C48.9903 35.1209 49.4903 35.1809 49.9303 35.2109C49.9303 35.4709 49.9403 35.6909 49.9403 35.9309Z" fill="#BB681F"/>
<path d="M185.61 82.901H184.38C184.54 82.681 184.66 82.321 184.87 82.261C185.36 82.101 185.5 82.521 185.61 82.901Z" fill="#BB681F"/>
<path d="M54.1905 37.0111C54.1905 37.0711 54.1905 37.1611 54.1905 37.1811C54.1214 37.1973 54.0495 37.1973 53.9805 37.1811V36.8811L54.1905 37.0111Z" fill="#BB681F"/>
<path d="M21.2704 155.931C20.9904 155.181 20.7104 154.421 20.4404 153.661C20.4404 148.774 20.4404 143.888 20.4404 139.001C20.6604 138.391 20.8904 137.781 21.1204 137.171H152.05H153.92L207.25 137.291C207.3 137.652 207.432 137.997 207.637 138.299C207.842 138.601 208.113 138.851 208.43 139.031C208.43 144.124 208.43 149.211 208.43 154.291C207.43 154.401 207.32 155.171 207.26 155.951C204.559 155.567 201.827 155.436 199.1 155.561C180.66 155.561 162.22 155.561 143.78 155.561C140.67 155.561 137.57 155.851 134.46 156.011C130.56 155.011 126.62 155.551 122.69 155.701C105.3 155.601 87.9204 155.221 70.5304 155.891C62.8204 156.181 55.0804 155.951 47.3504 155.951L21.2704 155.931Z" fill="#6F3E13"/>
<path d="M200.88 136.101C200.53 136.41 200.078 136.581 199.61 136.581C199.143 136.581 198.691 136.41 198.34 136.101C194.24 132.791 189.34 131.381 184.34 130.101C176.78 128.231 169.04 127.541 161.4 126.191C158.425 125.711 155.414 125.48 152.4 125.501C137.92 125.431 123.4 125.011 108.96 125.611C96.6504 126.121 84.3404 126.071 72.0504 125.951C64.374 125.772 56.7266 124.943 49.1904 123.471C36.7804 121.221 24.4804 118.471 12.0604 116.251C8.83044 115.681 5.51044 115.431 2.24044 114.991C0.460439 114.751 0.560438 113.841 0.710438 112.321C1.36044 113.321 1.88044 113.761 2.89044 113.781C9.89044 113.901 16.7504 115.481 23.6004 116.781C33.9804 118.781 44.3104 121.191 54.7404 122.921C59.8212 123.825 64.9699 124.293 70.1304 124.321C83.7304 124.211 97.3404 124.681 110.92 124.161C121.77 123.741 132.6 123.721 143.44 123.741C152.097 123.773 160.738 124.492 169.28 125.891C176.57 127.071 183.93 127.891 190.97 130.161C194.635 131.464 198.004 133.484 200.88 136.101Z" fill="#BB681F"/>
<path d="M153.93 137.131H152.06C150.79 135.261 148.64 135.951 146.96 135.641C144.565 135.248 142.146 135.021 139.72 134.961C132.32 134.581 124.9 134.591 117.5 134.281C105.754 133.781 94.017 133.038 82.2903 132.051C72.2903 131.211 62.4803 129.451 52.6403 127.741C47.6403 126.861 42.6403 125.211 37.6403 124.081C26.4103 121.551 15.1503 120.961 3.90029 124.081C3.40578 124.308 2.86161 124.405 2.31918 124.363C1.77676 124.321 1.254 124.141 0.800293 123.841C3.30029 120.991 6.80029 122.231 9.80029 121.441C21.4303 118.331 32.6803 121.511 43.9003 124.041C53.1803 126.131 62.4703 128.231 71.9003 129.441C79.0103 130.371 86.1603 131.111 93.3603 131.441C106.36 132.091 119.36 132.931 132.45 133.291C140.63 133.511 148.99 133.361 157.13 135.961C156.43 137.301 154.68 136.061 153.93 137.131Z" fill="#BB681F"/>
<path d="M46.2703 105.471C46.2703 105.861 46.2703 106.251 46.2703 106.651C37.5603 106.651 28.8603 106.651 20.1503 106.651C18.4903 106.651 16.8303 106.541 15.3203 107.491C15.0103 107.681 14.4503 107.901 14.2303 107.751C10.5303 105.341 6.64028 107.631 2.87028 107.231C2.18028 107.151 0.980277 107.641 0.970277 106.541C0.960277 105.441 2.16028 105.541 3.02028 105.541C4.39028 105.541 5.76028 105.541 7.13028 105.541C9.13028 105.541 11.2103 106.041 12.6103 103.541C12.8006 103.212 13.0839 102.947 13.4244 102.778C13.765 102.609 14.1478 102.545 14.5248 102.593C14.9018 102.641 15.2562 102.799 15.5436 103.048C15.831 103.297 16.0385 103.625 16.1403 103.991C16.8003 105.631 17.8703 105.571 19.1403 105.541C27.9203 105.321 36.7103 106.001 45.4803 105.171C45.7303 105.121 46.0103 105.371 46.2703 105.471Z" fill="#BB681F"/>
<path d="M213.57 127.751C214.7 128.751 216.64 128.841 216.65 130.821C216.645 131.14 216.57 131.455 216.432 131.742C216.294 132.03 216.094 132.284 215.848 132.488C215.602 132.691 215.315 132.839 215.006 132.92C214.697 133.002 214.375 133.016 214.06 132.961C213.424 132.989 212.802 132.769 212.324 132.348C211.847 131.926 211.551 131.336 211.5 130.701C211.465 130.049 211.651 129.403 212.026 128.869C212.401 128.334 212.945 127.94 213.57 127.751Z" fill="#BB681F"/>
<path d="M14.9901 128.381C16.6301 128.611 17.6101 129.381 17.5501 130.841C17.5804 131.479 17.3597 132.103 16.9354 132.579C16.511 133.056 15.9168 133.347 15.2801 133.391C14.1101 133.331 12.4401 132.591 12.4701 131.011C12.5001 129.431 13.8501 128.851 14.9901 128.381Z" fill="#BB681F"/>
<path d="M109.27 194.521C108.082 194.796 106.848 194.796 105.66 194.521C102.78 191.341 98.5501 190.721 94.9001 189.181C82.4533 183.945 69.3193 180.524 55.9001 179.021C49.3401 178.281 42.7201 177.871 36.1001 177.581C25.7501 177.131 15.4001 177.251 5.10005 177.071C3.88005 177.071 1.57005 178.071 1.63005 176.891C1.71005 175.061 3.97005 176.081 5.26005 175.991C15.4801 175.271 25.7101 176.211 35.9301 175.991C44.0401 175.801 51.9901 177.471 60.0101 178.161C70.1901 179.041 79.8801 182.031 89.4101 185.161C95.0001 186.991 100.86 188.901 105.87 192.321C106.93 193.121 108.97 192.471 109.27 194.521Z" fill="#BB681F"/>
<path d="M86.9403 194.541C85.3622 194.816 83.7484 194.816 82.1703 194.541C82.1289 194.307 82.0165 194.091 81.8483 193.923C81.6802 193.755 81.4645 193.642 81.2303 193.601C77.0003 192.291 72.6803 191.191 68.5203 189.761C59.2003 186.541 49.9503 186.031 40.5903 189.021C37.4303 190.021 34.2503 191.321 32.2203 194.291C30.1303 195.121 27.9603 194.661 25.8203 194.611C25.8903 194.431 25.9203 194.121 26.0303 194.091C32.0303 192.541 36.8003 188.481 42.8403 186.881C49.3148 185.144 56.1208 185.051 62.6403 186.611C69.2603 188.131 75.8903 189.701 82.0703 192.611C83.6503 193.411 85.9703 192.251 86.9403 194.541Z" fill="#BB681F"/>
<path d="M14.9102 191.271C13.8302 190.491 11.9602 190.271 11.9102 188.611C11.8818 187.969 12.1018 187.341 12.5245 186.856C12.9472 186.372 13.5401 186.07 14.1802 186.011C14.5177 185.933 14.8686 185.933 15.206 186.012C15.5434 186.091 15.8583 186.245 16.1266 186.465C16.395 186.684 16.6096 186.961 16.7541 187.276C16.8985 187.591 16.969 187.935 16.9602 188.281C17.0244 188.941 16.8542 189.602 16.4793 190.149C16.1044 190.696 15.5488 191.093 14.9102 191.271Z" fill="#BB681F"/>
<path d="M88.8603 21.331C90.0003 22.641 91.7203 23.331 93.0403 22.551C95.1003 21.301 96.0403 22.471 97.3703 23.551C99.2703 25.161 101.37 24.751 102.2 22.701C103.03 20.651 104.39 20.131 106.26 20.041C106.66 20.4758 106.923 21.019 107.016 21.6025C107.108 22.186 107.026 22.7838 106.78 23.321C105.65 26.811 105.02 30.471 102.95 33.651C101.61 35.651 100.31 37.901 97.6003 37.081C94.4703 36.141 95.7903 33.581 96.1903 31.441C96.4203 30.201 96.5703 28.871 95.3403 27.961C94.7703 27.5846 94.1076 27.3724 93.425 27.3477C92.7423 27.323 92.0661 27.4868 91.4703 27.821C90.2503 28.321 89.5403 29.431 88.5403 30.191C86.9903 31.381 85.3903 30.801 85.0803 28.981C84.7003 26.801 86.7303 22.691 88.8603 21.331Z" fill="#D2A784"/>
<path d="M88.8604 21.3309C86.7304 22.6909 84.7004 26.8009 85.0804 29.0009C85.3904 30.8209 86.9904 31.4009 88.5404 30.2109C89.5404 29.4509 90.2504 28.3409 91.4704 27.8409C92.0662 27.5067 92.7424 27.3429 93.4251 27.3676C94.1077 27.3923 94.7704 27.6045 95.3404 27.9809C96.5704 28.8909 96.4204 30.2209 96.1904 31.4609C95.7904 33.6009 94.4704 36.1609 97.6004 37.1009C100.31 37.9209 101.6 35.7209 102.95 33.6709C105.02 30.4909 105.65 26.8309 106.78 23.3409C107.026 22.8037 107.108 22.2059 107.016 21.6224C106.923 21.0389 106.66 20.4957 106.26 20.0609L108.32 18.2009C108.866 19.282 108.977 20.5307 108.63 21.6909C107.59 26.648 105.86 31.4346 103.49 35.9109C101.75 39.1809 97.6504 41.5209 94.2604 37.5909C92.7104 35.7909 90.4404 35.0309 88.1004 34.5009C83.4304 33.4709 82.2404 31.0309 84.0104 26.5709C84.6815 24.6373 85.6062 22.8012 86.7604 21.1109C87.6804 19.8609 88.2804 20.1909 88.8604 21.3309Z" fill="#C77529"/>
<path d="M111.49 31.931C111.398 31.9606 111.3 31.9716 111.203 31.9635C111.106 31.9554 111.012 31.9282 110.926 31.8837C110.839 31.8391 110.763 31.7779 110.7 31.7037C110.637 31.6295 110.59 31.5436 110.56 31.451C110.38 30.871 110.35 30.211 110.97 29.911C111.778 29.5728 112.602 29.2757 113.44 29.021C116.33 28.021 118.66 26.451 119.23 23.081C119.347 22.2516 119.679 21.4673 120.193 20.8059C120.707 20.1445 121.385 19.6292 122.16 19.311C122.67 19.091 123.41 18.371 123.8 19.501C124.03 20.141 124.35 20.941 123.52 21.301C121.67 22.081 121.52 23.811 121.07 25.361C120.07 28.521 115.03 31.971 111.49 31.931Z" fill="#D2A784"/>
<path d="M130.83 13.4711C129.31 13.3711 127.57 13.2311 127.74 11.4711C127.91 9.71108 129.86 9.39108 131.4 9.20108C132.94 9.01108 134.03 9.63108 133.94 11.2611C133.84 13.1911 132.21 13.3011 130.83 13.4711Z" fill="#D2A784"/>
<path d="M66.8099 21.4709C68.0699 22.5509 69.4999 23.0409 69.0199 24.7809C68.8899 25.2809 68.3099 25.6509 67.8899 25.3709C66.6799 24.4709 66.1899 23.3309 66.8099 21.4709Z" fill="#BB681F"/>
<path d="M14.0303 246.331C12.9203 245.651 11.4903 245.221 11.7603 243.451C11.9803 242.011 12.8303 241.091 14.3003 241.251C14.6152 241.275 14.9217 241.364 15.2014 241.51C15.4811 241.657 15.728 241.859 15.9272 242.104C16.1265 242.349 16.2738 242.632 16.3603 242.936C16.4467 243.24 16.4706 243.558 16.4303 243.871C16.4303 245.471 15.3503 245.961 14.0303 246.331Z" fill="#BB681F"/>
<path d="M201.43 42.6409C200.71 45.5109 197.9 45.5009 195.95 46.1009C189.52 48.1009 182.87 47.3409 176.25 47.1009C169.15 46.8709 162.36 44.5409 155.25 44.3009C152.82 44.2209 150.18 44.1909 148.01 42.6209H152.11C152.89 42.6209 153.84 42.6909 154.22 41.8909C155.99 38.1609 159.6 36.7009 162.84 34.7609C163.4 34.4209 163.89 33.9509 164.84 33.2109C164.16 35.8509 164.89 38.2109 164.33 40.3309C163.67 42.8209 164.93 42.6409 166.54 42.6309C177.58 42.6309 188.624 42.6309 199.67 42.6309L201.43 42.6409Z" fill="#C77529"/>
<path d="M187.88 37.0011C188.01 36.0811 188.07 34.5111 189.88 34.4111C191.34 34.3311 191.58 35.5911 191.47 36.6911C191.34 37.9911 191.47 39.6911 189.6 39.8511C187.97 40.0011 187.8 38.7211 187.88 37.0011Z" fill="#D2A784"/>
<path d="M180.35 39.471C179.29 39.291 177.98 39.411 177.96 37.891C177.94 36.371 179.12 35.891 180.35 35.951C181.58 36.011 183.16 36.371 183.08 37.951C183 39.531 181.43 39.311 180.35 39.471Z" fill="#D2A784"/>
<path d="M217.18 106.171C216.62 107.471 216.18 109.051 214.55 108.881C213.868 108.805 213.239 108.48 212.781 107.969C212.324 107.458 212.071 106.797 212.07 106.111C212 104.481 213.37 103.921 214.59 103.881C215.81 103.841 216.68 104.991 217.18 106.171Z" fill="#BB681F"/>
<path d="M204.43 99.1211C204.619 99.0638 204.821 99.0638 205.01 99.1211C204.75 99.4711 204.56 99.4011 204.43 99.1211Z" fill="#BB681F"/>
<path d="M32.2202 194.311C34.2202 191.311 37.4302 190.051 40.5902 189.041C49.9502 186.041 59.2002 186.561 68.5202 189.781C72.6802 191.211 77.0002 192.311 81.2302 193.621C81.4644 193.662 81.6801 193.775 81.8482 193.943C82.0164 194.111 82.1288 194.327 82.1702 194.561C66.2902 194.608 50.4069 194.654 34.5202 194.701C33.7436 194.638 32.974 194.508 32.2202 194.311Z" fill="#C77529"/>
<path d="M105.85 88.471C104.2 91.931 104.01 95.641 103.26 99.221C103.05 100.221 103.26 101.751 101.9 101.781C100.54 101.811 100.67 100.261 100.48 99.281C99.9438 95.7781 99.1039 92.3285 97.9703 88.971C97.9703 92.441 97.9703 95.911 97.9703 99.371C97.9703 100.371 98.5403 101.921 96.9703 101.911C95.4003 101.901 95.9103 100.321 95.8803 99.351C95.6703 92.351 96.0303 85.271 96.4803 78.241C96.5503 77.241 96.2803 75.731 97.7903 75.731C99.0403 75.731 98.8903 77.221 99.0503 78.081C99.7803 82.081 100.39 86.181 101.05 90.231C101.12 91.4574 101.461 92.653 102.05 93.731C103.05 88.441 103.9 83.341 104.88 78.271C105.05 77.401 104.88 75.911 106.17 75.951C107.69 76.011 107.3 77.511 107.34 78.511C107.59 85.451 107.84 92.391 108.03 99.331C108.03 100.211 108.48 101.621 107.03 101.611C105.58 101.601 105.94 100.191 105.93 99.291C105.82 95.651 105.85 92.051 105.85 88.471Z" fill="#6F3E13"/>
<path d="M89.9603 87.9909C90.4503 90.7309 89.9603 93.4509 89.7603 96.1709C89.6 97.6361 89.0701 99.0366 88.2203 100.241C87.7386 101.108 86.997 101.802 86.1 102.225C85.2031 102.649 84.1959 102.78 83.2203 102.601C82.3388 102.481 81.5154 102.093 80.861 101.491C80.2065 100.888 79.7526 100.099 79.5603 99.2309C78.4368 94.7772 78.055 90.1688 78.4303 85.5909C78.5266 83.5388 78.8622 81.5051 79.4303 79.5309C80.0603 77.3909 81.4303 75.7209 83.9303 75.5309C86.4303 75.3409 87.8203 77.0109 88.7603 79.0509C90.0803 81.8909 89.8303 84.9709 89.9603 87.9909ZM88.0503 89.9909C87.9003 86.6009 88.0003 83.1709 86.9103 79.8809C86.7754 79.2523 86.4422 78.6836 85.9597 78.2587C85.4772 77.8338 84.8709 77.5752 84.2303 77.5209C82.8303 77.5209 82.0203 78.5809 81.5803 79.8709C81.3403 80.6009 81.1203 81.3509 80.9503 82.1109C79.8603 87.1109 80.5403 92.0009 81.0803 96.9309C81.2703 98.6309 81.9003 100.461 83.8303 100.581C85.7603 100.701 86.8303 99.0009 87.3503 97.2409C87.9847 94.8901 88.2213 92.4497 88.0503 90.0209V89.9909Z" fill="#6F3E13"/>
<path d="M138.65 89.611C138.779 92.1686 138.54 94.7315 137.94 97.221C137.32 99.361 135.94 100.971 133.7 101.131C132.606 101.232 131.513 100.914 130.643 100.243C129.773 99.5713 129.19 98.5953 129.01 97.511C127.49 90.961 127.29 84.371 129.4 77.911C129.637 77.0021 130.153 76.1906 130.876 75.5912C131.6 74.9919 132.493 74.635 133.43 74.571C135.6 74.481 136.66 76.091 137.43 77.881C139 81.591 138.9 85.471 138.65 89.611ZM130.05 88.201C130.43 91.411 129.89 94.291 130.97 97.021C131.127 97.5935 131.467 98.0989 131.939 98.46C132.41 98.8211 132.986 99.0182 133.58 99.021C134.124 99.0036 134.643 98.7925 135.045 98.4257C135.446 98.059 135.703 97.5608 135.77 97.021C137.08 91.161 137.47 85.281 135.77 79.421C135.44 78.261 135.04 76.681 133.45 76.831C131.86 76.981 131.3 78.321 130.89 79.691C130.05 82.581 130.18 85.611 130.05 88.201Z" fill="#6F3E13"/>
<path d="M113.94 88.201C113.94 84.791 113.94 81.371 113.94 77.951C113.94 76.261 114.12 74.801 116.41 76.111C116.767 76.2603 117.158 76.3088 117.54 76.251C121.95 75.981 123.54 78.721 123.78 82.331C124.06 86.111 121.87 88.851 117.93 89.331C116.35 89.551 115.98 90.161 116.04 91.561C116.14 94.101 116.17 96.641 116.17 99.171C116.17 99.971 116.53 101.171 115.17 101.231C113.81 101.291 114.06 100.111 114.05 99.301C114.05 95.591 114.05 91.871 114.05 88.161L113.94 88.201ZM121.62 82.891C121.62 80.211 120.92 78.491 118.23 78.401C115.23 78.311 115.87 80.511 115.81 82.261C115.81 83.041 115.81 83.811 115.81 84.581C115.81 85.511 115.51 86.671 116.65 87.151C117.197 87.3615 117.789 87.4233 118.367 87.3302C118.945 87.2371 119.488 86.9924 119.94 86.621C120.522 86.2001 120.983 85.6343 121.277 84.9799C121.572 84.3255 121.69 83.6053 121.62 82.891Z" fill="#6F3E13"/>
<path d="M66.8202 88.8509C67.0402 91.6709 67.2202 94.4909 67.4902 97.3109C67.6202 98.6709 67.8802 100.091 69.3502 100.711C70.8202 101.331 71.6902 100.371 72.3502 99.1909C72.406 99.0532 72.4898 98.9287 72.5964 98.8253C72.7029 98.7218 72.8298 98.6417 72.969 98.5899C73.1083 98.5382 73.2567 98.516 73.405 98.5248C73.5532 98.5335 73.698 98.5731 73.8302 98.6409C74.7202 99.0709 74.3302 99.7909 74.0802 100.401C73.7234 101.264 73.0959 101.988 72.2921 102.464C71.4882 102.94 70.5516 103.141 69.6232 103.039C68.6948 102.936 67.8248 102.535 67.1444 101.895C66.4639 101.255 66.0097 100.411 65.8502 99.4909C64.8577 94.3132 64.5818 89.0237 65.0302 83.7709C65.0604 81.8087 65.5393 79.8794 66.4302 78.1309C67.7402 75.7909 70.4302 74.9609 72.4302 76.2909C73.0602 76.7309 73.8502 77.2209 73.3602 78.1609C72.8702 79.1009 72.2502 78.6309 71.6102 78.3109C69.0802 77.0709 68.3002 78.8509 67.6702 80.7009C67.3529 81.627 67.1678 82.5931 67.1202 83.5709C67.0302 85.3209 67.1202 87.0809 67.1202 88.8409L66.8202 88.8509Z" fill="#6F3E13"/>
<path d="M162.61 93.731C162.61 95.201 162.61 96.661 162.61 98.131C162.61 98.881 162.82 99.921 161.77 100.021C160.52 100.141 160.52 99.021 160.49 98.151C160.28 93.151 160.11 88.151 159.93 83.221C159.93 82.731 159.88 82.221 159.85 81.751C159.6 77.571 159.6 77.571 155.58 77.241C154.89 77.181 154.08 77.241 154 76.351C153.92 75.461 154.64 75.181 155.36 75.141C158.96 74.9277 162.567 74.7477 166.18 74.601C166.325 74.576 166.474 74.5832 166.615 74.6222C166.757 74.6611 166.888 74.7308 167 74.8263C167.112 74.9217 167.201 75.0407 167.262 75.1746C167.322 75.3085 167.352 75.4541 167.35 75.601C167.35 76.321 166.82 76.511 166.21 76.681C164.71 77.081 162.52 75.681 161.77 77.681C161.26 78.991 161.94 80.741 162.02 82.291C162.22 86.101 162.38 89.901 162.55 93.711L162.61 93.731Z" fill="#6F3E13"/>
<path d="M149.68 93.731C149.365 91.5525 148.505 89.4888 147.18 87.731C145.811 86.2083 144.666 84.4977 143.78 82.651C142.38 79.021 144.45 75.291 148.06 75.001C148.79 74.941 149.8 74.681 150.06 75.731C150.32 76.781 149.41 76.881 148.59 77.101C145.42 77.951 144.59 80.221 146.39 83.021C148.19 85.821 150.68 88.321 151.53 91.771C152.75 96.711 150.1 100.541 145.18 100.771C144.34 100.771 143.18 101.031 143.05 99.831C142.92 98.631 144.12 98.731 144.94 98.601C148.43 98.031 149.75 96.701 149.68 93.731Z" fill="#6F3E13"/>
<path d="M173.12 105.681C174.19 106.101 174.92 106.681 174.94 107.801C174.952 107.999 174.924 108.197 174.856 108.383C174.787 108.569 174.681 108.739 174.544 108.882C174.407 109.025 174.241 109.138 174.058 109.213C173.875 109.289 173.678 109.325 173.48 109.321C173.235 109.335 172.99 109.298 172.76 109.214C172.53 109.129 172.32 108.999 172.142 108.83C171.964 108.662 171.823 108.459 171.726 108.234C171.629 108.008 171.58 107.766 171.58 107.521C171.52 106.471 172.43 106.081 173.12 105.681Z" fill="#C77529"/>
<path d="M172.43 66.771C173.34 66.981 174.16 67.521 174.21 68.411C174.227 68.6552 174.188 68.9001 174.095 69.1265C174.002 69.353 173.858 69.5549 173.674 69.7165C173.49 69.8782 173.271 69.9951 173.035 70.0584C172.798 70.1216 172.55 70.1293 172.31 70.081C171.43 69.991 170.57 69.421 170.67 68.401C170.724 67.9653 170.93 67.5627 171.252 67.2644C171.574 66.966 171.992 66.7913 172.43 66.771Z" fill="#C77529"/>
<path d="M55.1302 108.661C54.9402 109.531 54.4602 110.211 53.5602 110.051C52.6602 109.891 51.5602 109.511 51.7202 108.211C51.7171 108.013 51.7567 107.816 51.8364 107.634C51.9161 107.453 52.034 107.291 52.182 107.159C52.33 107.027 52.5048 106.928 52.6943 106.87C52.8838 106.812 53.0836 106.795 53.2802 106.821C54.2702 106.951 55.1402 107.471 55.1302 108.661Z" fill="#C77529"/>
<path d="M54.5501 69.8209C54.4701 70.8209 54.0101 71.4409 53.1101 71.3609C52.2101 71.2809 51.1801 70.8609 51.1701 69.6209C51.1441 69.4248 51.1608 69.2254 51.2192 69.0364C51.2776 68.8473 51.3762 68.6732 51.5083 68.5259C51.6403 68.3786 51.8028 68.2617 51.9843 68.1831C52.1659 68.1046 52.3623 68.0663 52.5601 68.0709C53.6601 68.0709 54.2301 68.8809 54.5501 69.8209Z" fill="#C77529"/>
<path d="M88.0501 90.0211C88.2244 92.4599 87.9878 94.9107 87.3501 97.2711C86.8601 99.0311 85.8601 100.751 83.8301 100.611C81.8001 100.471 81.2701 98.6111 81.0801 96.9611C80.5401 92.0311 79.8601 87.0911 80.9501 82.1411C81.1201 81.3811 81.3401 80.6311 81.5801 79.9011C82.0201 78.6111 82.8301 77.5111 84.2301 77.5511C84.8707 77.6054 85.477 77.864 85.9595 78.2889C86.442 78.7138 86.7752 79.2825 86.9101 79.9111C88.0001 83.2011 87.9001 86.6311 88.0501 90.0211Z" fill="#D2A784"/>
<path d="M130.05 88.201C130.18 85.611 130.05 82.581 130.93 79.641C131.34 78.271 132 76.921 133.49 76.781C134.98 76.641 135.49 78.211 135.81 79.371C137.47 85.231 137.08 91.111 135.81 96.971C135.744 97.5107 135.487 98.009 135.085 98.3757C134.683 98.7425 134.164 98.9536 133.62 98.971C133.027 98.9681 132.45 98.7711 131.979 98.41C131.508 98.0489 131.167 97.5435 131.01 96.971C129.89 94.291 130.43 91.411 130.05 88.201Z" fill="#D2A784"/>
<path d="M121.62 82.891C121.689 83.6062 121.569 84.327 121.273 84.9815C120.976 85.6359 120.513 86.2012 119.93 86.621C119.478 86.9924 118.935 87.2371 118.357 87.3302C117.779 87.4233 117.187 87.3615 116.64 87.151C115.5 86.671 115.85 85.511 115.8 84.581C115.8 83.811 115.8 83.041 115.8 82.261C115.86 80.511 115.22 78.261 118.22 78.401C120.92 78.471 121.61 80.211 121.62 82.891Z" fill="#D2A784"/>
</svg>
