<svg width="399" height="293" viewBox="0 0 399 293" fill="none" xmlns="http://www.w3.org/2000/svg">
<path d="M374.474 116C374.474 153.6 374.474 191.147 375 228.746C375 235.697 373.263 239.594 366.158 241.437C300.789 258.552 235.474 275.877 170.105 292.992C168.025 293.057 165.951 292.717 164 291.992C167.204 283.489 168.655 274.424 168.263 265.345C168.263 221.005 168.263 176.612 168.263 132.22C178.158 134.379 177.579 144.331 182.053 150.598C184.895 154.548 183.895 162.025 191.895 161.13C219.316 158.129 244.947 148.07 271.526 141.593C305.895 133.167 339.368 121.319 374.474 116Z" fill="#C08042"/>
<path d="M288.731 261.245C284.526 263.73 279.922 265.128 275.225 265.345C275.019 264.106 274.882 262.851 274.814 261.591C274.814 204.282 274.428 134.3 274.5 77C279.313 74.9075 284.729 73.7862 289.814 73V260.207V260.078L288.731 261.245Z" fill="#F6DDC4"/>
<path d="M373.229 116.207C338.31 121.44 305.171 133.266 270.829 141.586C244.391 148.023 218.895 158.017 191.62 161C186.243 143.852 178.357 127.594 168.219 112.753C166.491 102.288 175.391 102.601 181.202 100.822C196.908 96.0081 213.189 91.8742 229.156 87.4787C234.863 86.1181 240.517 84.8099 246.171 83.397C288.052 73.193 328.887 59.6399 371.292 52C385.165 65.3437 388.935 84.2342 397.887 100.299C400.819 105.532 397.573 108.044 392.652 109.561C386.265 111.654 379.773 113.957 373.229 116.207Z" fill="#EDC48D"/>
<path d="M230 87.3503C213.922 91.7542 197.74 95.896 181.715 100.719C175.864 102.502 166.902 102.135 168.642 112.673C167.663 112.932 166.649 113.039 165.637 112.988C163.529 108.164 163.634 102.502 156.36 100.405C130.794 92.2785 105.281 83.7327 80.2946 74.1908C62.1085 67.113 42.1302 64.1771 26 52.1186C90.0992 34.9921 154.181 17.9181 218.245 0.896412C221.934 0.255128 225.675 -0.0433213 229.42 0.00506383C229.631 29.0502 229.824 58.1653 230 87.3503Z" fill="#DFA05F"/>
<path d="M167.9 132.457C167.9 177.064 167.9 221.671 167.9 266.225C168.292 275.348 166.839 284.456 163.628 293C128.459 282.658 93.8668 270.435 60 256.383C71.6548 258.023 78.3524 252.097 84.1008 242.466C92.7496 228.073 94.9118 210.718 106.197 197.436C111.999 190.557 110.153 179.233 115.215 170.608C118.221 165.317 113.844 160.872 108.518 157.961C100.66 153.622 92.1167 150.13 86.7903 142.087C106.514 142.616 123.073 154.046 141.689 157.961C142.269 161.771 143.061 165.634 147.649 166.428C148.651 166.428 151.024 164.682 150.971 163.835C149.811 147.961 163.1 135.049 161.518 118.857L165.052 116C170.062 120.657 166.95 127.006 167.9 132.457Z" fill="#D99C5B"/>
<path d="M87.2088 141.794C92.3733 149.706 100.791 153.187 108.486 157.618C113.651 160.519 117.989 165.108 115.045 170.225C109.881 178.823 111.895 190.111 106.214 196.968C95.162 210.313 93.0447 227.509 84.5749 241.856C78.9456 251.456 72.3867 257.364 60.9732 255.729C47.9924 252.984 35.4093 248.552 23.5306 242.542C23.5306 230.252 24.202 217.909 23.5306 205.619C22.601 182.251 26.2678 158.779 21.4132 135.517C21.4132 129.029 21.4132 122.541 21 116C27.9721 119.745 37.733 116.58 42.6392 125.336C44.7567 129.715 48.7333 128.818 52.3485 128.923C53.3463 128.869 54.3461 128.869 55.3439 128.923L58.7008 132.035C59.6986 131.983 60.6984 131.983 61.6962 132.035L65.1048 135.095H71.2505L74.5558 138.207H80.7532L84.1101 141.266H87.0022L87.2088 141.794Z" fill="#E0A362"/>
<path d="M55.5256 130.344C54.5166 130.291 53.5054 130.291 52.4963 130.344C50.1459 126.611 46.2287 127.189 42.6771 126.769C37.4541 118.041 27.8437 121.195 20.7926 117.462C-4.01666 106.368 -4.59117 106.053 8.41413 80.9723C13.6371 71.1925 13.6371 57.6796 26.6424 53C42.6248 65.0933 62.42 68.0378 80.4394 75.136C105.196 84.9158 130.476 93.4862 155.807 101.426C163.015 103.739 162.911 109.207 165 114.045V117.305L161.501 120.144C150.114 130.66 149.435 146.434 142.071 159C123.634 154.951 107.233 143.594 87.6994 143.226H84.7745L81.3795 140.177H75.1119L71.7692 137.075H65.5538L62.1067 134.025C61.0976 133.972 60.0864 133.972 59.0773 134.025L55.5256 130.344Z" fill="#EDC48D"/>
<path d="M228.581 88C228.581 58.7018 228.387 29.3684 228 0C273.343 12.594 316.786 30.9318 361.443 45.6863C365.402 47.0036 369.889 47.794 372 52.2731C329.243 59.9665 287.965 73.6144 245.842 83.8898C240.035 85.3126 234.334 86.6299 228.581 88Z" fill="#B0723D"/>
<path d="M20.3256 137C25.3594 159.822 21.5573 182.85 22.5212 205.775C23.0032 217.833 22.5212 229.942 22.5212 242C16.8448 236.825 19.7365 229.994 19.7365 224.043C19.4688 195.011 20.0043 166.032 20.3256 137Z" fill="#EDC48D"/>
<path d="M165 116.534V113.312C165.99 113.362 166.982 113.257 167.94 113C177.931 127.74 185.702 143.887 191 160.919C183.159 161.854 184.139 154.474 181.353 150.524C176.968 144.34 177.536 134.517 167.837 132.386C167.115 127.085 170.159 120.848 165 116.534Z" fill="#B0723D"/>
<path d="M142 158.628C149.141 146.187 149.799 130.402 160.84 120C162.562 135.995 149.799 148.539 150.711 164.429C150.711 165.266 148.483 167.148 147.52 166.991C143.418 166.207 142.658 162.391 142 158.628Z" fill="#CA864B"/>
<path d="M42 126C45.617 126.469 49.6064 126 52 129.988C48.383 129.871 44.2872 130.868 42 126Z" fill="#D99C5B"/>
</svg>
