<svg width="283" height="398" viewBox="0 0 283 398" fill="none" xmlns="http://www.w3.org/2000/svg">
<path d="M281.153 0C255.511 6.71192 227.288 14.1379 200.461 21.6591C189.665 24.7056 178.82 27.6093 168 30.5607V355.327C172.735 357.208 177.116 354.685 181.472 353.376C210.595 344.617 239.576 335.334 268.888 327.194C278.028 324.672 281.224 320.911 281.224 311.271C281.224 256.172 282.077 201.096 282.787 146.02L283 66.6909L282.787 0.333251" fill="#E9B579"/>
<path d="M165.69 359.368C156.719 363.993 146.898 366.595 136.878 367C136.438 364.693 136.145 362.359 136 360.012C136 253.354 136.077 146.704 136.231 40.0614C146.498 36.1669 157.154 33.4632 168 32V357.436V357.198L165.69 359.368Z" fill="#F6DDC4"/>
<path d="M169.937 32.7204C158.774 34.1671 147.806 36.8451 137.238 40.7048C101.721 49.2309 66.2038 57.8512 30.521 66.236C23.7017 67.8612 22.3047 72.1713 22.3994 78.2715C22.5652 93.0626 22.3994 107.854 22.3994 122.621L22.0443 398C2.43883 396.045 0.236795 393.737 0.236795 374.824C0.236795 275.455 0.378849 176.086 0 76.717C0 67.5785 2.6046 63.9514 11.4128 61.9023C96.7722 42.0002 182.061 21.6978 267.396 1.58377C272.605 0.35903 278.051 -1.66654 283 2.50229C256.765 12.0883 229.132 16.4926 202.305 23.9353C191.532 26.9265 180.687 29.7999 169.937 32.7204Z" fill="#C28244"/>
<path d="M20 397.31L20.3555 122.691C20.3555 107.964 20.4977 93.2134 20.3555 78.4631C20.3555 72.3797 21.6592 68.0814 28.4855 66.4608C64.0392 58.0991 99.7115 49.5026 135.313 41C135.313 146.022 135.242 251.051 135.099 356.089C135.248 358.4 135.549 360.699 136 362.971C134.056 366.423 130.477 366.87 127.159 367.88C95.9981 377.275 64.8372 386.717 33.6764 396.206C29.1492 397.592 24.6931 398.813 20 397.31Z" fill="#E9B578"/>
</svg>
