<svg width="160" height="205" viewBox="0 0 160 205" fill="none" xmlns="http://www.w3.org/2000/svg">
<path d="M3.74114 0H25.5559C53.0089 1.41055 80.6199 0.888125 107.282 0L135.052 0.417871C135.42 6.73923 136 13.1129 136 19.4343C136 81.0806 136 142.727 136 204.373L22.8686 205C16.282 205 6.5339 205 0 205" fill="#EAB579"/>
<path d="M159.589 15.6804C159.829 78.6121 159.966 141.649 160 204.79C148.642 204.79 136.975 205.262 125 204.79C125 142.872 125 80.9896 125 19.1417C125 12.7436 125.514 6.34561 125 0H159.229L159.589 15.6804Z" fill="#F7DDC4"/>
<path d="M3.74114 0H25.5559C53.0089 1.41055 80.6199 0.888125 107.282 0L135.052 0.417871C135.42 6.73923 136 13.1129 136 19.4343C136 81.0806 136 142.727 136 204.373L22.8686 205C16.282 205 6.5339 205 0 205" fill="#EAB579"/>
<path d="M159.589 15.6804C159.829 78.6121 159.966 141.649 160 204.79C148.642 204.79 136.975 205.262 125 204.79C125 142.872 125 80.9896 125 19.1417C125 12.7436 125.514 6.34561 125 0H159.229L159.589 15.6804Z" fill="#F7DDC4"/>
</svg>
