<svg width="290" height="338" viewBox="0 0 290 338" fill="none" xmlns="http://www.w3.org/2000/svg">
<path fill-rule="evenodd" clip-rule="evenodd" d="M20.1404 94.7327C24.9295 120.555 27.5908 150.932 23.056 178.141C16.6968 216.296 23.6149 261.264 30.8422 291.074C45.7158 273.851 93.0303 245.753 163.3 271.145C233.57 296.536 276.799 264.994 289.63 246.049C288.776 221.676 285.881 193.309 279.186 164.855C268.077 117.643 269.546 73.3945 273.07 46.7545C241.119 81.4464 154.442 76.2795 99.8211 69.6364C56.124 64.3219 28.4935 84.1529 20.1404 94.7327ZM49.6289 147.878C53.3195 143.203 64.2438 135.477 78.4158 141.973C80.4119 142.888 82.3799 143.802 84.3208 144.685C102.774 121.562 139.68 128.686 125.656 143.449C122.066 147.228 118.38 149.507 114.584 150.671C111.631 156.629 98.1976 169.283 68.082 172.236C37.9665 175.188 43.2318 157.227 49.6289 147.878ZM204.635 107.281C222.35 105.066 230.47 113.186 239.327 127.948C244.566 136.679 237.756 148.905 230.47 157.769C227.9 160.896 225.27 163.604 223.089 165.593C213.641 135.477 189.135 126.964 178.063 126.472C178.512 125.61 179.113 124.607 179.857 123.52C184.002 117.463 192.621 108.783 204.635 107.281ZM179.857 141.973C188.995 140.004 204.529 141.382 193.563 162.64C179.857 189.213 121.965 154.521 137.466 136.806C139.68 134.591 145.438 130.163 150.752 130.163C156.067 130.163 167.237 139.146 172.158 143.637C174.597 143.233 177.163 142.686 179.857 141.973Z" fill="#FBD115"/>
<path d="M163.3 271.145C93.0303 245.753 45.7158 273.851 30.8422 291.074C31.6683 294.482 32.4985 297.691 33.3134 300.67C99.5238 308.543 243.386 317.056 289.15 288.122C289.866 276.613 290.197 262.209 289.63 246.049C276.799 264.994 233.57 296.536 163.3 271.145Z" fill="#FB0D30"/>
<path d="M37.0804 313.218C89.4873 320.107 212.902 328.571 287.305 307.313C287.991 302.514 288.66 295.996 289.15 288.122C243.386 317.056 99.5238 308.543 33.3134 300.67C34.6372 305.509 35.9205 309.738 37.0804 313.218Z" fill="#FBD115"/>
<path d="M287.305 307.313C212.902 328.571 89.4873 320.107 37.0804 313.218C34.6201 315.678 31.0281 321.633 36.3426 325.766C41.6571 329.9 45.4462 327.488 46.6764 325.766C47.9066 328.965 52.2861 334.033 59.9627 328.719C61.6849 332.409 67.1963 338.019 75.4633 330.933C78.1698 335.116 85.5018 340.971 93.1783 330.933C95.1467 334.378 100.855 339.348 107.941 331.671C109.663 336.1 115.027 342.595 122.703 333.147C126.394 335.854 134.218 339.348 135.99 331.671C138.696 335.116 145.438 339.938 150.752 331.671C152.474 335.788 157.248 341.7 162.562 332.409C165.515 334.87 172.601 338.462 177.325 333.147C180.031 335.362 186.182 338.314 189.135 332.409C191.595 334.624 197.845 337.576 203.159 331.671C205.62 334.378 211.721 337.724 216.445 329.457C220.382 331.425 228.403 333.738 228.994 327.242C232.438 329.703 240.213 332.852 243.756 325.766C246.955 329.006 254.237 333.246 257.78 324.29C259.503 327.242 264.276 331.081 269.59 322.814C272.543 324.782 278.743 327.242 279.924 321.337C284.107 323.306 291.438 323.257 287.305 307.313Z" fill="#FB0D30"/>
<path d="M273.698 42.3257C209.076 24.6107 70.7209 41.8337 9.62108 52.6595C13.11 63.4397 17.0642 78.1464 20.1404 94.7327C28.4935 84.1529 56.124 64.3219 99.8211 69.6364C154.442 76.2795 241.119 81.4464 273.07 46.7545C273.273 45.2188 273.483 43.7416 273.698 42.3257Z" fill="#FA0C30"/>
<path d="M276.233 29.0394C226.287 22.1502 102.478 15.6055 6.81719 44.5401C7.69508 46.9055 8.63968 49.6271 9.62108 52.6595C70.7209 41.8337 209.076 24.6107 273.698 42.3257C274.51 36.9683 275.392 32.4889 276.233 29.0394Z" fill="#FBD115"/>
<path d="M6.81719 44.5401C102.478 15.6055 226.287 22.1502 276.233 29.0394C278.694 30.0236 283.91 29.6299 285.091 20.1819C286.272 10.7339 274.265 10.3402 268.114 11.3244C265.162 5.41935 259.995 7.87977 257.78 9.84811C254.828 3.9431 248.677 6.40352 245.97 8.37186C242.427 1.28585 235.637 3.45102 232.684 5.41935C227.37 -2.25716 220.628 1.72869 217.922 4.68118C211.426 -1.22387 204.881 2.71286 202.421 5.41935C195.335 -1.66665 187.166 2.46685 183.968 5.41935C179.244 -4.02864 170.189 0.99057 166.253 4.68118C160.938 -2.40483 152.721 2.22079 149.276 5.41935C141.009 -2.84776 135.005 4.43517 133.037 9.11002C127.132 0.842967 118.767 5.66541 115.322 9.11002C105.874 3.20501 101.051 8.61792 99.8211 12.0625C91.5538 7.33849 86.0429 12.5547 84.3208 15.7532C79.5968 8.07678 70.5425 12.5547 66.6058 15.7532C58.9293 9.84824 50.6131 15.7533 47.4145 19.4439C39.1475 11.7674 30.6837 18.2136 27.4851 22.3963C19.8086 15.3103 13.4607 22.3963 11.2463 26.8251C8.29383 25.3488 1.65031 27.5632 0.17406 34.2064C-1.00694 39.5209 4.11073 43.3099 6.81719 44.5401Z" fill="#FA0C30"/>
<path d="M193.563 162.64C204.529 141.382 188.995 140.004 179.857 141.973C177.163 142.686 174.597 143.233 172.158 143.637C152.371 146.914 140.94 140.749 137.466 136.806C121.965 154.521 179.857 189.213 193.563 162.64Z" fill="#ECA167"/>
<path d="M78.4158 141.973C64.2438 135.477 53.3195 143.203 49.6289 147.878C43.2318 157.227 37.9665 175.188 68.082 172.236C98.1976 169.283 111.631 156.629 114.584 150.671C105.222 153.542 95.1961 149.627 84.3208 144.685C82.3799 143.802 80.4119 142.888 78.4158 141.973Z" fill="#FEB163"/>
<path d="M178.063 126.472C189.135 126.964 213.641 135.477 223.089 165.593C225.27 163.604 227.9 160.896 230.47 157.769C236.375 145.605 234.406 135.281 232.684 131.639C216.15 103.295 190.577 114.416 179.857 123.52C179.113 124.607 178.512 125.61 178.063 126.472Z" fill="#ECA167"/>
<path d="M150.752 130.163C145.438 130.163 139.68 134.591 137.466 136.806C140.94 140.749 152.371 146.914 172.158 143.637C167.237 139.146 156.067 130.163 150.752 130.163Z" fill="#FED4A0"/>
<path d="M125.656 143.449C139.68 128.686 102.774 121.562 84.3208 144.685C95.1961 149.627 105.222 153.542 114.584 150.671C118.38 149.507 122.066 147.228 125.656 143.449Z" fill="#FED4A0"/>
<path d="M239.327 127.948C230.47 113.186 222.35 105.066 204.635 107.281C192.621 108.783 184.002 117.463 179.857 123.52C190.577 114.416 216.15 103.295 232.684 131.639C234.406 135.281 236.375 145.605 230.47 157.769C237.756 148.905 244.566 136.679 239.327 127.948Z" fill="#FED4A0"/>
</svg>
