<svg width="270" height="282" viewBox="0 0 270 282" fill="none" xmlns="http://www.w3.org/2000/svg">
<path d="M156.337 164.204C171.727 161.273 192.344 161.29 204.162 161.947C204.351 161.958 204.532 161.986 204.715 162.031C206.823 162.55 209.287 163.069 211.957 163.523C205.443 147.469 186.702 112.206 163.853 99.5785C141.004 86.9513 140.302 66.2567 142.808 57.4879C139.3 65.5051 135.592 86.35 148.821 105.591C162.049 124.833 159.343 152.684 156.337 164.204Z" fill="#CCCCCC"/>
<path d="M257.409 132.878C257.671 132.725 257.907 132.542 258.112 132.319C265.601 124.156 275.6 106.855 257.805 100.33C238.159 93.1267 186.561 67.0942 154.215 31.1812C153.545 47.2157 170.882 92.363 245.592 144.676C247.563 139.801 253.133 135.374 257.409 132.878Z" fill="#CCCCCC"/>
<path d="M141.304 14.6457C139.819 12.3988 138.314 10.4436 136.795 8.75794C128.794 2.96605 109.967 2.6211 98.5349 47.4306C98.4876 47.616 98.4571 47.8037 98.446 47.9947C97.1678 69.9288 92.2582 118.764 82.6781 140.918C88.9416 128.892 101.92 95.8203 103.723 59.7427C105.527 23.6651 129.529 14.6457 141.304 14.6457Z" fill="#CCCCCC"/>
<path d="M11.2743 180.028C25.4911 179.869 44.7515 185.571 54.8682 208.563C68.0967 182.708 65.8919 123.63 63.136 97.3237C63.3865 110.101 59.2276 138.061 40.5874 147.682C21.9473 157.303 13.2786 173.255 11.2743 180.028Z" fill="#CCCCCC"/>
<path d="M110.071 279.605C110.35 279.848 110.664 280.034 111.016 280.148C117.285 282.187 128.36 282.067 127.107 266.577C127.061 266.003 127.16 265.417 127.412 264.9C130.759 258.021 136.621 243.717 136.043 235.622C135.295 225.144 138.272 158.773 182.822 193.086C183.183 193.364 183.493 193.739 183.705 194.143C188.634 203.521 205.254 219.544 235.257 213.073C265.923 206.459 271.084 197.289 269.831 193.531C267.827 184.512 260.962 164.368 249.538 155.95C245.528 166.476 225.918 165.895 211.957 163.523C209.287 163.069 206.823 162.55 204.715 162.031C204.532 161.986 204.351 161.958 204.162 161.947C192.344 161.29 171.727 161.273 156.337 164.204C148.737 165.652 142.411 167.819 139.05 170.982C128.828 180.603 115.749 187.518 110.488 189.773C77.4168 199.995 72.6883 228.105 74.4579 240.883C87.3144 257.958 101.774 272.363 110.071 279.605Z" fill="#CCCCCC"/>
<path d="M78.1684 39.4491C68.6479 60.2439 47.0514 105.291 36.8293 119.121C24.598 135.669 2.03564 148.773 0.129085 177.554C-0.00208689 179.534 1.89353 180.994 3.85104 180.668C6.08155 180.297 8.58788 180.058 11.2743 180.028C13.2786 173.255 21.9473 157.303 40.5874 147.682C59.2276 138.061 63.3865 110.101 63.136 97.3237C65.8919 123.63 68.0967 182.708 54.8682 208.563C59.7466 219.651 66.8194 230.738 74.4579 240.883C72.6883 228.105 77.4168 199.995 110.488 189.773C115.749 187.518 128.828 180.603 139.05 170.982C142.411 167.819 148.737 165.652 156.337 164.204C159.343 152.684 162.049 124.833 148.821 105.591C135.592 86.35 139.3 65.5051 142.808 57.4879C140.302 66.2567 141.004 86.9513 163.853 99.5785C186.702 112.206 205.443 147.469 211.957 163.523C225.918 165.895 245.528 166.476 249.538 155.95C244.68 152.371 244.089 148.393 245.592 144.676C170.882 92.363 153.545 47.2157 154.215 31.1812C149.436 25.8754 145.078 20.3539 141.304 14.6457C129.529 14.6457 105.527 23.6651 103.723 59.7427C101.92 95.8203 88.9416 128.892 82.6781 140.918C92.2582 118.764 97.1678 69.9288 98.446 47.9947C98.4571 47.8037 98.4876 47.616 98.5349 47.4306C109.967 2.6211 128.794 2.96605 136.795 8.75794C114.324 -16.1718 88.7286 17.8593 78.1684 39.4491Z" fill="#F3F2F2"/>
</svg>
