<svg width="573" height="588" viewBox="0 0 573 588" fill="none" xmlns="http://www.w3.org/2000/svg">
<path d="M507.238 339.179C475.238 112.379 278.238 97.0123 183.738 117.679C83.3376 138.879 29.9042 222.846 15.7376 262.179C-35.8819 405.5 42.4037 565.687 207.738 585.179C426.758 611 515.738 446.679 507.238 339.179Z" fill="#F48333"/>
<path d="M222.258 178.771C214.258 179.971 200.091 182.74 196.258 182.74C182.2 182.089 168.971 179.694 156.758 182.74C163.924 180.084 181.258 175.771 181.258 165.771C181.258 160.606 176.488 155.687 171.258 153.508L220.758 150.771C221.367 156.586 225.861 161.435 230.258 167.271C224.573 170.509 223.763 175.628 222.258 178.771Z" fill="#FBAF61"/>
<path d="M75.7578 233.771C87.2667 218.81 116.495 192.781 156.758 182.74M196.258 182.74C181.091 194.24 149.158 223.471 142.758 264.271M196.258 182.74C214.924 185.24 257.158 201.64 276.758 247.24M196.258 182.74C200.091 182.74 214.258 179.971 222.258 178.771C223.763 175.628 224.573 170.509 230.258 167.271M196.258 182.74C182.2 182.089 168.971 179.694 156.758 182.74M338.258 167.271C277.455 152.291 245.971 158.323 230.258 167.271M226.758 124.771C223.776 129.495 219.656 140.249 220.758 150.771M230.258 167.271C225.861 161.435 221.367 156.586 220.758 150.771M154.258 148.271C158.125 148.513 166.363 151.468 171.258 153.508M156.758 182.74C163.924 180.084 181.258 175.771 181.258 165.771C181.258 160.606 176.488 155.687 171.258 153.508M171.258 153.508L220.758 150.771" stroke="#DA5B00" stroke-width="5"/>
<path d="M127.5 67.2712C130.833 57.4378 144 39.5712 170 46.7712L184.5 71.7712C230 46.1045 340.9 -4.12882 420.5 0.271184C520 5.77118 569 0.271184 572.5 0.271184C576 0.271184 526 89.7712 455.5 100.271C385 110.771 365.5 116.271 242.5 74.7712C230.068 70.1265 205.23 67.3853 189.407 85.2712C195.081 101.735 204.777 132.022 209 151.771H221.5C222.333 154.938 225.6 162.571 232 167.771C229.667 167.105 224.8 168.371 224 178.771L196.5 183.271L166 180.771C177 175.771 194 163.471 174 154.271L191.029 151.771C184.538 135.119 147.092 89.7491 127.5 67.2712Z" fill="#5BAC46"/>
</svg>
