<svg width="594" height="594" viewBox="0 0 594 594" fill="none" xmlns="http://www.w3.org/2000/svg">
<g clip-path="url(#clip0_92_35)">
<path d="M85.2848 543.171C84.7861 532.706 81.2949 522.74 82.7911 511.777C85.2848 509.285 84.2873 505.299 85.7836 502.309C87.7785 498.82 87.7785 495.83 85.2848 492.342C82.7911 488.854 79.2999 490.349 76.3075 490.847C61.3453 492.841 47.3805 491.346 32.917 487.857C30.4233 487.359 28.4284 485.864 25.4359 485.864C24.4385 485.864 22.9422 485.864 22.4435 487.359C21.9448 488.854 22.4435 490.349 23.9397 490.847C26.9322 491.346 26.9322 493.339 27.4309 495.83C19.9498 492.841 14.4636 487.857 12.9674 479.386C12.4687 475.898 9.47624 472.908 7.48128 469.918C-1.99479 451.48 -1.99479 432.544 3.99009 413.607C9.47624 395.668 21.9448 382.213 37.4057 372.745C55.8591 361.782 76.3075 360.785 96.7558 366.267C117.703 372.247 136.156 368.26 153.612 356.3C167.577 346.832 178.051 333.377 190.02 321.916C205.481 306.966 220.444 292.017 235.406 276.569C245.879 266.104 255.854 255.639 266.328 245.673C281.29 230.723 296.751 215.275 311.713 200.325C324.68 187.369 338.645 175.409 350.615 161.456C361.088 148.998 368.569 134.547 368.569 117.604C368.569 111.126 366.575 104.648 365.577 98.1694C361.587 79.7314 361.088 61.7918 370.066 43.8522C377.048 29.4009 387.023 17.9395 399.99 10.963C413.955 3.48815 429.416 -0.996753 445.874 1.99318C458.343 3.98647 469.814 6.9764 479.29 15.4479C484.776 22.4244 487.27 30.8959 489.265 39.3673C492.257 52.3237 492.756 65.7784 490.761 78.7348C489.763 86.2096 494.252 89.6979 501.234 87.2063C504.726 86.2096 508.217 85.213 511.708 84.2163C520.685 84.7147 529.164 86.2096 538.141 85.7113C547.119 87.2063 554.6 91.6912 561.582 96.6744C560.585 96.6744 559.587 97.1727 560.086 98.6677C567.567 115.112 570.061 131.557 566.569 149.497C565.073 156.473 563.577 163.45 560.086 169.429C551.607 183.382 540.136 194.844 524.675 201.322C507.718 208.797 490.761 209.794 473.804 204.81C459.34 200.824 446.872 202.817 434.403 210.292C412.459 223.747 396.499 244.178 378.544 261.619C365.078 274.077 352.61 287.532 339.643 300.488C327.174 312.946 314.705 325.404 302.237 337.862C288.272 351.815 274.307 365.768 260.841 379.721C245.381 395.668 228.922 409.621 214.957 427.062C205.98 438.025 199.995 449.985 200.993 464.934C201.491 471.413 203.486 477.891 204.983 483.871C208.474 500.814 205.481 517.258 197.501 532.208C189.522 546.659 178.051 558.121 161.592 564.599C147.129 570.579 132.665 572.572 117.204 569.582C109.723 568.087 103.239 563.602 95.2596 563.104M26.4334 466.928C29.4259 458.955 30.9221 451.48 34.4133 445.002C44.8868 426.564 59.849 413.607 81.7936 411.116C89.2747 410.119 97.2546 409.621 104.237 411.614C116.705 415.601 129.673 415.601 142.141 413.109C162.59 409.621 179.048 399.156 193.512 384.705C253.36 324.906 312.711 265.107 372.559 205.807C389.018 189.362 404.978 173.416 411.461 150.493C413.955 141.025 415.451 131.557 414.952 122.089C414.454 114.116 411.96 106.143 410.962 98.1694C409.466 85.7113 410.962 73.7516 416.947 62.2902C424.428 48.3371 434.902 36.8757 450.862 31.8925C456.348 29.8992 461.335 27.9059 467.819 25.9126C447.371 14.4512 427.92 14.9496 407.97 25.4143C400.988 28.9026 395.003 33.8858 391.512 40.364C384.529 52.3237 379.542 64.7818 381.038 79.2331C381.537 84.2163 383.033 89.1996 384.03 94.1828C385.527 101.159 386.524 108.634 387.023 116.109C387.522 125.577 384.529 134.547 381.537 143.517C378.544 151.988 375.053 159.961 369.068 166.938C358.096 179.396 346.126 190.857 334.156 202.319C318.695 217.767 303.234 233.713 287.773 249.161C277.799 259.127 267.824 268.596 257.849 278.562C246.378 290.023 235.406 301.485 223.935 312.946C212.962 323.909 201.491 334.872 190.519 345.835C176.554 359.789 163.587 373.742 143.637 380.718C125.683 386.698 109.224 386.698 91.2697 382.213C81.2949 379.721 70.8213 379.721 61.3453 381.715C48.8767 384.705 37.9045 391.183 29.4259 402.146C18.9523 415.601 15.9599 431.049 18.4536 447.493C19.9498 454.47 21.446 460.948 26.4334 466.928Z" fill="#F4DFC6"/>
<path d="M97.2545 564.599C97.2545 564.101 96.7558 564.101 96.7558 563.602C96.257 563.104 96.257 562.606 95.7583 562.107C95.7583 561.609 95.7583 561.609 95.7583 561.111C103.738 561.609 110.222 566.094 117.703 567.589C133.164 570.579 147.627 568.586 162.091 562.606C178.05 556.127 190.02 545.164 198 530.215C205.98 515.265 208.972 499.319 205.481 481.877C203.985 475.399 201.99 469.419 201.491 462.941C199.995 447.992 206.479 436.032 215.456 425.069C228.922 407.627 245.879 393.674 261.34 377.728C274.806 363.775 288.771 349.822 302.736 335.869C315.204 323.411 327.673 310.953 340.141 298.495C353.108 285.539 365.577 272.582 379.043 259.626C397.496 242.185 412.957 221.753 434.902 208.299C447.37 200.824 459.839 198.83 474.302 202.817C491.758 207.8 508.716 206.804 525.174 199.329C540.635 192.352 552.106 181.389 560.585 167.436C565.073 160.46 566.569 151.49 568.066 143.517C571.557 127.57 568.066 111.624 561.083 96.6744C560.585 95.1795 561.083 94.6812 562.081 94.6812C569.562 99.6644 576.544 104.648 581.033 112.621C581.532 114.116 582.03 115.611 582.529 117.106C591.008 130.062 594.499 144.513 593.501 159.961C593.501 162.951 593.501 166.44 593.501 169.429C593.003 172.918 592.504 175.409 591.008 178.898C589.013 185.874 584.524 191.356 581.532 198.332L581.033 198.83C575.048 204.81 569.063 210.79 563.078 216.77C563.078 216.77 563.078 216.77 562.579 216.77C560.585 217.767 559.587 217.767 558.091 218.763C539.637 230.225 519.688 232.716 498.741 227.235C473.804 220.258 451.36 225.242 432.408 243.181C401.486 275.572 370.564 307.465 338.645 338.859C321.189 355.802 303.733 373.742 286.776 391.183C274.307 403.641 260.841 415.102 249.869 428.557C249.37 428.557 249.37 429.055 249.37 429.055C248.373 429.554 247.375 430.052 246.877 430.55C228.922 448.988 221.441 470.914 228.423 496.329C232.413 510.282 233.411 523.737 229.421 537.69C227.426 546.659 222.937 554.134 218.947 562.107C213.96 569.582 207.476 576.06 199.496 581.044C198 581.044 197.003 582.04 196.005 582.539C169.572 597.488 143.139 596.99 117.204 581.542C112.217 578.552 108.227 573.569 102.741 571.077" fill="#DFAF6E"/>
<path d="M490.262 19.4346C492.756 21.4279 495.25 23.9195 496.247 27.4078C499.239 32.391 502.731 37.8725 505.723 42.8557C505.723 43.3541 505.723 43.8524 505.723 44.3507C510.711 56.8088 512.705 70.2635 512.207 83.7182C508.716 84.7148 505.224 85.7114 501.733 86.7081C494.751 89.1997 489.763 85.7114 491.26 78.2366C493.255 64.7819 492.257 51.8255 489.763 38.8692C487.768 30.3977 485.275 21.9262 479.789 14.9497" fill="#DFAF6E"/>
<path d="M22.9421 487.359C23.4408 485.864 24.9371 485.864 25.9346 485.864C28.4283 485.864 30.922 487.359 33.4157 487.858C47.8791 491.346 62.3426 492.841 76.8061 490.847C79.7985 490.349 83.2897 489.353 85.7834 492.342C88.2771 495.831 88.2771 498.821 86.2822 502.309C84.7859 505.299 85.2847 508.787 83.2897 511.777C78.8011 511.777 74.8111 511.777 70.3225 511.777L60.3477 510.78C54.3628 509.784 48.8766 508.289 42.393 504.801C37.9043 501.312 33.4157 497.824 27.9295 495.332L22.9421 492.841C21.9446 490.847 22.4434 489.353 22.9421 487.359Z" fill="#DFAF6E"/>
<path d="M563.577 218.265C569.562 212.285 575.547 206.305 581.532 200.325L563.577 218.265Z" fill="#F4DFC6"/>
<path d="M26.4334 466.928C21.446 460.948 19.451 454.47 18.4535 447.493C15.9598 431.049 18.9523 415.601 29.4258 402.146C37.4057 391.183 48.378 384.705 61.3452 381.715C70.8213 379.722 81.2948 379.722 91.2697 382.213C108.726 386.698 125.184 386.698 143.637 380.718C163.587 373.742 176.554 359.789 190.519 345.836C201.491 334.873 212.962 323.91 223.935 312.946C235.406 301.485 246.378 290.024 257.849 278.562C267.824 268.596 277.799 259.128 287.773 249.161C303.234 233.713 318.695 217.767 334.156 202.319C346.126 190.858 358.096 179.396 369.068 166.938C375.053 159.962 378.544 151.988 381.537 143.517C385.028 134.547 387.522 125.577 387.023 116.109C386.524 108.634 386.025 101.658 384.03 94.183C383.033 89.1998 381.537 84.2166 381.038 79.2334C379.542 64.782 384.529 52.324 391.511 40.3642C395.003 33.886 401.486 29.4011 407.97 25.4146C427.421 14.9498 447.37 14.4515 467.819 25.9129C461.335 28.4045 456.348 30.3978 450.862 31.8927C435.401 37.3743 424.428 48.3374 416.947 62.2904C410.962 73.2535 409.466 85.7115 410.962 98.1696C411.96 106.143 414.454 113.618 414.952 122.089C415.95 132.056 413.955 141.524 411.461 150.493C404.977 173.416 389.018 189.363 372.559 205.807C312.71 265.108 253.36 324.906 193.511 384.705C179.048 399.156 162.091 409.621 142.141 413.109C129.673 415.102 116.705 415.601 104.237 411.614C96.7558 409.123 89.2747 410.119 81.7936 411.116C60.3477 413.608 44.8868 426.564 34.4132 445.002C30.9221 451.48 29.4258 458.955 26.4334 466.928Z" fill="white"/>
</g>
<defs>
<clipPath id="clip0_92_35">
<rect width="594" height="594" fill="white"/>
</clipPath>
</defs>
</svg>
