<svg width="233" height="330" viewBox="0 0 233 330" fill="none" xmlns="http://www.w3.org/2000/svg">
<path fill-rule="evenodd" clip-rule="evenodd" d="M229.5 105C232.667 102.5 236.4 95.4 226 87C213 76.5 129.5 0 8.5 0C6 0.166667 1 2.6 1 11C1 12.9552 0.963883 25.5486 0.904258 45C38.4362 42.5387 131.55 56.2544 203.75 130.808L229.5 105ZM96 48C83.2 38.8 43.6667 34.5 25.5 33.5C16.7 29.1 16 21.6522 21.5 19.5C39.9 12.3 77.1667 23.1667 93.5 29.5C99.5 31.8265 109.9 32 109.5 42C109.1 52 100.333 50.1667 96 48Z" fill="#F29D20"/>
<path d="M25.5 33.5C43.6667 34.5 83.2 38.8 96 48C100.333 50.1667 109.1 52 109.5 42C109.9 32 99.5 31.8265 93.5 29.5C77.1667 23.1667 39.9 12.3 21.5 19.5C16 21.6522 16.7 29.1 25.5 33.5Z" fill="#F9B418"/>
<path fill-rule="evenodd" clip-rule="evenodd" d="M0 325.5C0.333333 328.338 2.3 332.712 7.5 327.5L14.9831 320C13.6554 317 12.5 310 18.5 306C24.5 302 29.3333 302.965 31 303.947L88 246.819C87.3333 241.879 87.7 230.8 94.5 226C101.3 221.2 109.333 221.509 112.5 222.264L129.725 205C121.483 195.833 109.3 173 126.5 155C143.7 137 168 148.577 178 156.616L203.75 130.808C131.55 56.2544 38.4362 42.5387 0.904258 45L0.885794 51C4.7572 51.6667 12.4 55.8 12 67C11.6 78.2 4.35289 83.6667 0.779339 85C0.663053 121.771 0.514693 167.782 0.369394 212.5C7.46491 200.1 22.0796 197.667 28.5 198C64.1 198.8 65.5 238.65 58 249C33 283.5 8.50037 262 0.250556 249C0.158283 277.285 0.0714779 303.771 0 325.5ZM170 123.5C161.6 123.9 159.833 116 160 112C160 103 148.963 107 150 115.5C152.5 136 167 132.5 168.5 133C170 133.5 181 131 180.5 125C180.1 120.2 173.333 122 170 123.5ZM127 123H118.5L118 129C116.4 133.8 112 132.333 110 131C108.5 129.833 103.6 126.6 96 123C88.4 119.4 88.5 116.5 89.5 115.5L95 109.5C93 108.833 89.9 105.2 93.5 96C97.1 86.8 111.333 89.1667 118 91.5C122.667 94.6667 132.1 102.9 132.5 110.5C132.9 118.1 129 122 127 123ZM36.5 154.5C31.7 151.3 29.1667 155.833 28.5 158.5C27.6787 160.5 26.1578 159.667 25.5 159C21.9 153 17.6667 156.5 16 159C13.8333 161.833 10.9 170.2 16.5 181C22.1 191.8 35.1667 190.167 41 188C43.5 187.071 45.9 181.9 43.5 179.5C41.1 177.1 41.8333 176.167 42.5 176C50.1 175.2 49.3333 170.667 48 168.5C46.1667 165.167 41.3 157.7 36.5 154.5ZM87 179.5C77 177.5 78 186.6 81 189C83.5 191 88 195.2 88 198C88 200.8 83.3333 205.5 81 207.5C77.1667 211.5 76 218.828 84 218C98.5 216.5 99.5 202.5 99.5 199.5C99.5 196.5 99.5 182 87 179.5ZM68.5 77.5C57.3 63.9 37.1667 68.1667 28.5 72C23.8333 73.8333 14 80.3 12 91.5C9.5 105.5 12 118.5 28.5 131C45 143.5 68.5 131 72.5 121.5C76.5 112 82.5 94.5 68.5 77.5Z" fill="#FFC22F"/>
<path d="M118.5 123H127C129 122 132.9 118.1 132.5 110.5C132.1 102.9 122.667 94.6667 118 91.5C111.333 89.1667 97.1 86.8 93.5 96C89.9 105.2 93 108.833 95 109.5L89.5 115.5C88.5 116.5 88.4 119.4 96 123C103.6 126.6 108.5 129.833 110 131C112 132.333 116.4 133.8 118 129L118.5 123Z" fill="#FEE9B2"/>
<path d="M28.5 158.5C29.1667 155.833 31.7 151.3 36.5 154.5C41.3 157.7 46.1667 165.167 48 168.5C49.3333 170.667 50.1 175.2 42.5 176C41.8333 176.167 41.1 177.1 43.5 179.5C45.9 181.9 43.5 187.071 41 188C35.1667 190.167 22.1 191.8 16.5 181C10.9 170.2 13.8333 161.833 16 159C17.6667 156.5 21.9 153 25.5 159C26.1578 159.667 27.6787 160.5 28.5 158.5Z" fill="#FEE9B2"/>
<path d="M81 189C78 186.6 77 177.5 87 179.5C99.5 182 99.5 196.5 99.5 199.5C99.5 202.5 98.5 216.5 84 218C76 218.828 77.1667 211.5 81 207.5C83.3333 205.5 88 200.8 88 198C88 195.2 83.5 191 81 189Z" fill="#00B63E"/>
<path d="M160 112C159.833 116 161.6 123.9 170 123.5C173.333 122 180.1 120.2 180.5 125C181 131 170 133.5 168.5 133C167 132.5 152.5 136 150 115.5C148.963 107 160 103 160 112Z" fill="#00B63E"/>
<path d="M0.779339 85C4.35289 83.6667 11.6 78.2 12 67C12.4 55.8 4.7572 51.6667 0.885794 51C0.854976 60.978 0.819025 72.4509 0.779339 85Z" fill="#00B63E"/>
<path d="M18.5 306C12.5 310 13.6554 317 14.9831 320L31 303.947C29.3333 302.965 24.5 302 18.5 306Z" fill="#00B63E"/>
<path d="M94.5 226C87.7 230.8 87.3333 241.879 88 246.819L112.5 222.264C109.333 221.509 101.3 221.2 94.5 226Z" fill="#FEE9B2"/>
<path d="M126.5 155C109.3 173 121.483 195.833 129.725 205L178 156.616C168 148.577 143.7 137 126.5 155Z" fill="#E34041"/>
<path d="M28.5 72C37.1667 68.1667 57.3 63.9 68.5 77.5C82.5 94.5 76.5 112 72.5 121.5C68.5 131 45 143.5 28.5 131C12 118.5 9.5 105.5 12 91.5C14 80.3 23.8333 73.8333 28.5 72Z" fill="#E34041"/>
<path d="M0.250556 249C8.50037 262 33 283.5 58 249C65.5 238.65 64.1 198.8 28.5 198C22.0796 197.667 7.46491 200.1 0.369394 212.5L0.250556 249Z" fill="#E34041"/>
</svg>
