<svg width="408" height="190" viewBox="0 0 408 190" fill="none" xmlns="http://www.w3.org/2000/svg">
<path d="M86.9206 53.1452C92.4067 54.9224 105.419 57.4104 113.579 53.1452C114.514 52.6564 115.279 52.1709 115.897 51.6924C115.897 49.4175 113.115 47.2315 111.724 46.423C103.194 41.0451 91.14 43.7186 86.1796 45.7275C85.5036 46.3663 84.9788 47.0004 84.6025 47.582C82.748 49.5858 85.3752 52.1257 86.9206 53.1452Z" fill="#FFF0E2"/>
<path fill-rule="evenodd" clip-rule="evenodd" d="M109.406 35.5282C84.7416 33.4883 72.703 41.4778 69.7667 45.7275C68.5772 48.5912 68.6463 51.0492 69.5674 53.1452C72.5236 59.8718 84.2554 62.8695 91.3249 63.5764C118.771 66.7289 130.114 58.8631 132.355 54.5361C134.982 49.0501 134.07 37.5681 109.406 35.5282ZM113.579 53.1452C105.419 57.4104 92.4067 54.9224 86.9206 53.1452C85.3752 52.1257 82.748 49.5858 84.6025 47.582C84.9788 47.0004 85.5036 46.3663 86.1796 45.7275C90.0843 42.0382 99.0354 38.1931 113.579 43.4095C116.589 44.7093 120.665 47.9958 115.897 51.6924C115.279 52.1709 114.514 52.6564 113.579 53.1452Z" fill="#FFF0E2"/>
<path fill-rule="evenodd" clip-rule="evenodd" d="M403.108 27.8787C398.78 18.0657 380.993 -1.23577 344.46 0.0623257C298.794 1.68495 307.834 -2.25572 192.857 14.6659C177.171 8.32996 134.905 -2.20936 91.3249 6.32099C36.8499 16.9839 1.15123 36.6873 1.15123 57.5495C0.968167 58.831 0.785701 60.3918 0.62178 62.1856C0.310303 65.7626 2.66534 70.9945 9.26465 77.4456C26.7564 94.5445 74.0655 120.209 180.571 146.33C222.838 153.825 322.855 155.046 384.795 99.9695C388.161 97.1106 397.384 84.6242 407.346 57.5495C406.626 48.5979 405.275 38.7163 403.108 27.8787ZM115.897 10.9571C126.251 9.56624 154.377 10.1689 184.048 23.7062C191.157 25.8697 209.779 28.8986 227.397 23.7062C245.014 18.5138 312.779 13.0433 344.46 10.9571C362.696 10.5707 398.101 17.8184 393.835 49.9C389.57 81.9816 348.014 108.701 327.77 118.05C306.289 128.327 246.127 145.264 177.326 130.799C91.3249 112.719 31.1997 83.2797 25.4913 76.5574C16.8717 69.1391 7.54155 51.4107 32.2331 35.5282C34.5458 34.0406 37.157 32.5692 40.0952 31.1239C41.727 30.3213 43.3502 29.5487 44.9632 28.8051C77.2621 13.915 105.446 10.6627 115.897 10.9571Z" fill="#FFF0E2"/>
<path d="M384.795 99.9695C322.855 155.046 222.838 153.825 180.571 146.33C74.0655 120.209 26.7564 94.5445 9.26465 77.4456C6.32841 89.3578 16.4507 118.05 80.4299 137.522C160.404 161.861 132.819 165.106 227.397 173.683C303.059 180.544 371.736 142.853 396.617 123.15C402.176 116.529 410.381 95.3152 407.346 57.5495C397.384 84.6242 388.161 97.1106 384.795 99.9695Z" fill="#FFF0E2"/>
<path d="M113.579 43.4095C99.0354 38.1931 90.0843 42.0382 86.1796 45.7275C91.14 43.7186 103.194 41.0451 111.724 46.423C113.115 47.2315 115.897 49.4175 115.897 51.6924C120.665 47.9958 116.589 44.7093 113.579 43.4095Z" fill="#FED9BB"/>
<path d="M3.93294 111.096C9.3109 131.866 116.051 169.201 168.749 185.273C208.156 197.292 356.004 189.724 396.617 123.15C371.736 142.853 303.059 180.544 227.397 173.683C132.819 165.106 160.404 161.861 80.4299 137.522C16.4507 118.05 6.32841 89.3578 9.26465 77.4456C2.66534 70.9945 0.310303 65.7626 0.62178 62.1856C-0.390502 73.2628 -0.69553 93.221 3.93294 111.096Z" fill="#FED9BB"/>
<path fill-rule="evenodd" clip-rule="evenodd" d="M44.9632 28.8051C43.3502 29.5487 41.727 30.3213 40.0952 31.1239C37.157 32.5692 34.5458 34.0406 32.2331 35.5282C19.4529 58.894 56.412 73.2089 76.4892 77.4456C79.0522 78.685 85.0204 81.1781 95.0339 84.9129C106.69 89.2603 123.827 95.2901 147.454 102.983C153.096 104.82 159.108 106.752 165.504 108.778C221.694 126.58 267.731 122.377 283.726 118.05C315.948 109.333 318.497 104.992 318.497 99.9695C318.497 78.4118 289.521 70.7623 248.955 66.8216C208.388 62.881 184.048 46.423 157.159 31.1239C135.647 18.8847 73.3984 24.4784 44.9632 28.8051ZM69.7667 45.7275C72.703 41.4778 84.7416 33.4883 109.406 35.5282C134.07 37.5681 134.982 49.0501 132.355 54.5361C133.468 59.3576 128.337 62.5719 125.633 63.5764C96.6565 71.2259 85.5297 66.5898 76.4892 63.5764C69.2567 61.1656 68.8611 55.6178 69.5674 53.1452C68.6463 51.0492 68.5772 48.5912 69.7667 45.7275Z" fill="#DB4F52"/>
<path d="M184.048 23.7062C154.377 10.1689 126.251 9.56624 115.897 10.9571C105.446 10.6627 77.2621 13.915 44.9632 28.8051C73.3984 24.4784 135.647 18.8847 157.159 31.1239C184.048 46.423 208.388 62.881 248.955 66.8216C289.521 70.7623 318.497 78.4118 318.497 99.9695C318.497 104.992 315.948 109.333 283.726 118.05C267.731 122.377 221.694 126.58 165.504 108.778C159.108 106.752 153.096 104.82 147.454 102.983L169.908 112.255C207.368 128.203 247.178 128.327 262.4 126.395C308.53 118.05 329.933 104.296 335.419 99.9695C351.182 88.8429 396.617 51.5226 361.846 45.2639C327.074 39.0052 292.303 57.5495 286.971 59.6357C281.64 61.7219 224.151 69.1397 200.507 49.9C181.591 34.5083 193.707 30.9694 202.129 31.1239C224.939 33.7201 239.451 33.5965 243.855 33.2102C244.628 32.5148 258.227 29.1768 306.443 21.3882C366.714 11.6525 373.204 20.2292 384.795 33.2102C396.385 46.1911 372.045 78.9726 368.568 81.8888C332.638 112.023 327.229 107.851 308.53 118.05C263.559 139.376 206.997 132.886 190.307 130.799C173.617 128.713 113.579 100.201 104.538 96.7242C95.4975 93.2472 51.9174 82.8161 38.2407 77.4456C27.6637 73.2923 27.7881 63.1007 29.274 58.0524C29.3205 57.8757 29.3735 57.7079 29.432 57.5495C29.378 57.7108 29.3252 57.8785 29.274 58.0524C28.2774 61.8421 30.2981 69.6872 45.8904 74.4711C62.2098 79.4781 85.4524 83.5186 95.0339 84.9129C85.0204 81.1781 79.0522 78.685 76.4892 77.4456C56.412 73.2089 19.4529 58.894 32.2331 35.5282C7.54155 51.4107 16.8717 69.1391 25.4913 76.5574C31.1997 83.2797 91.3249 112.719 177.326 130.799C246.127 145.264 306.289 128.327 327.77 118.05C348.014 108.701 389.57 81.9816 393.835 49.9C398.101 17.8184 362.696 10.5707 344.46 10.9571C312.779 13.0433 245.014 18.5138 227.397 23.7062C209.779 28.8986 191.157 25.8697 184.048 23.7062Z" fill="#DF5B57"/>
<path d="M38.2407 77.4456C51.9174 82.8161 95.4975 93.2472 104.538 96.7242C113.579 100.201 173.617 128.713 190.307 130.799C206.997 132.886 263.559 139.376 308.53 118.05C327.229 107.851 332.638 112.023 368.568 81.8888C372.045 78.9726 396.385 46.1911 384.795 33.2102C373.204 20.2292 366.714 11.6525 306.443 21.3882C258.227 29.1768 244.628 32.5148 243.855 33.2102C239.451 33.5965 224.939 33.7201 202.129 31.1239C193.707 30.9694 181.591 34.5083 200.507 49.9C224.151 69.1397 281.64 61.7219 286.971 59.6357C292.303 57.5495 327.074 39.0052 361.846 45.2639C396.617 51.5226 351.182 88.8429 335.419 99.9695C329.933 104.296 308.53 118.05 262.4 126.395C247.178 128.327 207.368 128.203 169.908 112.255L147.454 102.983C123.827 95.2901 106.69 89.2603 95.0339 84.9129C85.4524 83.5186 62.2098 79.4781 45.8904 74.4711C30.2981 69.6872 28.2774 61.8421 29.274 58.0524C27.7881 63.1007 27.6637 73.2923 38.2407 77.4456Z" fill="#E96A64"/>
<path d="M132.355 54.5361C130.114 58.8631 118.771 66.7289 91.3249 63.5764C84.2554 62.8695 72.5236 59.8718 69.5674 53.1452C68.8611 55.6178 69.2567 61.1656 76.4892 63.5764C85.5297 66.5898 96.6565 71.2259 125.633 63.5764C128.337 62.5719 133.468 59.3576 132.355 54.5361Z" fill="#C93436"/>
</svg>
