<svg width="227" height="199" viewBox="0 0 227 199" fill="none" xmlns="http://www.w3.org/2000/svg">
<path fill-rule="evenodd" clip-rule="evenodd" d="M106.485 27H132.485L133.735 19.75L134.985 12.5L136.485 0H103.985L105.142 12.5L105.813 19.75L106.485 27ZM119.985 6.5C113.485 6.5 114.485 15 119.985 15C125.485 15 126.485 6.5 119.985 6.5Z" fill="#7F84B0"/>
<path d="M209.485 30.5C210.151 28.6667 211.085 23.8 209.485 19C205.485 20.6 195.965 22.3333 191.705 23C191.274 23.9265 174.378 25.142 158.485 25.9889C160.151 27.9699 163.385 33.3386 162.985 38.9659C166.177 38.9167 169.178 38.8158 171.997 38.6712C190.808 37.7064 201.485 34.8008 206.484 32.4114C207.955 31.7088 208.934 31.0508 209.485 30.5Z" fill="#7F84B0"/>
<path d="M209.485 19C207.885 14.2 159.151 12.6667 134.985 12.5L133.735 19.75C136.219 19.821 139.2 19.9128 142.485 20.0222C158.48 20.5548 181.688 21.5045 189.985 22.5C191.257 22.6527 191.789 22.821 191.705 23C195.965 22.3333 205.485 20.6 209.485 19Z" fill="#7F84B0"/>
<path d="M105.813 19.75L105.142 12.5C97.1031 12.5 89.7243 12.6112 82.9846 12.8099L74.9846 20.9755C81.8185 20.6354 88.5318 20.3393 93.9846 20.1234C99.8852 19.8897 104.31 19.75 105.813 19.75Z" fill="#C3C4E0"/>
<path d="M189.985 22.5C181.688 21.5045 158.48 20.5548 142.485 20.0222V26.7311C147.139 26.5524 152.747 26.2947 158.485 25.9889C174.378 25.142 191.274 23.9265 191.705 23C191.789 22.821 191.257 22.6527 189.985 22.5Z" fill="#B3B3D8"/>
<path d="M93.9846 39H158.485C160.025 39 161.525 38.9884 162.985 38.9659C163.385 33.3386 160.151 27.9699 158.485 25.9889C152.747 26.2947 147.139 26.5524 142.485 26.7311C138.049 26.9015 134.478 27 132.485 27H106.485C102.867 26.9132 98.5947 26.8022 93.9846 26.6719C92.8372 26.6395 91.6689 26.6058 90.4846 26.571L81.4846 38.5518C86.0978 38.7649 90.3733 38.9119 93.9846 39Z" fill="#C3C4E0"/>
<path d="M133.735 19.75L132.485 27C134.478 27 138.049 26.9015 142.485 26.7311V20.0222C139.2 19.9128 136.219 19.821 133.735 19.75Z" fill="#C3C4E0"/>
<path d="M106.485 27L105.813 19.75C104.31 19.75 99.8852 19.8897 93.9846 20.1234V26.6719C98.5947 26.8022 102.867 26.9132 106.485 27Z" fill="#C3C4E0"/>
<path d="M93.9846 26.6719V20.1234C88.5318 20.3393 81.8185 20.6354 74.9846 20.9755C56.4058 21.9002 36.9363 23.1506 39.4846 24C42.304 24.9398 69.0226 25.9409 90.4846 26.571C91.6689 26.6058 92.8372 26.6395 93.9846 26.6719Z" fill="#C3C4E0"/>
<path d="M27.9846 19C26.4846 20.5 24.3846 24.9 27.9846 30.5C28.4794 31.2697 29.6978 31.9789 31.4846 32.6311C34.9184 33.8844 40.4517 34.9269 46.9845 35.7825C56.4974 37.0285 68.1297 37.8784 78.4845 38.406C79.4978 38.4577 80.4989 38.5062 81.4846 38.5518L90.4846 26.571C69.0226 25.9409 42.304 24.9398 39.4846 24C33.0846 23.33 29.1513 20.3875 27.9846 19Z" fill="#897FB0"/>
<path d="M39.4846 24C36.9363 23.1506 56.4058 21.9002 74.9846 20.9755L82.9846 12.8099C51.0268 13.7519 33.4392 16.6601 27.9846 19C29.1513 20.3875 33.0846 23.33 39.4846 24Z" fill="#897FB0"/>
<path d="M119.985 6.5C113.485 6.5 114.485 15 119.985 15C125.485 15 126.485 6.5 119.985 6.5Z" fill="#C3C4E0"/>
<path d="M6.4967 138.5C9.25987 143.046 15.503 149.966 24.9966 155.298C32.23 159.36 41.3504 162.501 52.2563 162.968C55.3156 163.099 58.2977 164.049 60.7392 165.897C72.3643 174.696 92.3386 188.142 101.997 188.5C112.797 188.9 103.497 184.667 97.4967 182.5L68.4966 165.5L131.997 176C134.663 175.667 138.897 174.2 134.497 171C130.159 167.845 67.4704 159.571 35.357 155.665C34.4521 155.555 33.6171 155.203 32.8993 154.641L19.4968 144.153L0.133822 129C0.786213 133.236 3.71473 136.581 6.4967 138.5Z" fill="#A31C22"/>
<path d="M97.4967 126C115.163 126.868 152.197 128.082 158.997 126C164.614 124.28 182.222 111.159 194.565 101.5C197.162 99.4672 199.526 97.5877 201.497 96C203.33 96 206.197 97.1 202.997 101.5C201.522 103.528 197.122 107.937 191.705 112.794C182.433 121.108 170.178 130.738 164.497 132C155.497 134 104.997 131 98.4967 129C93.2967 127.4 95.6634 126.333 97.4967 126Z" fill="#A31C22"/>
<path d="M17.6499 60.5C17.5528 65.1585 19.7998 72.6523 26.4966 81.1128C35.3732 92.3273 52.0679 105.24 81.4846 115.5C83.1593 115.333 86.0064 114.2 83.9967 111C83.3287 109.936 79.3255 107.838 73.5419 104.807C64.5463 100.092 51.2438 93.12 39.4846 84.2721C30.3719 77.4154 22.1861 69.4322 17.6499 60.5Z" fill="#A31C22"/>
<path d="M19.4968 113.5C52.4479 152.602 138.279 160.434 179.997 154.295C185.756 153.448 190.674 152.334 194.497 151C197.178 150.064 199.499 149.077 201.497 148.055C198.479 148.34 195.203 148.597 191.705 148.813C149.771 151.406 75.9049 148.235 31.4846 120.783C25.5888 117.139 20.2117 113.068 15.4968 108.526C16.7276 110.136 18.0591 111.794 19.4968 113.5Z" fill="#A31C22"/>
<path d="M74.9846 63C94.2856 65.8349 137.488 68.9978 179.997 63.721C189.97 62.483 199.905 60.7804 209.485 58.5C212.159 58.8333 216.707 60.7 213.497 65.5C209.485 71.5 83.4727 78 74.9846 70.5C68.1942 64.5 72.1553 63 74.9846 63Z" fill="#A31C22"/>
<path d="M31.4846 32.6311C29.6978 31.9789 28.4794 31.2697 27.9846 30.5C21.822 33.3333 10.6968 42.1 15.4968 54.5C16.2875 56.5427 16.9823 58.5419 17.6499 60.5C22.1861 69.4322 30.3719 77.4154 39.4846 84.2721C25.8751 56.0897 38.8139 40.2031 46.9845 35.7825C40.4517 34.9269 34.9184 33.8844 31.4846 32.6311Z" fill="#E61C29"/>
<path d="M17.6499 60.5C6.33511 63.1975 -8.95387 76.5307 15.4968 108.526C20.2117 113.068 25.5888 117.139 31.4846 120.783C11.0751 94.2093 19.6553 83.2639 26.4966 81.1128C19.7998 72.6523 17.5528 65.1585 17.6499 60.5Z" fill="#E61C29"/>
<path d="M24.9966 155.298C15.503 149.966 9.25987 143.046 6.4967 138.5C2.8711 143.229 3.77575 157.619 33.9966 178.794C24.7966 171.029 24.1632 159.895 24.9966 155.298Z" fill="#E61C29"/>
<path d="M25.9966 120.221C23.6527 118.091 21.4791 115.852 19.4968 113.5C18.0591 111.794 16.7276 110.136 15.4968 108.526C2.45536 116.088 -0.738057 123.339 0.133822 129L19.4968 144.153C11.4971 133.411 20.8301 123.535 25.9966 120.221Z" fill="#E61C29"/>
<path fill-rule="evenodd" clip-rule="evenodd" d="M93.9846 39H158.485C160.025 39 161.525 38.9884 162.985 38.9659C166.177 38.9167 169.178 38.8158 171.997 38.6712C176.497 42.4282 184.397 52.6978 179.997 63.721C137.488 68.9978 94.2856 65.8349 74.9846 63C72.1553 63 68.1942 64.5 74.9846 70.5C81.28 76.0626 152.223 73.924 190.093 70C188.763 73.0147 186.097 80.4897 186.497 84.2721C186.897 88.0544 192.042 97.3333 194.565 101.5C182.222 111.159 164.614 124.28 158.997 126C152.197 128.082 115.163 126.868 97.4967 126C95.6634 126.333 93.2967 127.4 98.4967 129C104.997 131 155.497 134 164.497 132C170.178 130.738 182.433 121.108 191.705 112.794C193.802 116.029 196.197 124.1 188.997 130.5C193.136 134.88 199.472 144.676 191.705 148.813C149.771 151.406 75.9049 148.235 31.4846 120.783C11.0751 94.2093 19.6553 83.2639 26.4966 81.1128C35.3732 92.3273 52.0679 105.24 81.4846 115.5C83.1593 115.333 86.0064 114.2 83.9967 111C83.3287 109.936 79.3255 107.838 73.5419 104.807C64.5463 100.092 51.2438 93.12 39.4846 84.2721C25.8751 56.0897 38.8139 40.2031 46.9845 35.7825C56.4974 37.0285 68.1297 37.8784 78.4845 38.406C79.4978 38.4577 80.4989 38.5062 81.4846 38.5518C86.0978 38.7649 90.3733 38.9119 93.9846 39Z" fill="#EF464D"/>
<path d="M209.485 30.5C208.934 31.0508 207.955 31.7088 206.484 32.4114C201.485 34.8008 190.808 37.7064 171.997 38.6712C176.497 42.4282 184.397 52.6978 179.997 63.721C189.97 62.483 199.905 60.7804 209.485 58.5C212.159 58.8333 216.707 60.7 213.497 65.5C212.46 67.05 203.283 68.6333 190.093 70C188.763 73.0147 186.097 80.4897 186.497 84.2721C186.897 88.0544 192.042 97.3333 194.565 101.5C197.162 99.4672 199.526 97.5877 201.497 96C203.33 96 206.197 97.1 202.997 101.5C201.522 103.528 197.122 107.937 191.705 112.794C193.802 116.029 196.197 124.1 188.997 130.5C193.136 134.88 199.472 144.676 191.705 148.813C195.203 148.597 198.479 148.34 201.497 148.055C218.281 139.465 212.3 128.343 206.484 123.397C211.363 117.967 216.631 111.21 219.497 105C224.297 94.6 217.497 85.3333 213.497 82C213.997 80.5 216.897 75.1 224.497 65.5C232.097 55.9 217.655 38.1667 209.485 30.5Z" fill="#E61C29"/>
<path fill-rule="evenodd" clip-rule="evenodd" d="M158.997 192.039C174.597 178.87 179.497 161.39 179.997 154.295C140.788 160.064 62.615 153.494 25.9966 120.221C20.8301 123.535 11.4971 133.411 19.4968 144.153L32.8993 154.641C33.6171 155.203 34.4521 155.555 35.357 155.665C67.4704 159.571 130.159 167.845 134.497 171C138.897 174.2 134.663 175.667 131.997 176L68.4966 165.5L97.4967 182.5C103.497 184.667 112.797 188.9 101.997 188.5C92.3386 188.142 72.3643 174.696 60.7392 165.897C58.2977 164.049 55.3156 163.099 52.2563 162.968C41.3504 162.501 32.23 159.36 24.9966 155.298C24.1632 159.895 24.7966 171.029 33.9966 178.794C35.7281 180.007 37.5559 181.243 39.4846 182.5C72.1296 203.78 123.364 201.099 158.997 192.039Z" fill="#EF464D"/>
<path d="M201.497 148.055C199.499 149.077 197.178 150.064 194.497 151C190.674 152.334 185.756 153.448 179.997 154.295C179.497 161.39 174.597 178.87 158.997 192.039C171.924 188.752 182.797 184.626 189.985 180.5C211.585 168.1 206.659 153.703 201.497 148.055Z" fill="#E61C29"/>
<path d="M153.56 122.597C138.716 123.516 107.642 124.95 102.095 123.341C96.5487 121.732 98.4719 119.749 100.127 118.959C115.226 118.974 146.396 118.755 150.286 117.749C153.028 118.037 157.521 119.409 153.56 122.597Z" fill="#FFF5FE"/>
<path d="M140.695 42.356C131.27 45.3779 84.6232 43.3839 62.4777 42.0091C62.0408 42.673 61.5653 44.2628 63.1582 45.3115C65.1494 46.6224 101.581 49.3181 106.558 48.9271L140.843 46.2334C142.292 43.5155 141.348 42.516 140.695 42.356Z" fill="#FFF5FE"/>
<path d="M147.237 42.6323C146.354 42.9762 145.044 44.2536 146.869 46.6121C152.026 47.3939 163.065 48.222 165.964 45.2795C166.355 44.3427 166.775 42.4354 165.328 42.3014C161.77 42.6407 153.17 43.1819 147.237 42.6323Z" fill="#FFF5FE"/>
<path d="M170.821 42.0805C169.625 42.517 167.884 43.8518 170.486 45.6985C171.627 45.196 173.292 43.769 170.821 42.0805Z" fill="#FFF5FE"/>
<path d="M161.474 115C160.18 115.554 157.982 117.162 159.534 119.157C161.474 121.652 162.582 120.266 162.859 119.989C163.136 119.712 165.907 116.663 161.474 115Z" fill="#FFF5FE"/>
</svg>
