<svg width="240" height="398" viewBox="0 0 240 398" fill="none" xmlns="http://www.w3.org/2000/svg">
<path fill-rule="evenodd" clip-rule="evenodd" d="M65.1385 231.151C61.9054 235.123 52.5573 250.607 41.0292 280.762L44.9088 297.946C52.5758 302.842 68.1313 313.134 69.0181 315.13C70.1266 317.624 74.2834 337.857 73.1749 338.966C72.0664 340.074 72.3435 349.22 74.5605 354.486L97.5613 373.056L109.754 375.143C114.927 375.637 125.606 375.911 126.936 373.056C122.317 372.317 112.747 370.284 111.417 368.067C111.08 367.505 110.807 366.944 110.587 366.404C109.94 364.815 109.754 363.422 109.754 362.801C126.659 362.986 161.797 361.083 167.118 351.992C172.439 342.901 173.03 342.846 172.66 343.954C178.757 342.384 194.276 338.189 207.577 333.977C209.425 334.069 212.177 335.473 208.409 340.351L219.216 330.096C221.803 316.608 227.53 288.911 229.747 286.028C232.518 282.425 231.409 277.159 229.747 274.942C228.416 273.168 222.172 263.671 219.216 259.144C213.951 264.41 203.032 274.942 201.481 274.942C199.541 274.942 176.54 295.452 174.6 295.729C172.66 296.006 169.335 294.897 170.998 290.463C172.66 286.028 197.601 237.802 201.481 232.536C203.612 229.644 210.569 218.484 216.753 208.424C219.575 203.833 222.236 199.471 224.204 196.229L198.432 172.393L187.348 190.685C183.451 192.216 177.026 195.145 170.443 198.944C163.916 202.712 157.233 207.336 152.708 212.304C150.583 213.69 146.334 215.186 146.334 210.087C146.334 204.987 157.604 173.409 163.238 158.258C170.351 151.514 185.629 135.642 189.842 126.107C200.074 115.021 221.05 92.294 223.096 90.0767C213.766 78.8979 195.107 55.6535 195.107 52.1059C195.107 49.9568 195.514 46.5465 195.958 43.514C163.344 46.3779 93.6816 51.3853 75.9461 48.5028C58.2105 45.6204 42.1376 46.0084 36.3182 46.5627L53.7766 51.8287C75.8537 54.046 122.391 57.8154 131.924 55.1546C132.571 55.3394 133.476 56.3741 131.924 59.0349L97.5613 60.4207C84.0749 61.6217 50.0632 61.9728 21.908 53.7689L11.6547 66.241L23.0165 98.9458C26.6645 102.594 32.2417 107.92 38.8122 113.806C50.7095 124.465 65.8635 136.964 78.7172 144.677C80.1028 146.525 84.9247 157.648 93.1274 187.36C93.4045 190.131 92.1852 193.235 85.091 183.479C77.9967 173.723 64.5842 152.253 58.7647 142.737L25.2334 122.227L61.813 167.127L67.3554 197.06C71.5122 198.446 80.5462 207.592 83.4283 233.091C89.802 233.737 103.159 235.696 105.598 238.357C108.036 241.017 134.88 297.114 147.997 324.83C146.611 326.216 140.958 327.325 129.43 320.673C117.902 314.021 103.75 296.653 98.1155 288.8L88.6935 268.044L76.2232 240.574C74.191 237.433 69.129 231.151 65.1385 231.151ZM145.78 59.8664C142.676 56.5404 144.487 54.4156 145.78 53.7689C154.869 53.7689 167.857 51.7364 173.215 50.7201C175.431 50.7201 175.062 53.6765 174.6 55.1546C170.61 60.0326 153.724 60.3283 145.78 59.8664ZM181.528 49.6115C179.773 50.4429 177.316 52.7156 181.528 55.1546C183.191 54.2308 185.519 51.8287 181.528 49.6115ZM128.044 77.0502C123.61 77.2719 92.2037 92.294 77.0545 99.7773C75.9461 102.66 79.3639 103.011 81.2113 102.826C98.1155 94.7884 126.382 83.4249 129.153 82.5934C131.924 81.7619 183.191 84.8107 185.685 83.4249C188.179 82.0391 187.07 80.099 185.685 79.2675C184.299 78.436 133.587 76.773 128.044 77.0502ZM138.298 93.6798C136.302 90.1321 139.683 89.9843 141.623 90.3538L172.383 100.886C174.6 103.547 170.351 104.027 167.949 103.935L138.298 93.6798ZM185.962 331.759C183.967 329.986 185.131 328.249 185.962 327.602C196.492 326.771 210.071 316.238 211.734 315.13C213.397 314.021 216.168 315.684 214.228 318.733C212.288 321.782 188.456 333.977 185.962 331.759ZM153.262 151.606C154.37 149.167 163.515 139.688 167.949 135.254C171.718 133.48 173.03 136.732 173.215 138.58L158.804 154.932C154.648 167.404 145.447 192.792 141.9 194.566C137.466 196.783 137.743 192.348 137.743 190.685C137.743 189.022 151.876 154.655 153.262 151.606ZM178.48 133.313C179.145 130.209 176.909 129.803 175.709 129.988C172.383 129.544 172.66 132.759 173.215 134.422C174.692 135.346 177.815 136.418 178.48 133.313ZM179.865 128.879C178.092 126.218 180.42 124.814 181.805 124.444C185.574 124.444 185.223 127.401 184.576 128.879C183.745 129.988 181.639 131.54 179.865 128.879ZM162.407 283.257C162.85 277.492 177.926 248.704 185.408 235.031C190.95 232.37 190.673 237.063 189.842 239.743C186.96 243.068 173.307 272.355 166.841 286.582C165.178 287.876 161.964 289.021 162.407 283.257ZM190.396 228.933C188.844 226.938 191.042 225.33 192.336 224.776C196.77 226.439 193.998 229.488 193.721 229.765C193.444 230.042 192.336 231.428 190.396 228.933Z" fill="#EF464D"/>
<path d="M41.0292 228.102C43.5232 236.694 46.5715 238.634 43.8004 243.9C41.0292 249.166 23.2936 291.848 20.5224 323.167C20.5224 324.738 21.7418 330.096 26.619 338.966C24.9563 341.368 22.1297 346.837 24.125 349.498C25.5552 351.405 28.8993 360.786 42.4148 369.488C49.4879 374.041 59.3467 378.409 73.1749 381.421C78.555 382.593 84.536 383.56 91.1876 384.253C91.7372 384.311 92.2914 384.366 92.8503 384.42C122.106 387.22 152.916 384.999 177.926 379.436C181.666 378.604 185.277 377.697 188.733 376.721C190.531 376.213 192.287 375.687 193.998 375.143C203.7 372.056 211.947 368.394 218.108 364.299C222.453 361.411 225.76 358.308 227.807 355.041C231.779 341.645 239.113 312.469 236.675 302.935C233.626 291.017 231.409 290.74 232.518 288.523C233.405 286.749 237.875 277.991 240 273.833L238.337 228.656C234.919 209.163 227.696 169.344 226.144 166.018C225.16 163.909 216.838 153.212 208.409 142.629C203.051 140.725 187.458 141.795 167.949 161.307C162.961 174.518 153.04 201.328 153.262 202.88C153.484 204.433 156.126 202.973 157.419 202.049L165.178 195.397C167.026 194.344 170.665 193.578 170.443 198.944C177.026 195.145 183.451 192.216 187.348 190.685L198.432 172.393L224.204 196.229C222.236 199.471 219.575 203.833 216.753 208.424C221.211 205.098 222.654 208.146 222.819 210.087L203.975 238.357C195.384 254.709 177.648 288.024 175.431 290.463C173.215 292.902 171.552 291.479 170.998 290.463C169.335 294.897 172.66 296.006 174.6 295.729C176.54 295.452 199.541 274.942 201.481 274.942C197.047 274.942 198.155 271.616 199.264 269.953C207.208 262.192 223.373 246.561 224.481 246.117C225.867 245.563 230.578 246.117 227.807 249.72C225.59 252.603 221.156 257.204 219.216 259.144C222.172 263.671 228.416 273.168 229.747 274.942C231.409 277.159 232.518 282.425 229.747 286.028C227.53 288.911 221.803 316.608 219.216 330.096L208.409 340.351C204.529 346.449 195.772 359.032 191.781 360.584C186.793 362.524 183.468 361.138 183.191 360.03C182.914 358.921 200.926 343.123 187.902 343.954C177.482 344.62 175.431 346.264 175.709 347.003C176.374 349.442 172.291 355.78 170.166 358.644C155.978 366.183 124.535 366.959 110.587 366.404C110.807 366.944 111.08 367.505 111.417 368.067C112.747 370.284 122.317 372.317 126.936 373.056C125.606 375.911 114.927 375.637 109.754 375.143L97.5613 373.056L74.5605 354.486C72.3435 349.22 72.0664 340.074 73.1749 338.966C72.1588 339.612 69.6832 340.407 67.9096 338.411C65.6927 335.917 66.8012 323.999 65.6927 319.564C64.5842 315.13 44.9088 304.598 42.969 301.272C41.4171 298.611 43.6156 297.946 44.9088 297.946L41.0292 280.762C52.5573 250.607 61.9054 235.123 65.1385 231.151C69.129 231.151 74.191 237.433 76.2232 240.574L88.6935 268.044C88.6935 266.74 89.6357 265.019 93.4045 268.567C98.1155 273.002 101.995 293.511 116.96 305.429C131.924 317.347 138.852 320.673 139.406 319.564C139.96 318.456 113.634 263.024 111.14 259.144C108.646 255.263 106.152 245.563 99.224 241.96C92.7579 241.313 79.6594 239.465 78.9944 237.248C78.163 234.477 73.452 209.532 69.8495 205.929C66.2469 202.326 60.7046 197.06 55.1622 197.06C50.7283 197.06 44.5567 204.266 42.0251 207.869C40.7392 216.606 40.0373 224.685 41.0292 228.102Z" fill="#E11F27"/>
<path d="M13.0404 32.1505V46.5627C8.51419 51.3668 -0.427492 61.5293 0.0158975 63.7466C0.459286 65.9639 8.88368 86.1041 13.0404 95.897C11.1006 98.9458 8.10755 106.485 11.6547 112.249C14.3801 116.679 27.5325 143.754 38.0888 165.741C44.057 175.072 58.2659 194.399 67.3554 197.06L61.813 167.127L25.2334 122.227L58.7647 142.737C64.5842 152.253 77.9967 173.723 85.091 183.479C83.7608 171.506 77.3316 154.47 74.2833 147.449C62.8291 139.319 39.3665 122.116 37.1495 118.347C34.9326 114.578 37.3343 113.749 38.8122 113.806C32.2417 107.92 26.6645 102.594 23.0165 98.9458L11.6547 66.241L21.908 53.7689C50.0632 61.9728 84.0749 61.6217 97.5613 60.4207C92.5732 60.6218 56.2707 56.5404 54.3308 55.1546C52.779 54.046 53.3147 52.4754 53.7766 51.8287L36.3182 46.5627C42.1376 46.0084 58.2105 45.6204 75.9461 48.5028C93.6816 51.3853 163.344 46.3779 195.958 43.514C196.246 41.5405 196.551 39.727 196.77 38.5251V35.7415C185.613 38.4101 173.959 40.3001 162.13 41.5605C115.092 46.5727 65.2888 41.6299 32.9928 36.1026C25.2395 34.7757 18.4952 33.4151 13.0404 32.1505Z" fill="#E61C29"/>
<path d="M83.4283 233.091C80.5462 207.592 71.5122 198.446 67.3554 197.06C58.2659 194.399 44.057 175.072 38.0888 165.741C41.2713 172.37 44.2178 178.536 46.5715 183.479C45.2244 189.519 43.3259 199.031 42.0251 207.869C44.5567 204.266 50.7283 197.06 55.1622 197.06C60.7046 197.06 66.2469 202.326 69.8495 205.929C73.452 209.532 78.163 234.477 78.9944 237.248C79.6594 239.465 92.7579 241.313 99.224 241.96C106.152 245.563 108.646 255.263 111.14 259.144C113.634 263.024 139.96 318.456 139.406 319.564C138.852 320.673 131.924 317.347 116.96 305.429C101.995 293.511 98.1155 273.002 93.4045 268.567C89.6357 265.019 88.6935 266.74 88.6935 268.044L98.1155 288.8C103.75 296.653 117.902 314.021 129.43 320.673C140.958 327.325 146.611 326.216 147.997 324.83C134.88 297.114 108.036 241.017 105.598 238.357C103.159 235.696 89.802 233.737 83.4283 233.091Z" fill="#A31C22"/>
<path d="M69.0181 315.13C68.1313 313.134 52.5758 302.842 44.9088 297.946C43.6156 297.946 41.4171 298.611 42.969 301.272C44.9088 304.598 64.5842 315.13 65.6927 319.564C66.8012 323.999 65.6927 335.917 67.9096 338.411C69.6832 340.407 72.1588 339.612 73.1749 338.966C74.2834 337.857 70.1266 317.624 69.0181 315.13Z" fill="#9D2022"/>
<path d="M185.408 235.031C177.926 248.704 162.85 277.492 162.407 283.257C161.964 289.021 165.178 287.876 166.841 286.582C173.307 272.355 186.96 243.068 189.842 239.743C190.673 237.063 190.95 232.37 185.408 235.031Z" fill="#FFF5FE"/>
<path d="M201.481 232.536C197.601 237.802 172.66 286.028 170.998 290.463C171.552 291.479 173.215 292.902 175.431 290.463C177.648 288.024 195.384 254.709 203.975 238.357L222.819 210.087C222.654 208.146 221.211 205.098 216.753 208.424C210.569 218.484 203.612 229.644 201.481 232.536Z" fill="#A31C22"/>
<path d="M201.481 274.942C203.032 274.942 213.951 264.41 219.216 259.144C221.156 257.204 225.59 252.603 227.807 249.72C230.578 246.117 225.867 245.563 224.481 246.117C223.373 246.561 207.208 262.192 199.264 269.953C198.155 271.616 197.047 274.942 201.481 274.942Z" fill="#A31C22"/>
<path d="M192.336 224.776C191.042 225.33 188.844 226.938 190.396 228.933C192.336 231.428 193.444 230.042 193.721 229.765C193.998 229.488 196.77 226.439 192.336 224.776Z" fill="#FFF5FE"/>
<path d="M195.107 126.107C205.453 115.575 226.144 93.4026 226.144 88.968C226.144 83.4249 198.987 59.312 198.987 54.6003V35.1992C198.25 35.3834 197.511 35.5642 196.77 35.7415V38.5251C196.551 39.727 196.246 41.5405 195.958 43.514C195.514 46.5465 195.107 49.9568 195.107 52.1059C195.107 55.6535 213.766 78.8979 223.096 90.0767C221.05 92.294 200.074 115.021 189.842 126.107C185.629 135.642 170.351 151.514 163.238 158.258C157.604 173.409 146.334 204.987 146.334 210.087C146.334 215.186 150.583 213.69 152.708 212.304C157.233 207.336 163.916 202.712 170.443 198.944C170.665 193.578 167.026 194.344 165.178 195.397L157.419 202.049C156.126 202.973 153.484 204.433 153.262 202.88C153.04 201.328 162.961 174.518 167.949 161.307C187.458 141.795 203.051 140.725 208.409 142.629C203.549 136.528 198.654 130.465 195.107 126.107Z" fill="#A31C22"/>
<path d="M167.118 351.992C161.797 361.083 126.659 362.986 109.754 362.801C109.754 363.422 109.94 364.815 110.587 366.404C124.535 366.959 155.978 366.183 170.166 358.644C172.291 355.78 176.374 349.442 175.709 347.003C175.431 346.264 177.482 344.62 187.902 343.954C200.926 343.123 182.914 358.921 183.191 360.03C183.468 361.138 186.793 362.524 191.781 360.584C195.772 359.032 204.529 346.449 208.409 340.351C212.177 335.473 209.425 334.069 207.577 333.977C194.276 338.189 178.757 342.384 172.66 343.954C173.03 342.846 172.439 342.901 167.118 351.992Z" fill="#A31C22"/>
<path d="M185.962 327.602C185.131 328.249 183.967 329.986 185.962 331.759C188.456 333.977 212.288 321.782 214.228 318.733C216.168 315.684 213.397 314.021 211.734 315.13C210.071 316.238 196.492 326.771 185.962 327.602Z" fill="#A31C22"/>
<path d="M167.949 135.254C163.515 139.688 154.37 149.167 153.262 151.606C151.876 154.655 137.743 189.022 137.743 190.685C137.743 192.348 137.466 196.783 141.9 194.566C145.447 192.792 154.648 167.404 158.804 154.932L173.215 138.58C173.03 136.732 171.718 133.48 167.949 135.254Z" fill="#FFF5FE"/>
<path d="M175.709 129.988C176.909 129.803 179.145 130.209 178.48 133.313C177.815 136.418 174.692 135.346 173.215 134.422C172.66 132.759 172.383 129.544 175.709 129.988Z" fill="#FFF5FE"/>
<path d="M181.805 124.444C180.42 124.814 178.092 126.218 179.865 128.879C181.639 131.54 183.745 129.988 184.576 128.879C185.223 127.401 185.574 124.444 181.805 124.444Z" fill="#FFF5FE"/>
<path d="M93.1274 187.36C84.9247 157.648 80.1028 146.525 78.7172 144.677C65.8635 136.964 50.7095 124.465 38.8122 113.806C37.3343 113.749 34.9326 114.578 37.1495 118.347C39.3665 122.116 62.8291 139.319 74.2833 147.449C77.3316 154.47 83.7608 171.506 85.091 183.479C92.1852 193.235 93.4045 190.131 93.1274 187.36Z" fill="#A31C22"/>
<path d="M141.623 90.3538C139.683 89.9843 136.302 90.1321 138.298 93.6798L167.949 103.935C170.351 104.027 174.6 103.547 172.383 100.886L141.623 90.3538Z" fill="#A31C22"/>
<path d="M77.0545 99.7773C92.2037 92.294 123.61 77.2719 128.044 77.0502C133.587 76.773 184.299 78.436 185.685 79.2675C187.07 80.099 188.179 82.0391 185.685 83.4249C183.191 84.8107 131.924 81.7619 129.153 82.5934C126.382 83.4249 98.1155 94.7884 81.2113 102.826C79.3639 103.011 75.9461 102.66 77.0545 99.7773Z" fill="#A31C22"/>
<path d="M145.78 53.7689C144.487 54.4156 142.676 56.5404 145.78 59.8664C153.724 60.3283 170.61 60.0326 174.6 55.1546C175.062 53.6765 175.431 50.7201 173.215 50.7201C167.857 51.7364 154.869 53.7689 145.78 53.7689Z" fill="#FFF5FE"/>
<path d="M181.528 49.6115C179.773 50.4429 177.316 52.7156 181.528 55.1546C183.191 54.2308 185.519 51.8287 181.528 49.6115Z" fill="#FFF5FE"/>
<path d="M131.924 55.1546C122.391 57.8154 75.8537 54.046 53.7766 51.8287C53.3147 52.4754 52.779 54.046 54.3308 55.1546C56.2707 56.5404 92.5732 60.6218 97.5613 60.4207L131.924 59.0349C133.476 56.3741 132.571 55.3394 131.924 55.1546Z" fill="#FFF5FE"/>
<path d="M99.2242 29.5409C75.885 28.9612 51.8002 26.6741 29.6675 21.6328C27.4296 21.123 25.2117 20.5851 23.0165 20.018L32.9928 36.1026C65.2888 41.6299 115.092 46.5727 162.13 41.5605L187.902 24.4729C186.376 24.6869 184.805 24.899 183.191 25.1083C165.684 27.3789 143.156 29.3171 118.9 29.6453C118.346 29.6527 117.792 29.6594 117.237 29.6652C112.307 29.7166 107.31 29.7008 102.272 29.6071C101.258 29.5882 100.242 29.5662 99.2242 29.5409Z" fill="#C3C4E0"/>
<path d="M198.987 35.1992L202.312 22.1727C198.154 22.9326 193.313 23.7142 187.902 24.4729L162.13 41.5605C173.959 40.3001 185.613 38.4101 196.77 35.7415C197.511 35.5642 198.25 35.3834 198.987 35.1992Z" fill="#7F84B0"/>
<path d="M13.0404 17.1839V32.1505C18.4952 33.4151 25.2395 34.7757 32.9928 36.1026L23.0165 20.018C19.6337 19.144 16.305 18.2007 13.0404 17.1839Z" fill="#897FB0"/>
<path d="M59.0419 8.8498C31.886 10.519 17.5569 14.585 13.0404 17.1839C16.305 18.2007 19.6337 19.144 23.0165 20.018C25.2117 20.5851 27.4296 21.123 29.6675 21.6328C36.9249 20.6161 49.8141 19.1436 64.3071 18.1281L59.0419 8.8498Z" fill="#897FB0"/>
<path d="M104.945 17.1839L108.923 8.59194C88.9374 7.78653 72.4306 8.02684 59.0419 8.8498L64.3071 18.1281C77.5381 17.201 92.1058 16.6548 104.945 17.1839Z" fill="#B4B3D8"/>
<path d="M137.52 9.70057L128.21 19.6729C132.547 19.8232 139.889 20.2205 148.551 20.9347L175.709 13.3729C162.447 11.2824 147.303 10.1243 137.52 9.70057Z" fill="#B4B3D8"/>
<path d="M148.551 20.9347C159.149 21.8086 171.724 23.1571 183.191 25.1083C184.805 24.899 186.376 24.6869 187.902 24.4729C193.313 23.7142 198.154 22.9326 202.312 22.1727C199.486 18.2587 188.468 15.3843 175.709 13.3729L148.551 20.9347Z" fill="#7F84B0"/>
<path d="M114.189 0L108.923 8.59194L104.945 17.1839L99.2242 29.5409C100.242 29.5662 101.258 29.5882 102.272 29.6071L116.128 3.04875L137.52 6.37466L117.237 29.6652C117.792 29.6594 118.346 29.6527 118.9 29.6453L128.21 19.6729L137.52 9.70057L142.177 4.7117L114.189 0Z" fill="#D8D9ED"/>
<path fill-rule="evenodd" clip-rule="evenodd" d="M137.52 6.37466L116.128 3.04875L102.272 29.6071C107.31 29.7008 112.307 29.7166 117.237 29.6652L137.52 6.37466ZM112.803 14.9666C113.911 8.5365 118.253 8.03762 120.285 8.59194C128.599 10.5321 126.659 13.858 125.827 18.2925C124.996 22.727 111.417 23.0042 112.803 14.9666Z" fill="#7F84B0"/>
<path d="M120.285 10.8092C118.253 11.2711 114.798 13.0265 117.237 16.3524C120.285 20.5098 124.165 17.1839 123.61 15.5209C123.056 13.858 125.141 11.9178 120.285 10.8092Z" fill="#7F84B0"/>
<path fill-rule="evenodd" clip-rule="evenodd" d="M120.285 8.59194C118.253 8.03762 113.911 8.5365 112.803 14.9666C111.417 23.0042 124.996 22.727 125.827 18.2925C126.659 13.858 128.599 10.5321 120.285 8.59194ZM117.237 16.3524C114.798 13.0265 118.253 11.2711 120.285 10.8092C125.141 11.9178 123.056 13.858 123.61 15.5209C124.165 17.1839 120.285 20.5098 117.237 16.3524Z" fill="#C3C4E0"/>
<path d="M29.6675 21.6328C51.8002 26.6741 75.885 28.9612 99.2242 29.5409L104.945 17.1839C92.1058 16.6548 77.5381 17.201 64.3071 18.1281C49.8141 19.1436 36.9249 20.6161 29.6675 21.6328Z" fill="#B3B3D8"/>
<path d="M128.21 19.6729L118.9 29.6453C143.156 29.3171 165.684 27.3789 183.191 25.1083C171.724 23.1571 159.149 21.8086 148.551 20.9347C139.889 20.2205 132.547 19.8232 128.21 19.6729Z" fill="#B3B3D8"/>
<path d="M60.4274 387.745C65.9698 389.963 89.2477 402.435 155.202 396.337C169.612 394.213 200.261 388.189 207.577 381.094C209.464 376.734 214.211 367.271 218.108 364.299C211.947 368.394 203.7 372.056 193.998 375.143C195.107 377.126 194.941 382.036 185.408 385.805C180.916 387.581 174.102 388.963 165.455 390.011C151.16 391.743 131.856 392.562 109.754 392.734C106.708 392.758 103.75 392.699 100.887 392.57C94.2441 392.272 88.1148 391.598 82.5969 390.714C68.3366 388.43 58.1593 384.739 53.7553 382.479C56.3253 385.035 58.7383 387.07 60.4274 387.745Z" fill="#485568"/>
<path d="M185.408 385.805C194.941 382.036 195.107 377.126 193.998 375.143C192.287 375.687 190.531 376.213 188.733 376.721C190.303 378.363 191.837 382.479 185.408 385.805Z" fill="#45556C"/>
<path d="M185.408 385.805C191.837 382.479 190.303 378.363 188.733 376.721C185.277 377.697 181.666 378.604 177.926 379.436L165.455 390.011C174.102 388.963 180.916 387.581 185.408 385.805Z" fill="#8188B8"/>
<path d="M177.926 379.436C152.916 384.999 122.106 387.22 92.8503 384.42C92.2914 384.366 91.7372 384.311 91.1876 384.253L100.887 392.57C103.75 392.699 106.708 392.758 109.754 392.734C131.856 392.562 151.16 391.743 165.455 390.011L177.926 379.436Z" fill="#C3B3E2"/>
<path d="M100.887 392.57L91.1876 384.253C84.536 383.56 78.555 382.593 73.1749 381.421L82.5969 390.714C88.1148 391.598 94.2441 392.272 100.887 392.57Z" fill="#8188B8"/>
<path d="M42.4148 369.488C44.988 372.798 49.579 378.327 53.7553 382.479C58.1593 384.739 68.3366 388.43 82.5969 390.714L73.1749 381.421C59.3467 378.409 49.4879 374.041 42.4148 369.488Z" fill="#485568"/>
</svg>
