<svg width="219" height="410" viewBox="0 0 219 410" fill="none" xmlns="http://www.w3.org/2000/svg">
<path d="M149.221 39H84.7209C81.1095 38.9119 76.8341 38.7649 72.2209 38.5518C71.2352 38.5062 70.2341 38.4577 69.2207 38.406L45.7207 78V83.5774C70.7363 86.4633 105.869 87.6119 149.221 83C136.887 86.3333 101.621 92.8 59.2207 92C55.5867 91.5184 50.8601 90.7654 45.7207 89.7644V147.5C71.8173 151.985 129.438 156.604 183.221 146.657V92C182.887 85.1667 175.621 65 149.221 39Z" fill="#EF464D"/>
<path d="M45.7207 147.5L46.0922 183.5C63.8017 185.5 104.721 189.5 126.721 189.5C130.054 192 134.721 198.9 126.721 206.5C108.762 206.667 67.5331 206 46.2832 202L46.5992 232.627C55.7431 233.979 65.8628 234.886 76.7207 235C81.2207 238.333 87.5207 246.8 76.7207 254C70.12 253.624 59.1984 252.588 46.7856 250.68L47.1552 286.5C79.012 290.511 139.864 293.41 183.221 282.177V146.657C129.438 156.604 71.8173 151.985 45.7207 147.5Z" fill="#EF464D"/>
<path d="M47.1552 286.5L48.2207 389.737C60.6212 391.927 76.0522 393.89 94.2207 394.544C115.221 391.696 162.421 378.3 183.221 347.5V282.177C139.864 293.41 79.012 290.511 47.1552 286.5Z" fill="#EF464D"/>
<path d="M0.220861 364C0.0541415 368.833 3.0207 379.3 16.2207 382.5L14.8384 277.742C6.83489 273.717 2.03521 269.303 0.0798085 266.5C0.121688 302.374 0.173918 337.008 0.220861 364Z" fill="#EF464D"/>
<path d="M0.0506225 239.5C0.0595438 248.511 0.0693536 257.544 0.0798085 266.5C2.03521 269.303 6.83489 273.717 14.8384 277.742L14.3932 244.002C9.43292 242.659 4.59889 241.162 0.0506225 239.5Z" fill="#EF464D"/>
<path d="M13.7399 194.487C8.17802 192.874 3.30338 191.339 0.0117131 190.242C0.0170368 199.785 0.0240153 209.583 0.0323145 219.5C3.02063 221.036 7.82296 223.053 14.1441 225.122L13.7399 194.487Z" fill="#EF464D"/>
<path d="M12.9876 137.471C4.7005 133.825 0.938206 130.698 0.00591931 129C-0.0010628 141.337 -0.0015944 155.2 0.00288814 170C1.73297 171.24 6.07559 173.392 13.4937 175.831L12.9876 137.471Z" fill="#EF464D"/>
<path d="M22.2209 32.6311C15.0542 45.5874 0.620861 72 0.220861 74C0.087222 74.6682 0.0242763 96.5629 0.00591931 129C0.938206 130.698 4.7005 133.825 12.9876 137.471L12.2207 79.3518C10.3682 78.2879 8.83448 77.1695 7.7207 76C8.99729 76.4569 10.499 76.9376 12.2207 77.4311V74L37.7207 35.7825C31.188 34.9269 25.6547 33.8844 22.2209 32.6311Z" fill="#EF464D"/>
<path d="M218.721 266V137.5C207.357 141.411 195.387 144.406 183.221 146.657V282.177C197.509 278.475 209.897 273.238 218.721 266Z" fill="#A31C22"/>
<path d="M204.221 382.5C207.387 381.5 214.721 377.2 218.721 368V266C209.897 273.238 197.509 278.475 183.221 282.177V347.5C162.421 378.3 115.221 391.696 94.2207 394.544C108.018 395.042 123.394 394.785 140.221 393.302C159.68 391.586 181.08 388.229 204.221 382.5Z" fill="#A31C22"/>
<path d="M153.721 38.9659C152.261 38.9884 150.761 39 149.221 39C175.621 65 182.887 85.1667 183.221 92V146.657C195.387 144.406 207.357 141.411 218.721 137.5V70C211.721 59.2742 197.621 36.7405 197.221 32.4114C191.472 35.1588 178.217 38.5888 153.721 38.9659Z" fill="#A31C22"/>
<path d="M45.7207 89.7644C34.9021 87.6575 22.2543 84.4522 14.1181 80.3685C13.4545 80.0354 12.8209 79.6964 12.2207 79.3518L12.9876 137.471C20.1519 140.623 30.6979 144.162 45.7207 147.5V89.7644Z" fill="#E11F27"/>
<path d="M46.0922 183.5L45.7207 147.5C30.6979 144.162 20.1519 140.623 12.9876 137.471L13.4937 175.831C21.0268 178.308 31.7313 181.082 46.0922 183.5Z" fill="#E11F27"/>
<path d="M45.7207 78L69.2207 38.406C58.866 37.8784 47.2337 37.0285 37.7207 35.7825L12.2207 74V77.4311C19.5425 79.5301 30.8422 81.861 45.7207 83.5774V78Z" fill="#E11F27"/>
<path d="M46.5992 232.627L46.2832 202C36.9344 200.791 24.1365 197.503 13.7399 194.487L14.1441 225.122C22.523 227.864 33.5706 230.699 46.5992 232.627Z" fill="#E11F27"/>
<path d="M47.1552 286.5L46.7856 250.68C36.4763 249.095 25.1385 246.91 14.3932 244.002L14.8384 277.742C22.5385 281.614 33.204 285.127 47.1552 286.5Z" fill="#E11F27"/>
<path d="M16.2207 382.5C21.5873 383.801 32.4546 386.953 48.2207 389.737L47.1552 286.5C33.204 285.127 22.5385 281.614 14.8384 277.742L16.2207 382.5Z" fill="#E11F27"/>
<path d="M48.2207 389.737C32.4546 386.953 21.5873 383.801 16.2207 382.5C17.7207 387.167 21.1207 396.6 22.7207 397C24.7207 397.5 64.2207 411.5 113.721 409.5C129.321 405.1 137.887 396.868 140.221 393.302C123.394 394.785 108.018 395.042 94.2207 394.544C76.0522 393.89 60.6212 391.927 48.2207 389.737Z" fill="#C3B3E2"/>
<path d="M113.721 409.5C153.321 407.9 183.887 400.5 194.221 397L204.221 382.5C181.08 388.229 159.68 391.586 140.221 393.302C137.887 396.868 129.321 405.1 113.721 409.5Z" fill="#485568"/>
<path d="M0.00288814 170C0.00488091 176.579 0.00786464 183.344 0.0117131 190.242C3.30338 191.339 8.17802 192.874 13.7399 194.487L13.4937 175.831C6.07559 173.392 1.73297 171.24 0.00288814 170Z" fill="#FFF5FE"/>
<path d="M46.2832 202L46.0922 183.5C31.7313 181.082 21.0268 178.308 13.4937 175.831L13.7399 194.487C24.1365 197.503 36.9344 200.791 46.2832 202Z" fill="#FFF5FE"/>
<path d="M126.721 189.5C104.721 189.5 63.8017 185.5 46.0922 183.5L46.2832 202C67.5331 206 108.762 206.667 126.721 206.5C134.721 198.9 130.054 192 126.721 189.5Z" fill="#FFF5FE"/>
<path d="M0.0323145 219.5C0.0378606 226.127 0.0439965 232.807 0.0506225 239.5C4.59889 241.162 9.43292 242.659 14.3932 244.002L14.1441 225.122C7.82296 223.053 3.02063 221.036 0.0323145 219.5Z" fill="#FFF5FE"/>
<path d="M46.7856 250.68L46.5992 232.627C33.5706 230.699 22.523 227.864 14.1441 225.122L14.3932 244.002C25.1385 246.91 36.4763 249.095 46.7856 250.68Z" fill="#FFF5FE"/>
<path d="M76.7207 254C87.5207 246.8 81.2207 238.333 76.7207 235C65.8628 234.886 55.7431 233.979 46.5992 232.627L46.7856 250.68C59.1984 252.588 70.12 253.624 76.7207 254Z" fill="#FFF5FE"/>
<path d="M59.2207 92C101.621 92.8 136.887 86.3333 149.221 83C105.869 87.6119 70.7363 86.4633 45.7207 83.5774C30.8422 81.861 19.5425 79.5301 12.2207 77.4311C10.499 76.9376 8.99729 76.4569 7.7207 76C8.83448 77.1695 10.3682 78.2879 12.2207 79.3518C12.8209 79.6964 13.4545 80.0354 14.1181 80.3685C22.2543 84.4522 34.9021 87.6575 45.7207 89.7644C50.8601 90.7654 55.5867 91.5184 59.2207 92Z" fill="#FFF5FE"/>
<path fill-rule="evenodd" clip-rule="evenodd" d="M97.2209 27H123.221L124.471 19.75L125.721 12.5L127.221 0H94.7209L95.8783 12.5L96.5496 19.75L97.2209 27ZM110.721 6.5C104.221 6.5 105.221 15 110.721 15C116.221 15 117.221 6.5 110.721 6.5Z" fill="#7F84B0"/>
<path d="M200.221 30.5C200.888 28.6667 201.821 23.8 200.221 19C196.221 20.6 186.701 22.3333 182.441 23C182.01 23.9265 165.114 25.142 149.221 25.9889C150.888 27.9699 154.121 33.3386 153.721 38.9659C178.217 38.5888 191.472 35.1588 197.221 32.4114C198.691 31.7088 199.67 31.0508 200.221 30.5Z" fill="#7F84B0"/>
<path d="M200.221 19C198.621 14.2 149.888 12.6667 125.721 12.5L124.471 19.75C126.956 19.821 129.936 19.9128 133.221 20.0222C149.216 20.5548 172.425 21.5045 180.721 22.5C181.993 22.6527 182.525 22.821 182.441 23C186.701 22.3333 196.221 20.6 200.221 19Z" fill="#7F84B0"/>
<path d="M96.5496 19.75L95.8783 12.5C87.8394 12.5 80.4605 12.6112 73.7209 12.8099L65.7209 20.9755C72.5547 20.6354 79.2681 20.3393 84.7209 20.1234C90.6214 19.8897 95.0458 19.75 96.5496 19.75Z" fill="#C3C4E0"/>
<path d="M180.721 22.5C172.425 21.5045 149.216 20.5548 133.221 20.0222V26.7311C137.875 26.5524 143.483 26.2947 149.221 25.9889C165.114 25.142 182.01 23.9265 182.441 23C182.525 22.821 181.993 22.6527 180.721 22.5Z" fill="#B3B3D8"/>
<path d="M84.7209 39H149.221C150.761 39 152.261 38.9884 153.721 38.9659C154.121 33.3386 150.888 27.9699 149.221 25.9889C143.483 26.2947 137.875 26.5524 133.221 26.7311C128.785 26.9015 125.215 27 123.221 27H97.2209C93.6035 26.9132 89.3309 26.8022 84.7209 26.6719C83.5735 26.6395 82.4052 26.6058 81.2209 26.571L72.2209 38.5518C76.8341 38.7649 81.1095 38.9119 84.7209 39Z" fill="#C3C4E0"/>
<path d="M124.471 19.75L123.221 27C125.215 27 128.785 26.9015 133.221 26.7311V20.0222C129.936 19.9128 126.956 19.821 124.471 19.75Z" fill="#C3C4E0"/>
<path d="M97.2209 27L96.5496 19.75C95.0458 19.75 90.6214 19.8897 84.7209 20.1234V26.6719C89.3309 26.8022 93.6035 26.9132 97.2209 27Z" fill="#C3C4E0"/>
<path d="M84.7209 26.6719V20.1234C79.2681 20.3393 72.5547 20.6354 65.7209 20.9755C47.142 21.9002 27.6725 23.1506 30.2209 24C33.0402 24.9398 59.7588 25.9409 81.2209 26.571C82.4052 26.6058 83.5735 26.6395 84.7209 26.6719Z" fill="#C3C4E0"/>
<path d="M18.7208 19C17.2208 20.5 15.1208 24.9 18.7208 30.5C19.2156 31.2697 20.434 31.9789 22.2209 32.6311C25.6547 33.8844 31.188 34.9269 37.7207 35.7825C47.2337 37.0285 58.866 37.8784 69.2207 38.406C70.2341 38.4577 71.2352 38.5062 72.2209 38.5518L81.2209 26.571C59.7588 25.9409 33.0402 24.9398 30.2209 24C23.8209 23.33 19.8875 20.3875 18.7208 19Z" fill="#897FB0"/>
<path d="M30.2209 24C27.6725 23.1506 47.142 21.9002 65.7209 20.9755L73.7209 12.8099C41.763 13.7519 24.1754 16.6601 18.7208 19C19.8875 20.3875 23.8209 23.33 30.2209 24Z" fill="#897FB0"/>
<path d="M110.721 6.5C104.221 6.5 105.221 15 110.721 15C116.221 15 117.221 6.5 110.721 6.5Z" fill="#C3C4E0"/>
</svg>
